<?xml version="1.0" standalone="no"?>
<!DOCTYPE svg PUBLIC "-//W3C//DTD SVG 20010904//EN"
 "http://www.w3.org/TR/2001/REC-SVG-20010904/DTD/svg10.dtd">
<svg id="svg" version="1.1" width="1360" height="1200"  xmlns="http://www.w3.org/2000/svg" xmlns:xlink="http://www.w3.org/1999/xlink" style="display: block;"><g id="svgg"><path id="path0" d="M0.000 176.471 L 0.000 352.941 200.000 352.941 L 400.000 352.941 400.000 176.471 L 400.000 0.000 200.000 0.000 L 0.000 0.000 0.000 176.471 M63.088 119.989 C 68.084 125.530,60.484 133.302,54.771 128.494 C 52.518 126.598,51.898 123.762,53.191 121.263 C 55.237 117.305,60.104 116.679,63.088 119.989 M80.531 120.264 C 84.061 123.793,81.752 129.719,76.577 130.413 C 73.296 130.853,70.000 127.845,70.000 124.412 C 70.000 119.041,76.678 116.410,80.531 120.264 M45.432 122.893 C 49.641 126.653,47.120 133.235,41.471 133.235 C 39.391 133.235,38.514 132.899,37.219 131.604 C 33.519 127.904,36.262 121.176,41.471 121.176 C 42.894 121.176,44.092 121.696,45.432 122.893 M93.208 125.027 C 96.159 126.427,97.456 129.676,96.233 132.603 C 93.678 138.718,84.706 137.246,84.706 130.713 C 84.706 125.839,88.946 123.004,93.208 125.027 M31.119 133.793 C 33.327 136.001,33.279 139.929,31.016 142.193 C 28.549 144.660,24.652 144.530,22.305 141.902 C 17.020 135.988,25.507 128.180,31.119 133.793 M64.674 135.583 C 68.280 139.189,65.390 145.882,60.226 145.882 C 57.291 145.882,54.118 142.745,54.118 139.844 C 54.118 134.406,60.800 131.709,64.674 135.583 M80.045 135.837 C 83.114 138.906,82.074 143.899,78.011 145.597 C 71.927 148.139,66.749 140.193,71.640 135.822 C 74.309 133.438,77.652 133.443,80.045 135.837 M107.653 136.862 C 111.864 139.349,111.497 145.809,107.040 147.655 C 104.947 148.522,101.682 148.005,100.416 146.605 C 95.534 141.211,101.475 133.212,107.653 136.862 M50.816 138.838 C 54.670 142.560,51.911 148.824,46.416 148.824 C 39.897 148.824,38.288 139.917,44.340 137.330 C 46.700 136.322,48.690 136.785,50.816 138.838 M273.567 141.086 C 278.200 142.883,279.412 144.177,279.412 147.328 C 279.412 152.189,278.571 152.701,274.502 150.316 C 264.261 144.314,252.941 147.531,252.941 156.442 C 252.941 161.624,255.175 163.753,266.634 169.494 C 279.388 175.883,282.983 180.136,283.010 188.869 C 283.048 200.695,275.153 208.056,261.765 208.680 C 250.457 209.207,241.765 205.328,241.765 199.754 C 241.765 194.524,242.088 194.423,248.528 197.658 C 261.557 204.202,273.529 200.503,273.529 189.932 C 273.529 184.881,270.628 182.044,260.083 176.786 C 247.012 170.270,243.827 166.404,243.827 157.059 C 243.827 143.099,258.478 135.230,273.567 141.086 M148.220 168.937 C 153.549 184.691,158.049 197.442,158.220 197.273 C 158.390 197.105,162.765 184.215,167.941 168.630 L 177.353 140.294 181.463 140.294 C 184.920 140.294,185.604 140.459,185.772 141.331 C 185.996 142.496,164.520 204.848,163.183 206.912 C 162.412 208.102,161.853 208.235,157.647 208.235 C 151.665 208.235,153.341 211.540,140.341 174.118 C 127.267 136.480,127.858 139.855,134.386 140.124 L 138.529 140.294 148.220 168.937 M365.398 141.029 C 366.644 142.496,388.981 205.514,388.725 206.841 C 388.541 207.799,387.944 207.941,384.113 207.941 L 379.712 207.941 376.551 198.971 L 373.390 190.000 359.685 190.000 L 345.980 190.000 343.205 198.382 C 341.679 202.993,340.160 207.107,339.829 207.525 C 338.849 208.762,331.539 208.235,331.286 206.909 C 331.072 205.787,353.103 143.490,354.480 141.324 C 355.611 139.544,363.946 139.320,365.398 141.029 M94.265 142.930 C 99.260 148.472,91.661 156.243,85.947 151.435 C 83.694 149.539,83.075 146.703,84.367 144.204 C 86.414 140.246,91.280 139.620,94.265 142.930 M232.824 141.294 C 233.212 141.682,233.529 143.085,233.529 144.412 C 233.529 148.249,233.580 148.235,219.000 148.235 L 205.882 148.235 205.882 158.811 L 205.882 169.387 217.478 169.546 L 229.074 169.706 229.626 171.630 C 229.998 172.929,229.962 174.028,229.513 175.013 L 228.849 176.471 217.366 176.471 L 205.882 176.471 205.882 188.224 L 205.882 199.978 219.559 200.136 L 233.235 200.294 233.732 202.353 C 234.040 203.632,233.990 205.025,233.599 206.029 L 232.970 207.647 215.645 207.647 C 200.679 207.647,198.193 207.521,197.395 206.723 C 195.991 205.319,195.991 142.917,197.395 141.513 C 198.601 140.307,231.632 140.103,232.824 141.294 M337.306 143.075 C 337.675 144.565,337.631 145.743,337.172 146.751 L 336.496 148.235 326.777 148.235 L 317.059 148.235 317.059 177.529 C 317.059 210.271,317.356 208.235,312.578 208.235 C 307.153 208.235,307.647 211.279,307.647 177.878 L 307.647 148.235 297.710 148.235 C 286.763 148.235,287.059 148.341,287.059 144.412 C 287.059 140.281,285.154 140.559,312.271 140.729 L 336.765 140.882 337.306 143.075 M20.523 147.977 C 25.537 152.196,21.154 160.266,14.959 158.222 C 11.069 156.938,9.556 153.115,11.471 149.412 C 13.203 146.061,17.447 145.388,20.523 147.977 M37.666 147.363 C 39.954 148.546,41.382 151.367,40.925 153.801 C 40.180 157.774,35.352 159.967,31.873 157.912 C 25.147 153.939,30.729 143.775,37.666 147.363 M355.587 161.549 C 353.382 167.976,350.827 175.333,349.910 177.896 C 347.868 183.605,346.639 182.996,359.829 182.807 L 371.005 182.647 365.301 166.254 L 359.597 149.862 355.587 161.549 M116.235 153.176 C 118.550 155.491,118.810 157.580,117.126 160.341 C 114.267 165.030,107.132 163.832,106.131 158.494 C 104.974 152.325,111.794 148.736,116.235 153.176 M100.147 156.459 C 105.202 162.067,97.266 169.793,91.627 164.754 C 89.999 163.300,89.706 162.635,89.706 160.404 C 89.706 154.550,96.210 152.093,100.147 156.459 M30.045 160.543 C 34.258 164.755,30.454 172.145,24.721 170.886 C 17.724 169.349,18.737 158.824,25.882 158.824 C 27.799 158.824,28.697 159.194,30.045 160.543 M16.055 165.303 C 19.746 168.207,19.144 173.894,14.960 175.643 C 10.697 177.424,6.471 174.570,6.471 169.910 C 6.471 165.061,12.229 162.294,16.055 165.303 M117.671 167.374 C 122.117 171.398,118.477 179.074,112.642 177.979 C 107.118 176.943,105.660 169.465,110.456 166.767 C 112.419 165.663,116.124 165.974,117.671 167.374 M102.137 171.042 C 107.704 175.552,102.822 184.285,96.266 181.546 C 90.073 178.958,91.828 170.026,98.529 170.026 C 99.882 170.026,101.416 170.458,102.137 171.042 M33.079 175.246 C 37.316 179.031,34.765 185.588,29.056 185.588 C 26.770 185.588,26.121 185.305,24.658 183.667 C 19.536 177.935,27.346 170.124,33.079 175.246 M17.914 179.732 C 20.864 181.132,22.162 184.382,20.939 187.309 C 18.312 193.595,9.412 191.932,9.412 185.155 C 9.412 180.463,13.695 177.731,17.914 179.732 M116.020 182.893 C 120.257 186.678,117.706 193.235,111.997 193.235 C 109.711 193.235,109.062 192.952,107.599 191.314 C 102.477 185.582,110.288 177.771,116.020 182.893 M96.926 185.885 C 100.546 188.092,100.865 192.790,97.582 195.553 C 92.024 200.229,84.360 192.343,89.215 186.944 C 91.401 184.513,94.074 184.146,96.926 185.885 M35.628 187.920 C 41.543 190.391,39.434 199.412,32.941 199.412 C 27.937 199.412,25.204 193.694,28.317 189.736 C 30.406 187.080,32.420 186.579,35.628 187.920 M84.751 192.308 C 90.279 197.835,82.196 206.368,76.553 200.962 C 74.468 198.964,73.960 196.810,74.991 194.342 C 76.689 190.279,81.682 189.239,84.751 192.308 M23.882 196.118 C 26.422 198.657,26.594 201.417,24.376 204.053 C 21.615 207.334,16.943 207.018,14.678 203.397 C 10.838 197.257,18.758 190.993,23.882 196.118 M110.428 196.193 C 112.304 198.069,112.472 198.501,112.178 200.694 C 111.137 208.456,100.294 208.035,100.294 200.232 C 100.294 194.536,106.355 192.120,110.428 196.193 M47.333 197.895 C 53.320 200.396,51.335 209.438,44.808 209.399 C 38.587 209.361,36.575 201.483,41.949 198.206 C 44.191 196.839,44.731 196.808,47.333 197.895 M74.751 202.896 C 79.489 207.634,73.975 215.471,67.924 212.599 C 66.816 212.074,65.574 210.831,65.048 209.723 C 62.176 203.672,70.014 198.158,74.751 202.896 M60.961 204.572 C 66.527 209.081,61.645 217.815,55.090 215.075 C 48.897 212.488,50.652 203.556,57.353 203.556 C 58.706 203.556,60.239 203.987,60.961 204.572 M34.163 205.837 C 37.252 208.926,36.190 213.900,32.075 215.620 C 28.859 216.963,25.197 215.329,24.121 212.070 C 22.083 205.894,29.572 201.246,34.163 205.837 M43.803 213.189 C 49.933 215.750,48.120 224.680,41.471 224.680 C 34.907 224.680,33.006 215.825,39.009 213.214 C 41.373 212.185,41.401 212.185,43.803 213.189 M74.641 217.977 C 78.170 220.947,77.374 226.250,73.131 228.022 C 68.078 230.134,63.184 225.094,65.308 219.967 C 66.863 216.213,71.396 215.246,74.641 217.977 M57.833 218.304 C 62.119 220.496,62.351 226.593,58.241 229.020 C 56.075 230.300,54.250 230.255,51.972 228.867 C 45.631 225.000,51.222 214.923,57.833 218.304 " stroke="none" fill="#fefefe" fill-rule="evenodd"></path><path id="path1" d="M258.957 140.040 C 249.457 141.702,243.963 147.938,243.963 157.059 C 243.963 166.073,247.373 170.128,260.394 176.600 C 272.537 182.636,275.356 186.159,273.513 193.001 C 271.223 201.506,259.957 203.801,248.681 198.059 C 242.476 194.899,242.353 194.921,242.353 199.180 C 242.353 203.078,243.670 204.602,248.649 206.465 C 265.275 212.685,281.464 205.150,282.786 190.577 C 283.611 181.475,279.468 176.188,266.523 169.821 C 257.150 165.212,254.037 162.740,252.930 159.027 C 249.910 148.908,261.328 143.661,273.630 149.515 C 278.866 152.007,278.824 152.023,278.824 147.617 C 278.824 144.644,278.646 144.137,277.295 143.251 C 273.084 140.493,264.731 139.030,258.957 140.040 M130.735 140.607 C 129.064 141.278,127.757 136.880,140.632 173.908 C 153.264 210.237,152.113 207.935,157.643 207.938 C 163.190 207.942,162.065 210.194,174.686 173.827 C 187.288 137.513,186.891 139.627,180.995 140.164 C 177.188 140.511,178.246 138.123,167.908 169.706 C 162.824 185.235,158.502 198.126,158.303 198.353 C 158.104 198.579,153.574 185.782,148.235 169.914 C 139.806 144.859,138.350 140.994,137.168 140.532 C 135.473 139.870,132.482 139.904,130.735 140.607 M355.917 140.711 C 354.450 141.487,331.775 203.068,331.768 206.297 C 331.764 207.874,334.900 208.681,337.835 207.857 C 339.629 207.354,339.826 206.978,342.644 198.666 L 345.581 190.000 359.702 190.002 L 373.824 190.004 376.765 198.595 C 379.964 207.941,380.204 208.235,384.632 208.235 C 389.727 208.235,390.150 210.204,377.367 174.389 C 371.021 156.608,365.451 141.679,364.991 141.215 C 363.860 140.076,357.757 139.737,355.917 140.711 M197.907 141.423 C 196.120 142.729,196.120 205.506,197.907 206.812 C 199.442 207.935,231.711 208.054,232.824 206.941 C 233.738 206.027,233.738 201.620,232.824 200.706 C 232.316 200.198,228.353 200.000,218.706 200.000 L 205.294 200.000 205.294 188.235 L 205.294 176.471 216.647 176.471 C 229.160 176.471,229.412 176.401,229.412 172.941 C 229.412 169.481,229.160 169.412,216.647 169.412 L 205.294 169.412 205.294 158.824 L 205.294 148.235 218.187 148.235 C 225.278 148.235,231.499 148.075,232.011 147.878 C 233.337 147.369,233.337 141.454,232.011 140.945 C 229.879 140.127,199.089 140.559,197.907 141.423 M288.382 140.978 C 287.235 141.441,287.404 147.428,288.578 147.878 C 289.089 148.075,293.722 148.235,298.872 148.235 L 308.235 148.235 308.235 177.876 L 308.235 207.516 310.294 207.902 C 311.426 208.115,313.279 208.115,314.412 207.902 L 316.471 207.516 316.471 177.876 L 316.471 148.235 326.059 148.235 C 332.732 148.235,335.862 148.021,336.353 147.529 C 337.267 146.615,337.267 142.208,336.353 141.294 C 335.645 140.587,290.096 140.286,288.382 140.978 M365.553 165.875 C 368.646 174.752,371.176 182.224,371.176 182.478 C 371.176 182.733,365.925 182.941,359.507 182.941 L 347.837 182.941 353.337 166.912 C 359.947 147.649,359.385 149.189,359.685 149.489 C 359.820 149.624,362.461 156.998,365.553 165.875 " stroke="none" fill="#484243" fill-rule="evenodd"></path><path id="path2" d="M57.353 118.110 C 54.973 118.595,52.941 121.217,52.941 123.803 C 52.941 130.229,60.914 132.097,63.878 126.365 C 66.058 122.150,62.100 117.143,57.353 118.110 M73.544 119.266 C 67.149 122.483,71.191 132.228,77.990 129.984 C 83.076 128.305,83.158 120.628,78.109 118.868 C 75.805 118.064,75.958 118.051,73.544 119.266 M38.838 122.192 C 32.176 125.591,36.852 135.598,43.755 132.714 C 46.633 131.511,48.014 128.482,47.035 125.517 C 45.873 121.995,42.169 120.493,38.838 122.192 M87.500 125.341 C 84.334 127.185,83.941 131.706,86.706 134.471 C 90.991 138.756,97.356 135.199,96.222 129.153 C 95.542 125.530,90.762 123.441,87.500 125.341 M24.132 132.795 C 18.195 135.782,21.260 144.951,27.780 143.704 C 33.225 142.663,34.161 134.717,29.089 132.597 C 26.593 131.554,26.598 131.554,24.132 132.795 M57.655 134.564 C 51.248 137.784,55.316 147.519,62.130 145.271 C 66.925 143.688,67.373 135.714,62.741 134.388 C 62.042 134.188,61.071 133.915,60.582 133.782 C 60.093 133.649,58.776 134.001,57.655 134.564 M73.235 134.800 C 69.002 137.129,68.829 142.874,72.929 144.994 C 79.175 148.224,84.698 141.051,79.765 136.118 C 77.655 134.008,75.475 133.569,73.235 134.800 M103.108 136.338 C 101.279 136.631,98.824 139.752,98.824 141.782 C 98.824 149.073,109.001 150.338,110.337 143.213 C 111.109 139.099,107.471 135.640,103.108 136.338 M43.594 137.880 C 38.495 140.706,40.628 148.824,46.471 148.824 C 49.451 148.824,52.353 145.950,52.353 142.998 C 52.353 138.582,47.473 135.730,43.594 137.880 M85.698 142.826 C 81.127 147.598,86.794 155.259,92.456 151.962 C 97.997 148.735,96.055 141.176,89.685 141.176 C 87.817 141.176,86.926 141.545,85.698 142.826 M14.706 146.886 C 8.360 149.206,10.290 158.235,17.132 158.235 C 20.956 158.235,23.685 152.999,21.747 149.379 C 20.619 147.271,17.080 146.018,14.706 146.886 M32.538 147.330 C 25.829 150.253,29.814 160.529,36.767 158.235 C 41.704 156.605,41.675 147.059,36.733 147.059 C 36.318 147.059,35.626 146.936,35.195 146.786 C 34.764 146.636,33.569 146.881,32.538 147.330 M109.412 151.925 C 107.487 152.882,105.718 156.493,106.211 158.456 C 107.283 162.729,112.369 164.337,115.767 161.477 C 120.950 157.116,115.486 148.904,109.412 151.925 M94.436 154.590 C 90.592 155.422,88.707 159.359,90.453 162.910 C 92.661 167.397,99.010 167.220,100.932 162.618 C 102.800 158.148,99.104 153.581,94.436 154.590 M23.758 159.378 C 21.355 160.392,19.857 163.007,20.202 165.587 C 21.108 172.378,30.661 172.325,31.573 165.524 C 32.126 161.403,27.528 157.787,23.758 159.378 M10.588 164.533 C 8.842 165.171,7.070 167.283,6.722 169.140 C 5.668 174.759,12.445 178.234,16.516 174.163 C 20.764 169.915,16.190 162.485,10.588 164.533 M111.765 166.276 C 108.457 167.567,106.893 171.542,108.483 174.617 C 111.181 179.833,119.412 177.948,119.412 172.113 C 119.412 168.442,114.947 165.034,111.765 166.276 M96.064 170.566 C 92.438 172.104,91.654 177.445,94.661 180.131 C 99.059 184.061,105.927 179.895,104.113 174.398 C 102.981 170.969,99.275 169.205,96.064 170.566 M26.485 174.545 C 25.118 175.243,24.171 176.307,23.625 177.758 C 21.458 183.521,28.779 188.120,33.155 183.743 C 37.881 179.017,32.437 171.509,26.485 174.545 M12.206 180.047 C 9.352 181.709,8.690 186.110,10.898 188.735 C 14.630 193.170,21.176 190.557,21.176 184.633 C 21.176 180.798,15.713 178.005,12.206 180.047 M109.537 182.063 C 103.835 184.540,105.901 193.291,112.145 193.114 C 118.389 192.937,120.161 184.423,114.452 182.038 C 111.978 181.004,111.974 181.004,109.537 182.063 M90.163 186.337 C 85.010 190.340,89.604 198.690,95.701 196.405 C 101.816 194.113,100.374 185.272,93.890 185.307 C 92.512 185.315,90.908 185.758,90.163 186.337 M29.853 188.282 C 26.900 190.003,26.412 195.136,28.980 197.485 C 33.049 201.209,38.824 198.534,38.824 192.925 C 38.824 189.034,33.391 186.222,29.853 188.282 M77.712 191.409 C 72.507 194.294,74.625 202.353,80.588 202.353 C 85.988 202.353,88.334 196.452,84.471 192.588 C 82.295 190.412,80.177 190.043,77.712 191.409 M17.252 194.975 C 14.963 195.971,14.118 197.452,14.118 200.469 C 14.118 204.785,18.359 207.329,22.342 205.402 C 29.259 202.056,24.306 191.907,17.252 194.975 M103.544 195.134 C 96.882 198.532,101.558 208.539,108.460 205.655 C 111.339 204.452,112.720 201.424,111.741 198.458 C 110.579 194.936,106.875 193.434,103.544 195.134 M41.251 198.880 C 36.063 203.713,41.324 211.799,47.558 208.575 C 49.832 207.400,50.588 206.016,50.588 203.032 C 50.588 198.515,44.533 195.823,41.251 198.880 M67.712 201.997 C 62.855 204.689,64.526 212.941,69.927 212.941 C 75.815 212.941,78.489 207.195,74.471 203.176 C 72.295 201.001,70.177 200.631,67.712 201.997 M54.887 204.096 C 54.178 204.397,53.133 205.353,52.564 206.221 C 48.870 211.858,55.912 218.163,61.062 213.830 C 66.135 209.561,61.019 201.496,54.887 204.096 M26.927 205.035 C 23.569 206.857,23.031 211.357,25.837 214.163 C 28.180 216.506,31.042 216.511,33.654 214.178 C 38.819 209.563,33.045 201.714,26.927 205.035 M37.539 214.631 C 36.068 215.945,35.647 216.796,35.647 218.451 C 35.647 224.299,43.122 226.803,46.263 222.009 C 50.075 216.192,42.736 209.987,37.539 214.631 M68.824 216.886 C 62.478 219.206,64.408 228.235,71.249 228.235 C 75.074 228.235,77.802 222.999,75.865 219.379 C 74.737 217.271,71.198 216.018,68.824 216.886 M53.169 218.201 C 49.388 219.797,48.309 224.629,51.049 227.697 C 54.880 231.984,61.993 228.363,60.925 222.670 C 60.279 219.225,56.248 216.902,53.169 218.201 " stroke="none" fill="#f79b44" fill-rule="evenodd"></path><path id="path3" d="M278.972 147.941 C 278.978 149.235,279.099 149.695,279.240 148.964 C 279.380 148.232,279.375 147.173,279.228 146.611 C 279.080 146.048,278.965 146.647,278.972 147.941 M307.920 177.647 C 307.920 193.985,307.996 200.669,308.088 192.500 C 308.180 184.331,308.180 170.963,308.088 162.794 C 307.996 154.625,307.920 161.309,307.920 177.647 M273.666 190.000 C 273.666 191.132,273.787 191.596,273.935 191.029 C 274.083 190.463,274.083 189.537,273.935 188.971 C 273.787 188.404,273.666 188.868,273.666 190.000 M241.913 199.118 C 241.920 200.412,242.040 200.872,242.181 200.140 C 242.321 199.408,242.316 198.350,242.169 197.787 C 242.022 197.225,241.907 197.824,241.913 199.118 M277.316 202.500 L 275.588 204.412 277.500 202.684 C 279.282 201.074,279.682 200.588,279.228 200.588 C 279.126 200.588,278.266 201.449,277.316 202.500 " stroke="none" fill="#838081" fill-rule="evenodd"></path><path id="path4" d="M337.195 144.706 C 337.195 145.838,337.316 146.301,337.464 145.735 C 337.612 145.169,337.612 144.243,337.464 143.676 C 337.316 143.110,337.195 143.574,337.195 144.706 M205.538 158.824 C 205.538 164.809,205.626 167.257,205.732 164.265 C 205.839 161.272,205.839 156.375,205.732 153.382 C 205.626 150.390,205.538 152.838,205.538 158.824 M316.744 177.647 C 316.744 193.985,316.819 200.669,316.911 192.500 C 317.004 184.331,317.004 170.963,316.911 162.794 C 316.819 154.625,316.744 161.309,316.744 177.647 M205.542 188.235 C 205.542 194.868,205.628 197.581,205.733 194.265 C 205.838 190.949,205.838 185.522,205.733 182.206 C 205.628 178.890,205.542 181.603,205.542 188.235 M268.824 181.361 C 268.824 181.462,269.684 182.322,270.735 183.272 L 272.647 185.000 270.919 183.088 C 269.309 181.306,268.824 180.906,268.824 181.361 " stroke="none" fill="#bdbbbc" fill-rule="evenodd"></path></g></svg>
