<?xml version="1.0" standalone="no"?>
<!DOCTYPE svg PUBLIC "-//W3C//DTD SVG 20010904//EN"
 "http://www.w3.org/TR/2001/REC-SVG-20010904/DTD/svg10.dtd">
<svg id="svg" version="1.1" width="1000" height="882" xmlns="http://www.w3.org/2000/svg" xmlns:xlink="http://www.w3.org/1999/xlink" style="display: block;"><g id="svgg"><path id="path0" d="M0.000 176.400 L 0.000 352.800 200.000 352.800 L 400.000 352.800 400.000 176.400 L 400.000 0.000 200.000 0.000 L 0.000 0.000 0.000 176.400 M61.631 118.510 C 66.851 122.027,65.286 129.325,59.187 129.911 C 54.725 130.340,51.255 125.874,52.827 121.726 C 54.191 118.126,58.647 116.498,61.631 118.510 M79.400 119.153 C 81.980 120.641,83.084 124.468,81.683 127.068 C 78.624 132.746,70.007 130.837,70.001 124.480 C 69.997 119.495,75.039 116.637,79.400 119.153 M44.800 122.100 C 48.504 124.628,48.487 129.737,44.765 132.493 C 40.346 135.765,33.822 130.786,35.574 125.478 C 36.836 121.654,41.594 119.912,44.800 122.100 M93.665 125.040 C 95.121 125.784,96.328 127.410,96.634 129.041 C 97.781 135.152,90.846 139.076,86.390 134.837 C 81.126 129.829,87.152 121.714,93.665 125.040 M29.131 132.219 C 31.169 133.034,32.486 134.873,32.711 137.216 C 33.297 143.316,26.078 146.383,22.018 141.759 C 17.726 136.871,23.018 129.773,29.131 132.219 M63.600 134.500 C 67.773 137.348,67.129 143.475,62.451 145.435 C 57.476 147.519,52.366 142.155,54.602 137.195 C 56.121 133.828,60.635 132.476,63.600 134.500 M77.667 134.012 C 81.879 135.182,83.376 141.104,80.250 144.230 C 74.552 149.928,65.943 141.848,71.260 135.792 C 72.963 133.854,75.029 133.279,77.667 134.012 M107.353 136.555 C 111.161 138.146,111.930 143.756,108.738 146.651 C 104.370 150.613,97.386 146.569,98.550 140.752 C 99.301 136.995,103.554 134.967,107.353 136.555 M49.872 137.658 C 53.135 139.639,53.611 144.389,50.826 147.174 C 46.884 151.116,40.400 148.399,40.400 142.806 C 40.400 137.870,45.582 135.054,49.872 137.658 M270.606 140.027 C 277.667 141.876,279.596 143.546,279.599 147.811 C 279.601 151.111,278.049 153.073,276.580 151.626 C 276.371 151.420,275.093 150.704,273.741 150.035 C 261.914 144.184,251.361 148.303,253.209 158.050 C 254.001 162.224,256.411 164.226,266.877 169.405 C 279.691 175.745,283.200 179.937,283.200 188.910 C 283.200 201.601,274.902 208.634,260.000 208.573 C 246.600 208.518,239.081 203.448,241.988 196.428 C 242.681 194.756,243.290 194.688,245.681 196.014 C 252.601 199.852,254.938 200.578,260.400 200.588 C 268.904 200.604,273.200 197.019,273.200 189.907 C 273.200 184.357,271.492 182.624,260.667 177.186 C 248.820 171.235,245.519 168.188,243.847 161.660 C 240.071 146.923,253.986 135.674,270.606 140.027 M138.157 140.500 C 138.925 141.191,140.134 144.323,143.367 154.000 C 152.924 182.607,157.696 196.618,157.988 196.928 C 158.158 197.109,160.234 191.349,162.603 184.128 C 164.972 176.908,168.748 165.420,170.996 158.600 C 173.243 151.780,175.499 144.902,176.009 143.315 C 177.076 139.995,177.674 139.600,181.634 139.600 C 184.848 139.600,186.000 140.098,186.001 141.490 C 186.002 142.445,183.839 149.407,182.798 151.800 C 182.606 152.240,181.965 154.040,181.373 155.800 C 180.781 157.560,179.137 162.330,177.721 166.400 C 176.304 170.470,174.697 175.150,174.149 176.800 C 173.601 178.450,172.994 180.160,172.801 180.600 C 172.608 181.040,171.965 182.840,171.373 184.600 C 170.781 186.360,169.167 191.040,167.787 195.000 C 166.407 198.960,165.065 202.830,164.804 203.600 C 163.745 206.734,163.440 207.262,162.364 207.819 C 160.853 208.600,154.370 208.612,152.871 207.837 C 152.062 207.419,151.560 206.620,150.921 204.737 C 148.507 197.623,146.310 191.313,145.999 190.600 C 145.807 190.160,145.195 188.450,144.639 186.800 C 144.083 185.150,142.709 181.190,141.587 178.000 C 140.465 174.810,139.028 170.670,138.394 168.800 C 136.979 164.626,132.853 152.811,130.920 147.400 C 128.338 140.170,128.539 139.676,134.078 139.627 C 136.728 139.604,137.294 139.725,138.157 140.500 M364.302 140.026 C 365.603 140.479,366.315 141.772,367.957 146.664 C 368.412 148.019,368.956 149.549,369.167 150.064 C 369.377 150.579,370.381 153.340,371.398 156.200 C 374.200 164.083,375.776 168.503,377.742 174.000 C 378.726 176.750,380.193 180.890,381.002 183.200 C 381.811 185.510,382.619 187.760,382.797 188.200 C 382.975 188.640,383.759 190.800,384.539 193.000 C 385.319 195.200,386.687 199.024,387.579 201.498 C 389.952 208.082,389.805 208.400,384.382 208.400 C 379.277 208.400,380.019 209.567,374.084 192.200 L 373.400 190.200 359.709 190.095 L 346.018 189.990 345.754 191.095 C 345.609 191.703,345.355 192.380,345.191 192.600 C 345.027 192.820,344.761 193.630,344.600 194.400 C 344.439 195.170,344.169 195.980,344.000 196.200 C 343.831 196.420,343.559 197.224,343.395 197.987 C 343.232 198.750,342.951 199.650,342.771 199.987 C 342.591 200.324,341.969 202.085,341.389 203.900 C 340.066 208.039,339.595 208.400,335.511 208.400 C 330.164 208.400,330.071 207.930,333.550 198.550 C 334.457 196.102,335.200 193.970,335.200 193.810 C 335.200 193.651,335.456 192.954,335.768 192.260 C 336.081 191.567,336.830 189.560,337.432 187.800 C 338.034 186.040,338.756 183.970,339.036 183.200 C 339.316 182.430,340.474 179.190,341.609 176.000 C 343.754 169.971,345.990 163.733,349.063 155.200 C 350.054 152.450,351.395 148.670,352.043 146.800 C 353.895 141.456,354.409 140.467,355.554 140.047 C 356.991 139.520,362.809 139.505,364.302 140.026 M92.868 141.442 C 96.374 143.233,96.989 148.823,93.961 151.372 C 88.134 156.274,80.210 148.662,85.103 142.862 C 87.032 140.576,90.081 140.018,92.868 141.442 M233.039 141.403 C 233.816 142.589,233.678 146.742,232.828 147.766 C 232.367 148.321,230.646 148.400,218.951 148.400 L 205.600 148.400 205.600 158.800 L 205.600 169.200 217.151 169.200 C 230.506 169.200,229.800 168.985,229.800 173.044 C 229.800 176.907,230.266 176.772,216.900 176.787 L 205.600 176.800 205.600 188.200 L 205.600 199.600 219.151 199.600 C 234.812 199.600,233.800 199.326,233.800 203.561 C 233.800 208.030,235.724 207.600,215.738 207.600 C 198.335 207.600,198.247 207.596,197.326 206.730 L 196.400 205.861 196.400 174.112 L 196.400 142.364 197.382 141.382 L 198.364 140.400 215.373 140.400 L 232.382 140.400 233.039 141.403 M336.851 141.061 C 337.196 141.477,337.400 142.719,337.400 144.400 C 337.400 148.585,337.892 148.400,326.751 148.400 L 317.200 148.400 317.194 177.500 C 317.191 193.505,317.056 206.798,316.894 207.040 C 315.929 208.484,310.214 208.986,308.489 207.777 L 307.600 207.155 307.600 177.777 L 307.600 148.400 297.780 148.400 L 287.959 148.400 287.380 147.013 C 287.061 146.250,286.800 145.074,286.800 144.400 C 286.800 143.726,287.061 142.550,287.380 141.787 L 287.959 140.400 312.131 140.400 C 334.127 140.400,336.351 140.460,336.851 141.061 M19.975 147.161 C 26.174 151.535,20.859 161.295,14.103 157.944 C 7.637 154.737,10.448 145.368,17.600 146.292 C 18.370 146.392,19.439 146.783,19.975 147.161 M38.527 147.717 C 41.220 149.771,41.926 153.490,40.093 155.965 C 36.361 161.005,28.800 158.811,28.800 152.688 C 28.800 147.511,34.462 144.617,38.527 147.717 M114.815 151.700 C 121.301 154.970,117.494 164.909,110.442 163.119 C 105.169 161.781,104.356 154.274,109.205 151.710 C 111.367 150.567,112.564 150.565,114.815 151.700 M358.642 152.700 C 358.059 154.578,354.876 163.901,350.659 176.076 C 349.463 179.527,348.586 182.452,348.709 182.576 C 348.832 182.699,353.857 182.800,359.874 182.800 L 370.815 182.800 370.545 181.700 C 370.397 181.095,369.873 179.520,369.381 178.200 C 368.889 176.880,368.010 174.360,367.426 172.600 C 366.843 170.840,366.216 169.124,366.033 168.787 C 365.851 168.450,365.566 167.556,365.400 166.800 C 365.234 166.044,364.941 165.150,364.749 164.813 C 364.407 164.212,361.097 154.658,360.345 152.100 C 359.816 150.302,359.333 150.472,358.642 152.700 M98.250 154.651 C 101.954 156.408,102.972 161.338,100.251 164.338 C 95.861 169.178,87.903 164.837,89.773 158.622 C 90.918 154.820,94.787 153.007,98.250 154.651 M29.825 160.018 C 33.017 163.000,32.668 167.828,29.104 170.002 C 22.305 174.150,15.853 164.267,22.394 159.725 C 24.335 158.377,28.233 158.531,29.825 160.018 M16.830 165.886 C 18.798 167.996,19.176 169.851,18.144 172.339 C 15.496 178.729,6.308 176.888,6.308 169.968 C 6.308 164.493,13.080 161.866,16.830 165.886 M116.415 166.500 C 122.528 169.582,119.953 178.389,113.080 177.908 C 106.800 177.469,105.243 169.242,110.910 166.437 C 113.066 165.370,114.200 165.383,116.415 166.500 M101.921 170.681 C 106.878 174.381,104.929 181.489,98.842 181.914 C 91.962 182.395,89.872 173.085,96.200 170.145 C 97.750 169.425,100.596 169.692,101.921 170.681 M30.840 173.655 C 37.522 175.893,36.023 185.733,29.000 185.733 C 22.573 185.733,20.614 177.013,26.386 174.100 C 28.419 173.074,28.947 173.021,30.840 173.655 M19.040 180.203 C 23.775 183.815,21.332 191.192,15.400 191.196 C 11.819 191.198,9.204 188.703,9.201 185.280 C 9.197 180.004,14.912 177.055,19.040 180.203 M116.148 182.750 C 120.747 187.207,116.665 194.887,110.570 193.246 C 105.211 191.803,104.407 183.776,109.400 181.562 C 111.227 180.752,114.721 181.367,116.148 182.750 M97.501 185.990 C 102.263 189.511,99.746 197.000,93.800 197.000 C 86.893 197.000,85.266 188.205,91.600 185.106 C 92.806 184.516,96.193 185.023,97.501 185.990 M35.753 187.755 C 38.802 189.029,40.191 193.660,38.336 196.363 C 34.749 201.588,27.442 199.901,26.927 193.730 C 26.537 189.044,31.232 185.866,35.753 187.755 M84.050 191.376 C 89.081 194.795,86.655 202.600,80.560 202.600 C 74.493 202.600,72.108 194.682,77.159 191.308 C 79.076 190.028,82.110 190.057,84.050 191.376 M22.719 194.759 C 25.722 196.291,26.909 200.533,25.090 203.231 C 22.281 207.401,16.799 207.384,14.447 203.198 C 11.457 197.878,17.249 191.968,22.719 194.759 M109.198 194.847 C 112.187 196.527,113.298 200.562,111.500 203.204 C 108.637 207.410,103.734 207.423,100.910 203.231 C 97.522 198.205,103.826 191.828,109.198 194.847 M48.522 198.227 C 53.546 201.869,50.377 210.292,44.290 209.476 C 36.273 208.401,37.360 196.790,45.428 197.320 C 46.614 197.398,47.898 197.775,48.522 198.227 M72.932 201.346 C 78.783 203.790,77.415 212.623,71.113 213.088 C 67.276 213.372,64.792 211.276,64.510 207.517 C 64.152 202.748,68.559 199.519,72.932 201.346 M60.404 204.100 C 65.828 207.792,63.719 215.400,57.271 215.400 C 53.629 215.400,51.200 212.972,51.200 209.333 C 51.200 204.689,56.686 201.569,60.404 204.100 M33.200 204.748 C 36.632 207.238,36.935 212.263,33.802 214.727 C 27.578 219.622,19.892 210.984,25.622 205.533 C 27.813 203.448,30.960 203.122,33.200 204.748 M45.174 213.644 C 49.503 216.844,47.715 223.978,42.405 224.690 C 35.328 225.639,32.487 215.892,38.980 212.939 C 40.634 212.187,43.671 212.533,45.174 213.644 M74.272 217.249 C 76.321 218.508,77.450 221.282,76.843 223.563 C 74.978 230.572,65.471 230.082,64.879 222.946 C 64.426 217.485,69.575 214.362,74.272 217.249 M58.404 218.500 C 60.532 219.948,61.354 221.349,61.354 223.530 C 61.354 230.175,52.703 232.302,49.677 226.400 C 46.906 220.994,53.413 215.103,58.404 218.500 " stroke="none" fill="#fefefe" fill-rule="evenodd"></path><path id="path1" d="M260.000 139.840 C 249.037 141.133,242.108 150.144,244.198 160.392 C 245.701 167.760,248.598 170.582,261.000 176.759 C 272.194 182.334,274.604 185.103,273.808 191.473 C 272.447 202.368,258.581 204.647,245.168 196.180 C 242.867 194.727,242.397 195.232,242.409 199.149 C 242.419 202.770,242.801 203.403,246.000 205.096 C 255.587 210.171,269.615 209.265,276.597 203.119 C 285.759 195.055,284.685 180.846,274.400 174.042 C 272.381 172.707,270.708 171.844,261.413 167.343 C 255.031 164.253,252.061 160.188,252.512 155.161 C 253.287 146.527,263.401 144.168,274.783 149.967 C 278.579 151.902,278.800 151.768,278.800 147.540 C 278.800 143.553,277.880 142.779,270.351 140.436 C 268.782 139.948,262.266 139.572,260.000 139.840 M131.400 140.269 C 129.594 140.759,129.262 142.150,130.419 144.387 C 130.593 144.724,131.128 146.170,131.607 147.600 C 132.086 149.030,132.632 150.560,132.820 151.000 C 133.008 151.440,133.890 153.960,134.779 156.600 C 137.505 164.691,139.008 168.981,139.263 169.400 C 139.396 169.620,139.634 170.397,139.791 171.127 C 139.947 171.857,140.327 172.937,140.635 173.527 C 140.943 174.117,141.196 174.904,141.198 175.276 C 141.199 175.648,141.360 176.051,141.555 176.172 C 141.750 176.293,142.036 177.068,142.190 177.896 C 142.345 178.723,142.610 179.580,142.779 179.800 C 142.947 180.020,143.549 181.640,144.115 183.400 C 145.800 188.643,148.813 197.355,149.168 198.013 C 149.350 198.350,149.628 199.217,149.787 199.940 C 149.946 200.663,150.327 201.737,150.635 202.327 C 150.943 202.917,151.196 203.591,151.198 203.825 C 151.216 207.045,154.553 208.523,160.208 207.816 C 162.931 207.476,163.013 207.360,165.184 200.800 C 166.094 198.050,166.992 195.440,167.180 195.000 C 167.368 194.560,167.914 193.030,168.393 191.600 C 168.872 190.170,169.407 188.724,169.581 188.387 C 169.756 188.050,170.032 187.150,170.196 186.387 C 170.360 185.624,170.604 184.820,170.737 184.600 C 170.992 184.181,172.495 179.891,175.221 171.800 C 176.110 169.160,176.992 166.640,177.180 166.200 C 177.368 165.760,177.917 164.230,178.400 162.800 C 178.883 161.370,179.429 159.840,179.614 159.400 C 179.799 158.960,180.710 156.350,181.639 153.600 C 182.567 150.850,183.839 147.106,184.464 145.281 C 186.112 140.466,185.459 139.614,180.515 140.124 C 177.511 140.434,177.638 140.232,174.633 149.497 C 173.152 154.064,171.797 158.076,171.621 158.413 C 171.445 158.750,171.168 159.650,171.005 160.413 C 170.841 161.176,170.569 161.980,170.400 162.200 C 170.231 162.420,169.959 163.224,169.795 163.987 C 169.632 164.750,169.354 165.650,169.178 165.987 C 169.002 166.324,167.572 170.650,166.000 175.600 C 164.428 180.550,162.988 184.893,162.799 185.251 C 162.609 185.609,162.332 186.556,162.182 187.355 C 162.032 188.155,161.765 188.898,161.589 189.007 C 161.414 189.115,161.148 189.922,161.000 190.800 C 160.852 191.678,160.582 192.488,160.400 192.600 C 160.218 192.712,159.948 193.522,159.800 194.400 C 159.652 195.278,159.366 196.097,159.165 196.222 C 158.964 196.346,158.800 196.761,158.800 197.144 C 158.800 200.376,157.687 198.366,155.012 190.303 C 153.461 185.627,152.080 181.620,151.943 181.400 C 151.806 181.180,151.562 180.370,151.401 179.600 C 151.240 178.830,150.969 178.020,150.800 177.800 C 150.631 177.580,150.359 176.776,150.195 176.013 C 150.032 175.250,149.745 174.350,149.559 174.013 C 149.372 173.676,147.410 167.910,145.200 161.200 C 142.990 154.490,141.028 148.724,140.841 148.387 C 140.655 148.050,140.368 147.150,140.205 146.387 C 140.041 145.624,139.769 144.820,139.600 144.600 C 139.431 144.380,139.171 143.634,139.024 142.941 C 138.519 140.582,134.911 139.317,131.400 140.269 M356.366 140.465 C 354.932 140.848,354.228 141.873,353.389 144.800 C 353.231 145.350,352.965 145.980,352.797 146.200 C 352.630 146.420,352.365 147.197,352.208 147.927 C 352.052 148.657,351.673 149.737,351.365 150.327 C 351.057 150.917,350.804 151.704,350.802 152.076 C 350.801 152.448,350.620 152.864,350.400 153.000 C 350.180 153.136,349.999 153.552,349.998 153.924 C 349.996 154.296,349.743 155.083,349.435 155.673 C 349.127 156.263,348.751 157.310,348.600 158.000 C 348.449 158.690,348.073 159.737,347.765 160.327 C 347.457 160.917,347.204 161.565,347.202 161.768 C 347.200 162.102,344.784 169.074,344.003 171.000 C 343.824 171.440,343.280 172.970,342.794 174.400 C 342.307 175.830,341.659 177.567,341.354 178.260 C 341.050 178.954,340.800 179.721,340.800 179.966 C 340.800 180.211,340.634 180.723,340.432 181.105 C 340.230 181.487,339.672 182.970,339.193 184.400 C 338.714 185.830,338.164 187.360,337.972 187.800 C 337.528 188.813,336.657 191.322,335.332 195.400 C 334.760 197.160,334.137 198.771,333.946 198.980 C 333.756 199.189,333.599 199.639,333.598 199.980 C 333.596 200.321,333.350 201.069,333.051 201.642 C 330.909 205.748,331.344 207.648,334.486 207.905 C 339.553 208.321,339.550 208.324,343.243 196.800 C 344.406 193.170,345.548 190.068,345.779 189.906 C 346.567 189.356,373.516 189.542,373.870 190.100 C 374.045 190.375,375.007 193.030,376.008 196.000 C 377.008 198.970,377.935 201.580,378.067 201.800 C 378.198 202.020,378.432 202.787,378.586 203.504 C 379.387 207.238,380.691 208.151,384.899 207.921 C 388.952 207.700,389.068 207.447,387.342 202.600 C 386.559 200.400,385.677 197.880,385.382 197.000 C 385.087 196.120,384.299 193.903,383.630 192.073 C 382.961 190.244,382.137 187.904,381.798 186.873 C 381.459 185.843,381.023 184.640,380.830 184.200 C 380.636 183.760,380.080 182.230,379.594 180.800 C 379.107 179.370,378.459 177.633,378.154 176.940 C 377.850 176.246,377.600 175.479,377.600 175.234 C 377.600 174.989,377.428 174.477,377.217 174.095 C 377.007 173.713,376.382 172.050,375.829 170.400 C 375.276 168.750,374.173 165.600,373.378 163.400 C 372.583 161.200,371.770 158.860,371.572 158.200 C 371.374 157.540,371.047 156.640,370.846 156.200 C 370.645 155.760,369.817 153.510,369.007 151.200 C 368.197 148.890,367.369 146.687,367.167 146.305 C 366.965 145.923,366.800 145.417,366.800 145.180 C 366.800 141.112,362.025 138.955,356.366 140.465 M197.944 141.565 L 197.000 142.329 196.884 173.065 C 196.820 189.969,196.873 204.386,197.002 205.102 C 197.438 207.516,198.079 207.600,215.987 207.600 C 234.457 207.600,233.411 207.840,233.387 203.603 C 233.365 199.780,234.258 200.000,218.751 200.000 L 205.200 200.000 205.200 188.200 L 205.200 176.400 216.571 176.400 C 229.721 176.400,229.200 176.546,229.200 172.851 C 229.200 169.450,229.777 169.600,216.720 169.600 L 205.200 169.600 205.200 158.800 L 205.200 148.000 218.520 148.000 C 228.347 148.000,231.966 147.874,232.320 147.520 C 233.085 146.755,232.957 141.346,232.167 141.043 C 230.282 140.320,198.891 140.798,197.944 141.565 M288.080 141.280 C 287.492 141.868,287.444 146.161,288.014 147.226 C 288.406 147.959,288.948 148.000,298.214 148.000 L 308.000 148.000 308.005 176.900 C 308.008 192.795,308.117 206.194,308.246 206.676 C 308.533 207.748,311.644 208.276,314.430 207.725 L 316.200 207.375 316.303 177.687 L 316.405 148.000 326.123 148.000 C 337.300 148.000,336.800 148.169,336.800 144.400 C 336.800 142.880,336.596 141.556,336.320 141.280 C 335.627 140.587,288.773 140.587,288.080 141.280 M361.584 154.013 C 361.757 154.350,362.032 155.250,362.195 156.013 C 362.359 156.776,362.633 157.580,362.805 157.800 C 362.976 158.020,363.301 158.830,363.526 159.600 C 364.271 162.151,367.601 171.789,367.953 172.413 C 368.143 172.750,368.432 173.650,368.595 174.413 C 368.759 175.176,369.022 175.980,369.180 176.200 C 369.795 177.056,371.254 182.082,371.045 182.626 C 370.691 183.551,348.480 183.474,348.124 182.547 C 347.987 182.188,348.070 181.580,348.310 181.196 C 348.549 180.812,348.868 179.844,349.018 179.045 C 349.168 178.245,349.450 177.493,349.645 177.372 C 349.840 177.251,350.001 176.848,350.002 176.476 C 350.004 176.104,350.257 175.317,350.565 174.727 C 350.873 174.137,351.254 173.063,351.413 172.340 C 351.572 171.617,351.845 170.750,352.020 170.413 C 352.195 170.076,353.349 166.740,354.583 163.000 C 355.818 159.260,356.990 155.907,357.187 155.549 C 357.384 155.191,357.668 154.244,357.818 153.445 C 357.968 152.645,358.250 151.893,358.445 151.772 C 358.640 151.651,358.800 151.239,358.800 150.856 C 358.800 148.955,359.788 149.203,360.525 151.290 C 360.935 152.451,361.411 153.676,361.584 154.013 " stroke="none" fill="#484243" fill-rule="evenodd"></path><path id="path2" d="M262.707 139.490 C 263.426 139.579,264.506 139.577,265.107 139.486 C 265.708 139.395,265.120 139.322,263.800 139.324 C 262.480 139.326,261.988 139.401,262.707 139.490 M184.541 140.478 C 185.550 140.846,185.654 141.037,185.441 142.147 C 185.269 143.045,185.312 143.230,185.594 142.800 C 186.474 141.457,185.556 139.934,183.926 140.032 C 183.637 140.049,183.913 140.250,184.541 140.478 M270.000 140.382 C 270.330 140.605,270.945 140.791,271.367 140.794 C 272.390 140.802,272.071 140.573,270.600 140.244 C 269.724 140.048,269.562 140.085,270.000 140.382 M355.400 140.400 C 354.381 140.838,355.432 140.838,356.800 140.400 C 357.604 140.143,357.643 140.077,357.000 140.068 C 356.560 140.062,355.840 140.211,355.400 140.400 M363.200 140.400 C 364.568 140.838,365.619 140.838,364.600 140.400 C 364.160 140.211,363.440 140.062,363.000 140.068 C 362.357 140.077,362.396 140.143,363.200 140.400 M198.662 140.700 C 198.560 140.865,206.092 141.000,215.400 141.000 C 224.708 141.000,232.240 140.865,232.138 140.700 C 232.036 140.535,224.504 140.400,215.400 140.400 C 206.296 140.400,198.764 140.535,198.662 140.700 M287.968 141.100 C 287.518 141.696,287.522 141.725,287.999 141.300 C 288.797 140.589,335.610 140.570,336.320 141.280 C 336.964 141.924,336.949 146.873,336.300 147.601 C 335.875 148.078,335.904 148.082,336.500 147.632 C 337.527 146.854,337.504 141.999,336.469 141.062 C 335.312 140.015,288.762 140.051,287.968 141.100 M197.149 141.861 C 196.535 142.600,196.092 204.321,196.693 205.394 C 196.862 205.697,196.952 191.896,196.893 174.728 C 196.802 148.192,196.872 143.338,197.362 142.356 C 198.015 141.048,197.950 140.897,197.149 141.861 M232.928 144.400 C 232.928 145.830,233.001 146.415,233.089 145.700 C 233.178 144.985,233.178 143.815,233.089 143.100 C 233.001 142.385,232.928 142.970,232.928 144.400 M276.400 142.511 C 276.400 142.587,276.985 143.078,277.700 143.601 C 278.504 144.190,278.784 144.287,278.433 143.855 C 277.900 143.199,276.400 142.207,276.400 142.511 M287.309 144.400 C 287.309 145.390,287.387 145.795,287.482 145.300 C 287.578 144.805,287.578 143.995,287.482 143.500 C 287.387 143.005,287.309 143.410,287.309 144.400 M352.867 145.180 C 352.633 145.851,352.527 146.400,352.631 146.400 C 352.901 146.400,353.656 144.322,353.457 144.124 C 353.367 144.033,353.101 144.508,352.867 145.180 M278.928 147.600 C 278.928 149.030,279.001 149.615,279.089 148.900 C 279.178 148.185,279.178 147.015,279.089 146.300 C 279.001 145.585,278.928 146.170,278.928 147.600 M259.738 147.106 C 259.484 147.268,261.312 147.400,263.800 147.400 C 266.288 147.400,268.116 147.268,267.862 147.106 C 267.608 146.944,265.780 146.812,263.800 146.812 C 261.820 146.812,259.992 146.944,259.738 147.106 M131.429 148.000 C 131.576 148.550,131.864 149.270,132.067 149.600 C 132.325 150.017,132.357 149.895,132.171 149.200 C 132.024 148.650,131.736 147.930,131.533 147.600 C 131.275 147.183,131.243 147.305,131.429 148.000 M367.829 148.000 C 367.976 148.550,368.264 149.270,368.467 149.600 C 368.725 150.017,368.757 149.895,368.571 149.200 C 368.424 148.650,368.136 147.930,367.933 147.600 C 367.675 147.183,367.643 147.305,367.829 148.000 M245.400 148.800 C 245.059 149.460,244.869 150.000,244.979 150.000 C 245.089 150.000,245.459 149.460,245.800 148.800 C 246.141 148.140,246.331 147.600,246.221 147.600 C 246.111 147.600,245.741 148.140,245.400 148.800 M211.700 148.299 C 215.385 148.365,221.415 148.365,225.100 148.299 C 228.785 148.233,225.770 148.179,218.400 148.179 C 211.030 148.179,208.015 148.233,211.700 148.299 M298.100 148.300 L 307.600 148.414 307.600 177.584 C 307.600 199.423,307.718 206.825,308.068 207.042 C 308.387 207.239,308.451 207.109,308.268 206.633 C 308.121 206.249,308.000 192.899,308.000 176.967 L 308.000 148.000 298.300 148.092 L 288.600 148.185 298.100 148.300 M316.497 177.300 L 316.595 206.600 316.700 177.507 L 316.805 148.414 326.303 148.300 L 335.800 148.185 326.100 148.092 L 316.400 148.000 316.497 177.300 M360.229 151.200 C 360.376 151.750,360.664 152.470,360.867 152.800 C 361.125 153.217,361.157 153.095,360.971 152.400 C 360.824 151.850,360.536 151.130,360.333 150.800 C 360.075 150.383,360.043 150.505,360.229 151.200 M244.256 151.500 C 244.147 151.885,243.959 153.010,243.838 154.000 C 243.581 156.092,244.123 154.722,244.510 152.300 C 244.758 150.751,244.604 150.267,244.256 151.500 M369.267 152.020 C 369.501 152.692,369.767 153.167,369.857 153.076 C 370.056 152.878,369.301 150.800,369.031 150.800 C 368.927 150.800,369.033 151.349,369.267 152.020 M358.187 152.200 C 358.084 152.530,357.912 153.079,357.805 153.421 C 357.697 153.762,357.766 153.945,357.957 153.827 C 358.148 153.709,358.391 153.159,358.497 152.606 C 358.706 151.513,358.490 151.230,358.187 152.200 M133.829 154.800 C 133.976 155.350,134.264 156.070,134.467 156.400 C 134.725 156.817,134.757 156.695,134.571 156.000 C 134.424 155.450,134.136 154.730,133.933 154.400 C 133.675 153.983,133.643 154.105,133.829 154.800 M349.267 155.180 C 349.033 155.851,348.927 156.400,349.031 156.400 C 349.301 156.400,350.056 154.322,349.857 154.124 C 349.767 154.033,349.501 154.508,349.267 155.180 M172.000 156.103 C 172.000 156.159,171.823 156.822,171.607 157.576 C 171.391 158.329,171.368 158.778,171.555 158.573 C 171.964 158.126,172.503 156.000,172.208 156.000 C 172.093 156.000,172.000 156.046,172.000 156.103 M362.867 158.820 C 363.101 159.492,363.367 159.967,363.457 159.876 C 363.656 159.678,362.901 157.600,362.631 157.600 C 362.527 157.600,362.633 158.149,362.867 158.820 M355.644 159.644 C 355.398 160.351,355.266 161.000,355.352 161.085 C 355.438 161.171,355.709 160.662,355.956 159.956 C 356.202 159.249,356.334 158.600,356.248 158.515 C 356.162 158.429,355.891 158.938,355.644 159.644 M244.006 161.233 C 244.009 161.765,244.189 162.470,244.406 162.800 C 244.682 163.222,244.723 162.985,244.542 162.000 C 244.225 160.275,243.998 159.949,244.006 161.233 M145.429 162.000 C 145.576 162.550,145.864 163.270,146.067 163.600 C 146.325 164.017,146.357 163.895,146.171 163.200 C 146.024 162.650,145.736 161.930,145.533 161.600 C 145.275 161.183,145.243 161.305,145.429 162.000 M255.400 163.200 C 256.259 164.080,257.052 164.800,257.162 164.800 C 257.272 164.800,256.659 164.080,255.800 163.200 C 254.941 162.320,254.148 161.600,254.038 161.600 C 253.928 161.600,254.541 162.320,255.400 163.200 M178.044 163.644 C 177.798 164.351,177.666 165.000,177.752 165.085 C 177.838 165.171,178.109 164.662,178.356 163.956 C 178.602 163.249,178.734 162.600,178.648 162.515 C 178.562 162.429,178.291 162.938,178.044 163.644 M245.400 165.200 C 245.741 165.860,246.111 166.400,246.221 166.400 C 246.331 166.400,246.141 165.860,245.800 165.200 C 245.459 164.540,245.089 164.000,244.979 164.000 C 244.869 164.000,245.059 164.540,245.400 165.200 M146.629 165.600 C 146.776 166.150,147.064 166.870,147.267 167.200 C 147.525 167.617,147.557 167.495,147.371 166.800 C 147.224 166.250,146.936 165.530,146.733 165.200 C 146.475 164.783,146.443 164.905,146.629 165.600 M375.429 169.200 C 375.576 169.750,375.864 170.470,376.067 170.800 C 376.325 171.217,376.357 171.095,376.171 170.400 C 376.024 169.850,375.736 169.130,375.533 168.800 C 375.275 168.383,375.243 168.505,375.429 169.200 M175.644 170.444 C 175.398 171.151,175.266 171.800,175.352 171.885 C 175.438 171.971,175.709 171.462,175.956 170.756 C 176.202 170.049,176.334 169.400,176.248 169.315 C 176.162 169.229,175.891 169.738,175.644 170.444 M216.567 169.500 C 224.985 169.582,228.306 169.747,228.767 170.106 C 229.326 170.542,229.336 170.518,228.851 169.900 C 228.347 169.258,227.338 169.208,216.651 169.294 L 205.000 169.387 216.567 169.500 M229.194 173.082 C 229.087 174.446,229.145 175.417,229.323 175.239 C 229.500 175.060,229.588 173.944,229.517 172.757 L 229.389 170.600 229.194 173.082 M250.033 170.930 C 250.125 171.001,250.830 171.466,251.600 171.963 L 253.000 172.866 251.800 171.835 C 251.140 171.268,250.435 170.803,250.233 170.802 C 250.032 170.801,249.942 170.858,250.033 170.930 M342.844 173.244 C 342.598 173.951,342.466 174.600,342.552 174.685 C 342.638 174.771,342.909 174.262,343.156 173.556 C 343.402 172.849,343.534 172.200,343.448 172.115 C 343.362 172.029,343.091 172.538,342.844 173.244 M140.467 174.020 C 140.701 174.692,140.967 175.167,141.057 175.076 C 141.256 174.878,140.501 172.800,140.231 172.800 C 140.127 172.800,140.233 173.349,140.467 174.020 M272.833 172.930 C 272.925 173.001,273.630 173.466,274.400 173.963 L 275.800 174.866 274.600 173.835 C 273.940 173.268,273.235 172.803,273.033 172.802 C 272.832 172.801,272.742 172.858,272.833 172.930 M350.379 175.055 C 350.158 175.636,350.052 176.185,350.143 176.276 C 350.233 176.367,350.499 175.892,350.733 175.220 C 351.253 173.728,350.939 173.582,350.379 175.055 M277.800 176.800 C 278.883 177.900,279.860 178.800,279.970 178.800 C 280.080 178.800,279.283 177.900,278.200 176.800 C 277.117 175.700,276.140 174.800,276.030 174.800 C 275.920 174.800,276.717 175.700,277.800 176.800 M377.818 176.100 C 377.968 176.595,378.255 177.176,378.456 177.391 C 378.657 177.606,378.619 177.201,378.372 176.491 C 377.865 175.038,377.397 174.708,377.818 176.100 M141.506 177.018 C 141.610 177.565,141.828 178.094,141.990 178.194 C 142.152 178.294,142.199 177.929,142.094 177.382 C 141.990 176.835,141.772 176.306,141.610 176.206 C 141.448 176.106,141.401 176.471,141.506 177.018 M369.267 177.220 C 369.501 177.892,369.767 178.367,369.857 178.276 C 370.056 178.078,369.301 176.000,369.031 176.000 C 368.927 176.000,369.033 176.549,369.267 177.220 M349.387 177.800 C 349.284 178.130,349.112 178.679,349.005 179.021 C 348.897 179.362,348.966 179.545,349.157 179.427 C 349.348 179.309,349.591 178.759,349.697 178.206 C 349.906 177.113,349.690 176.830,349.387 177.800 M379.267 180.020 C 379.501 180.692,379.767 181.167,379.857 181.076 C 380.056 180.878,379.301 178.800,379.031 178.800 C 378.927 178.800,379.033 179.349,379.267 180.020 M370.218 180.100 C 370.368 180.595,370.655 181.176,370.856 181.391 C 371.057 181.606,371.019 181.201,370.772 180.491 C 370.265 179.038,369.797 178.708,370.218 180.100 M142.867 180.820 C 143.101 181.492,143.367 181.967,143.457 181.876 C 143.656 181.678,142.901 179.600,142.631 179.600 C 142.527 179.600,142.633 180.149,142.867 180.820 M348.145 181.400 C 347.467 183.165,347.737 183.205,359.687 183.106 L 371.000 183.013 359.655 182.900 L 348.309 182.787 348.499 181.794 C 348.709 180.694,348.503 180.465,348.145 181.400 M143.829 183.600 C 143.976 184.150,144.264 184.870,144.467 185.200 C 144.725 185.617,144.757 185.495,144.571 184.800 C 144.424 184.250,144.136 183.530,143.933 183.200 C 143.675 182.783,143.643 182.905,143.829 183.600 M163.200 182.903 C 163.200 182.959,163.023 183.622,162.807 184.376 C 162.591 185.129,162.568 185.578,162.755 185.373 C 163.164 184.926,163.703 182.800,163.408 182.800 C 163.293 182.800,163.200 182.846,163.200 182.903 M162.000 186.503 C 162.000 186.559,161.823 187.222,161.607 187.976 C 161.391 188.729,161.368 189.178,161.555 188.973 C 161.964 188.526,162.503 186.400,162.208 186.400 C 162.093 186.400,162.000 186.446,162.000 186.503 M273.714 189.800 C 273.717 190.900,273.795 191.303,273.887 190.695 C 273.979 190.086,273.977 189.186,273.882 188.695 C 273.787 188.203,273.711 188.700,273.714 189.800 M359.760 189.992 C 373.250 190.193,373.730 190.227,374.032 191.000 C 374.247 191.553,374.352 191.608,374.372 191.180 C 374.441 189.655,373.863 189.597,359.620 189.692 L 345.800 189.784 359.760 189.992 M168.044 192.444 C 167.798 193.151,167.666 193.800,167.752 193.885 C 167.838 193.971,168.109 193.462,168.356 192.756 C 168.602 192.049,168.734 191.400,168.648 191.315 C 168.562 191.229,168.291 191.738,168.044 192.444 M344.444 192.844 C 344.198 193.551,344.066 194.200,344.152 194.285 C 344.238 194.371,344.509 193.862,344.756 193.156 C 345.002 192.449,345.134 191.800,345.048 191.715 C 344.962 191.629,344.691 192.138,344.444 192.844 M335.244 194.444 C 334.998 195.151,334.866 195.800,334.952 195.885 C 335.038 195.971,335.309 195.462,335.556 194.756 C 335.802 194.049,335.934 193.400,335.848 193.315 C 335.762 193.229,335.491 193.738,335.244 194.444 M375.029 194.000 C 375.176 194.550,375.464 195.270,375.667 195.600 C 375.925 196.017,375.957 195.895,375.771 195.200 C 375.624 194.650,375.336 193.930,375.133 193.600 C 374.875 193.183,374.843 193.305,375.029 194.000 M156.629 195.200 C 156.776 195.750,157.064 196.470,157.267 196.800 C 157.525 197.217,157.557 197.095,157.371 196.400 C 157.224 195.850,156.936 195.130,156.733 194.800 C 156.475 194.383,156.443 194.505,156.629 195.200 M385.429 197.200 C 385.576 197.750,385.864 198.470,386.067 198.800 C 386.325 199.217,386.357 199.095,386.171 198.400 C 386.024 197.850,385.736 197.130,385.533 196.800 C 385.275 196.383,385.243 196.505,385.429 197.200 M242.128 199.200 C 242.128 200.630,242.201 201.215,242.289 200.500 C 242.378 199.785,242.378 198.615,242.289 197.900 C 242.201 197.185,242.128 197.770,242.128 199.200 M334.067 197.980 C 333.833 198.651,333.727 199.200,333.831 199.200 C 334.101 199.200,334.856 197.122,334.657 196.924 C 334.567 196.833,334.301 197.308,334.067 197.980 M165.644 199.244 C 165.398 199.951,165.266 200.600,165.352 200.685 C 165.438 200.771,165.709 200.262,165.956 199.556 C 166.202 198.849,166.334 198.200,166.248 198.115 C 166.162 198.029,165.891 198.538,165.644 199.244 M250.400 199.031 C 250.400 199.301,252.478 200.056,252.676 199.857 C 252.767 199.767,252.292 199.501,251.620 199.267 C 250.949 199.033,250.400 198.927,250.400 199.031 M232.657 200.400 C 232.908 200.730,233.202 201.360,233.311 201.800 C 233.497 202.560,233.510 202.557,233.554 201.749 C 233.579 201.281,233.285 200.651,232.900 200.349 C 232.291 199.872,232.260 199.878,232.657 200.400 M264.800 200.631 L 263.000 201.184 264.600 200.961 C 265.480 200.838,266.371 200.572,266.580 200.369 C 267.026 199.936,267.099 199.925,264.800 200.631 M332.867 201.180 C 332.633 201.851,332.527 202.400,332.631 202.400 C 332.901 202.400,333.656 200.322,333.457 200.124 C 333.367 200.033,333.101 200.508,332.867 201.180 M255.200 200.800 C 255.750 200.976,256.560 201.120,257.000 201.120 C 257.633 201.120,257.592 201.054,256.800 200.800 C 256.250 200.624,255.440 200.480,255.000 200.480 C 254.367 200.480,254.408 200.546,255.200 200.800 M277.178 202.700 L 275.800 204.200 277.300 202.822 C 278.696 201.538,278.984 201.200,278.678 201.200 C 278.612 201.200,277.937 201.875,277.178 202.700 M150.467 202.820 C 150.701 203.492,150.967 203.967,151.057 203.876 C 151.256 203.678,150.501 201.600,150.231 201.600 C 150.127 201.600,150.233 202.149,150.467 202.820 M331.631 204.662 C 331.100 206.574,331.094 207.087,331.595 207.397 C 331.817 207.534,331.892 207.384,331.767 207.057 C 331.643 206.736,331.730 205.791,331.960 204.959 C 332.190 204.126,332.306 203.373,332.218 203.285 C 332.130 203.197,331.866 203.817,331.631 204.662 M387.829 204.000 C 387.976 204.550,388.264 205.270,388.467 205.600 C 388.725 206.017,388.757 205.895,388.571 205.200 C 388.424 204.650,388.136 203.930,387.933 203.600 C 387.675 203.183,387.643 203.305,387.829 204.000 M233.200 205.602 C 233.200 205.896,232.902 206.466,232.538 206.869 C 232.174 207.271,232.053 207.600,232.270 207.600 C 232.793 207.600,233.809 205.676,233.467 205.334 C 233.320 205.187,233.200 205.307,233.200 205.602 M379.081 205.987 C 379.194 206.420,379.532 206.978,379.833 207.227 C 380.245 207.570,380.228 207.378,379.760 206.440 C 379.053 205.022,378.781 204.841,379.081 205.987 M387.600 207.461 C 387.049 207.752,386.869 207.988,387.200 207.988 C 387.890 207.988,389.070 207.320,388.788 207.089 C 388.685 207.004,388.150 207.171,387.600 207.461 M255.842 208.477 C 257.846 208.833,262.554 208.833,264.558 208.477 C 265.460 208.317,263.626 208.200,260.200 208.200 C 256.774 208.200,254.940 208.317,255.842 208.477 " stroke="none" fill="#817d7d" fill-rule="evenodd"></path><path id="path3" d="M55.696 118.798 C 51.253 121.507,52.191 128.179,57.200 129.490 C 61.337 130.573,64.672 127.685,64.311 123.331 C 63.952 119.009,59.336 116.579,55.696 118.798 M73.752 118.953 C 67.997 121.557,69.822 130.171,76.128 130.171 C 83.523 130.171,84.084 119.451,76.734 118.591 C 75.676 118.467,74.513 118.608,73.752 118.953 M39.200 121.819 C 32.765 124.689,35.737 134.314,42.658 133.016 C 44.618 132.648,46.991 130.239,47.367 128.236 C 48.177 123.917,43.224 120.024,39.200 121.819 M88.696 124.967 C 86.765 125.662,86.217 126.135,85.437 127.779 C 82.280 134.431,91.351 139.678,95.500 133.600 C 98.571 129.101,93.852 123.112,88.696 124.967 M24.028 132.678 C 18.773 135.445,20.602 143.609,26.498 143.698 C 34.010 143.812,34.717 132.754,27.239 132.113 C 25.986 132.006,24.963 132.186,24.028 132.678 M58.549 134.036 C 56.861 134.524,54.866 136.643,54.560 138.271 C 53.459 144.140,60.106 147.974,64.230 143.850 C 68.637 139.443,64.509 132.313,58.549 134.036 M73.083 134.813 C 67.746 137.709,69.760 145.733,75.823 145.733 C 80.085 145.733,82.744 141.513,81.045 137.447 C 79.829 134.535,75.956 133.254,73.083 134.813 M103.128 136.393 C 97.918 137.961,97.207 144.887,102.008 147.299 C 107.044 149.829,112.207 144.530,109.751 139.353 C 108.615 136.959,105.650 135.634,103.128 136.393 M44.696 137.388 C 41.746 138.409,40.619 140.210,40.889 143.469 C 41.365 149.209,48.941 150.713,51.658 145.606 C 54.102 141.015,49.593 135.692,44.696 137.388 M88.200 141.076 C 83.603 142.325,82.468 148.800,86.360 151.571 C 91.299 155.088,97.419 149.927,95.045 144.247 C 94.075 141.925,90.748 140.384,88.200 141.076 M13.842 147.307 C 8.674 150.269,10.619 158.062,16.549 158.150 C 22.849 158.244,24.770 149.765,19.062 147.056 C 17.192 146.169,15.702 146.240,13.842 147.307 M32.108 147.393 C 29.448 148.549,28.255 152.053,29.536 154.948 C 31.541 159.481,37.871 159.627,40.099 155.192 C 42.624 150.166,37.417 145.085,32.108 147.393 M109.320 152.010 C 107.186 153.095,105.782 155.703,106.141 157.916 C 107.310 165.120,117.849 164.321,117.780 157.034 C 117.737 152.531,113.383 149.945,109.320 152.010 M92.887 155.065 C 90.844 156.072,89.829 157.801,89.829 160.272 C 89.829 166.829,99.161 168.378,101.213 162.161 C 102.863 157.160,97.650 152.718,92.887 155.065 M23.323 159.558 C 18.946 161.600,18.984 167.862,23.386 169.993 C 27.395 171.934,31.600 169.298,31.600 164.846 C 31.600 160.338,27.401 157.655,23.323 159.558 M10.160 164.749 C 6.080 166.636,5.305 171.454,8.616 174.360 C 11.164 176.597,14.497 176.362,16.760 173.784 C 20.812 169.169,15.709 162.183,10.160 164.749 M111.800 166.320 C 104.929 168.728,107.540 178.868,114.732 177.701 C 116.748 177.374,119.035 175.015,119.387 172.899 C 120.080 168.740,115.709 164.949,111.800 166.320 M95.637 170.864 C 90.340 174.500,92.375 181.594,98.715 181.599 C 104.239 181.602,106.444 174.381,101.930 171.073 C 100.232 169.828,97.288 169.731,95.637 170.864 M27.299 173.882 C 25.821 174.167,23.699 176.464,23.390 178.115 C 21.953 185.774,32.669 188.533,34.739 181.037 C 35.947 176.660,32.099 172.958,27.299 173.882 M13.000 179.765 C 8.686 181.682,8.368 188.115,12.482 190.242 C 17.869 193.028,23.542 186.832,20.160 181.856 C 18.520 179.442,15.627 178.597,13.000 179.765 M110.141 181.637 C 109.448 181.838,108.341 182.617,107.681 183.369 C 102.720 189.019,110.818 196.649,116.133 191.333 C 120.530 186.937,116.174 179.889,110.141 181.637 M92.592 185.205 C 87.214 186.347,86.289 193.628,91.208 196.099 C 96.225 198.620,101.408 193.332,98.966 188.184 C 97.908 185.954,95.144 184.663,92.592 185.205 M31.800 187.582 C 25.358 189.087,25.928 198.403,32.503 199.071 C 38.414 199.672,41.264 191.466,36.200 188.424 C 34.649 187.492,33.295 187.233,31.800 187.582 M78.600 191.007 C 77.720 191.326,76.961 191.591,76.914 191.594 C 75.128 191.720,74.265 197.480,75.708 199.641 C 79.799 205.765,88.921 200.434,85.757 193.767 C 84.565 191.254,81.341 190.011,78.600 191.007 M17.600 194.661 C 11.858 196.966,13.610 205.997,19.800 205.997 C 27.081 205.997,27.590 194.973,20.329 194.545 C 19.158 194.476,17.930 194.529,17.600 194.661 M103.720 194.805 C 100.271 196.194,99.266 201.200,101.861 204.067 C 106.200 208.861,113.930 203.928,111.616 197.842 C 110.547 195.031,106.768 193.578,103.720 194.805 M41.726 198.380 C 38.465 200.368,38.097 204.998,40.997 207.544 C 45.544 211.536,52.174 207.365,50.447 201.599 C 49.383 198.048,44.952 196.413,41.726 198.380 M68.178 201.584 C 65.204 202.788,63.780 207.444,65.559 210.143 C 69.580 216.243,78.975 210.929,75.699 204.408 C 74.370 201.762,70.929 200.470,68.178 201.584 M55.000 203.955 C 49.265 206.451,50.976 215.192,57.200 215.196 C 62.930 215.199,65.330 208.044,60.730 204.673 C 59.554 203.811,56.275 203.400,55.000 203.955 M27.207 204.741 C 21.853 207.612,23.677 215.607,29.706 215.698 C 33.169 215.750,35.596 213.387,35.599 209.959 C 35.602 205.541,31.024 202.694,27.207 204.741 M38.359 213.708 C 33.660 216.847,35.346 223.875,40.897 224.291 C 44.654 224.573,47.333 222.192,47.333 218.571 C 47.333 214.098,42.056 211.239,38.359 213.708 M68.120 217.232 C 65.510 218.524,64.230 221.639,65.225 224.274 C 66.821 228.497,72.198 229.558,75.123 226.227 C 79.429 221.322,73.985 214.329,68.120 217.232 M53.697 217.928 C 50.659 218.844,48.686 222.306,49.552 225.198 C 51.260 230.897,59.137 230.907,60.843 225.213 C 62.071 221.116,57.745 216.706,53.697 217.928 " stroke="none" fill="#f1964b" fill-rule="evenodd"></path><path id="path4" d="M58.200 117.870 C 60.552 118.163,61.204 118.428,62.693 119.691 C 64.058 120.850,64.106 120.864,63.200 119.847 C 61.817 118.294,60.310 117.589,58.520 117.660 C 57.210 117.712,57.166 117.741,58.200 117.870 M54.353 119.553 C 53.499 120.407,52.801 121.352,52.801 121.653 C 52.802 121.954,53.161 121.613,53.598 120.896 C 54.035 120.179,54.979 119.235,55.696 118.798 C 56.413 118.361,56.754 118.002,56.453 118.001 C 56.152 118.001,55.207 118.699,54.353 119.553 M71.641 120.214 C 70.959 120.992,70.402 121.757,70.404 121.914 C 70.407 122.071,70.868 121.618,71.428 120.906 C 71.989 120.195,72.752 119.436,73.124 119.219 C 73.496 119.002,73.594 118.819,73.341 118.812 C 73.089 118.805,72.324 119.436,71.641 120.214 M79.400 119.368 C 79.840 119.729,80.537 120.423,80.949 120.912 L 81.698 121.800 81.120 120.829 C 80.802 120.295,80.105 119.601,79.571 119.286 C 78.645 118.739,78.637 118.743,79.400 119.368 M64.276 123.046 C 64.540 125.755,64.732 126.133,64.762 124.000 C 64.776 123.010,64.630 121.951,64.437 121.646 C 64.221 121.305,64.159 121.842,64.276 123.046 M44.000 121.711 C 44.000 121.787,44.585 122.278,45.300 122.801 C 46.104 123.390,46.384 123.487,46.033 123.055 C 45.500 122.399,44.000 121.407,44.000 121.711 M81.800 124.400 C 81.800 125.678,81.932 126.516,82.094 126.262 C 82.256 126.008,82.388 125.170,82.388 124.400 C 82.388 123.630,82.256 122.792,82.094 122.538 C 81.932 122.284,81.800 123.122,81.800 124.400 M52.501 123.800 C 52.505 124.680,52.587 124.993,52.683 124.495 C 52.779 123.998,52.775 123.278,52.675 122.895 C 52.575 122.513,52.496 122.920,52.501 123.800 M88.600 124.596 C 84.116 126.194,82.989 131.601,86.453 134.896 C 87.322 135.723,88.338 136.400,88.711 136.400 C 89.093 136.400,88.787 136.078,88.007 135.659 C 82.758 132.845,84.452 124.811,90.326 124.658 C 92.455 124.602,94.310 125.509,95.426 127.152 C 95.962 127.941,96.400 128.388,96.400 128.147 C 96.400 125.739,91.567 123.539,88.600 124.596 M70.016 125.520 C 69.991 126.351,71.038 128.134,72.059 128.998 L 73.000 129.794 72.122 128.794 C 71.638 128.244,70.970 127.166,70.637 126.397 C 70.304 125.629,70.024 125.234,70.016 125.520 M52.812 125.738 C 52.789 126.396,54.104 128.273,54.947 128.783 C 55.658 129.214,55.625 129.108,54.754 128.150 C 54.178 127.518,53.508 126.640,53.266 126.200 C 53.023 125.760,52.819 125.552,52.812 125.738 M35.370 127.735 C 35.447 128.799,35.736 129.879,36.013 130.135 C 36.401 130.493,36.450 130.480,36.223 130.080 C 36.061 129.794,35.771 128.714,35.580 127.680 L 35.231 125.800 35.370 127.735 M96.509 130.400 C 96.509 131.390,96.587 131.795,96.682 131.300 C 96.778 130.805,96.778 129.995,96.682 129.500 C 96.587 129.005,96.509 129.410,96.509 130.400 M56.400 129.582 C 56.730 129.805,57.345 129.991,57.767 129.994 C 58.790 130.002,58.471 129.773,57.000 129.444 C 56.124 129.248,55.962 129.285,56.400 129.582 M46.036 130.837 C 44.843 132.450,42.682 133.343,40.635 133.069 C 39.588 132.928,39.240 132.981,39.621 133.221 C 41.492 134.405,45.514 132.781,46.851 130.300 C 47.436 129.214,47.045 129.472,46.036 130.837 M24.500 132.012 C 24.005 132.211,23.600 132.481,23.600 132.611 C 23.600 132.741,23.789 132.730,24.020 132.588 C 24.251 132.445,25.286 132.185,26.320 132.011 C 27.980 131.731,28.036 131.692,26.800 131.672 C 26.030 131.660,24.995 131.813,24.500 132.012 M95.400 133.708 C 94.960 134.377,93.973 135.256,93.206 135.662 C 92.440 136.068,92.111 136.400,92.476 136.400 C 93.263 136.400,95.443 134.642,96.041 133.523 C 96.722 132.251,96.273 132.381,95.400 133.708 M22.001 133.798 C 21.486 134.348,21.139 134.864,21.232 134.946 C 21.324 135.028,21.819 134.578,22.330 133.947 C 23.476 132.535,23.274 132.444,22.001 133.798 M62.800 134.111 C 62.800 134.187,63.385 134.678,64.100 135.201 C 64.904 135.790,65.184 135.887,64.833 135.455 C 64.300 134.799,62.800 133.807,62.800 134.111 M71.553 135.553 C 70.699 136.407,70.001 137.352,70.001 137.653 C 70.002 137.954,70.355 137.623,70.785 136.918 C 71.214 136.213,72.249 135.276,73.083 134.836 C 74.078 134.311,74.343 134.029,73.853 134.018 C 73.442 134.008,72.407 134.699,71.553 135.553 M78.393 134.741 C 80.339 135.784,81.285 137.233,81.480 139.470 C 82.017 145.602,74.191 148.150,70.769 142.958 C 70.349 142.321,70.004 142.043,70.003 142.340 C 69.985 145.899,77.238 147.242,80.244 144.236 C 83.222 141.258,81.455 134.000,77.753 134.000 C 77.263 134.000,77.479 134.250,78.393 134.741 M20.564 136.603 C 20.123 138.356,20.777 140.391,22.275 141.932 L 23.702 143.400 22.471 141.909 C 21.150 140.309,20.557 138.222,20.964 136.603 C 21.102 136.051,21.125 135.600,21.015 135.600 C 20.905 135.600,20.702 136.051,20.564 136.603 M44.674 136.975 C 41.295 138.190,39.151 142.613,40.732 145.104 C 40.908 145.380,40.985 144.570,40.904 143.304 C 40.495 136.933,47.852 134.637,51.500 139.996 C 52.564 141.560,52.703 141.239,51.700 139.534 C 50.311 137.174,47.235 136.054,44.674 136.975 M100.213 137.813 C 99.436 138.591,98.801 139.446,98.803 139.713 C 98.804 139.981,99.145 139.685,99.559 139.057 C 99.974 138.428,100.828 137.574,101.457 137.159 C 102.085 136.745,102.381 136.404,102.113 136.403 C 101.846 136.401,100.991 137.036,100.213 137.813 M108.292 137.491 C 111.186 140.212,111.123 144.429,108.154 146.765 C 107.570 147.224,107.278 147.600,107.505 147.600 C 108.148 147.600,110.360 144.900,110.644 143.769 C 111.268 141.280,109.900 137.810,107.872 136.737 C 107.298 136.433,107.441 136.691,108.292 137.491 M54.159 138.222 C 53.846 139.468,54.215 141.975,54.796 142.556 C 55.076 142.836,55.064 142.528,54.762 141.663 C 54.509 140.937,54.397 139.637,54.513 138.772 C 54.751 136.997,54.546 136.678,54.159 138.222 M69.709 140.000 C 69.709 140.990,69.787 141.395,69.882 140.900 C 69.978 140.405,69.978 139.595,69.882 139.100 C 69.787 138.605,69.709 139.010,69.709 140.000 M257.664 139.673 C 254.856 140.301,255.990 140.429,259.022 139.827 C 260.550 139.523,261.260 139.278,260.600 139.280 C 259.940 139.283,258.619 139.460,257.664 139.673 M267.000 139.600 C 267.660 139.768,268.650 139.905,269.200 139.905 C 270.092 139.905,270.070 139.872,269.000 139.600 C 268.340 139.432,267.350 139.295,266.800 139.295 C 265.908 139.295,265.930 139.328,267.000 139.600 M130.100 140.088 C 129.605 140.327,129.200 140.685,129.200 140.884 C 129.200 141.083,129.600 140.965,130.089 140.623 C 132.393 139.009,138.027 139.956,138.973 142.117 C 139.342 142.961,139.546 143.150,139.567 142.669 C 139.678 140.189,133.425 138.485,130.100 140.088 M180.100 139.891 C 180.925 139.978,182.275 139.978,183.100 139.891 C 183.925 139.805,183.250 139.734,181.600 139.734 C 179.950 139.734,179.275 139.805,180.100 139.891 M358.100 139.894 C 359.145 139.976,360.855 139.976,361.900 139.894 C 362.945 139.812,362.090 139.744,360.000 139.744 C 357.910 139.744,357.055 139.812,358.100 139.894 M65.855 141.224 C 65.718 141.912,64.992 143.088,64.242 143.838 C 63.493 144.587,63.023 145.200,63.199 145.200 C 64.227 145.200,66.937 140.804,66.301 140.167 C 66.193 140.060,65.993 140.535,65.855 141.224 M177.354 140.306 C 177.109 140.468,176.785 141.050,176.635 141.600 C 176.386 142.512,176.403 142.529,176.831 141.800 C 177.088 141.360,177.581 140.775,177.926 140.500 C 178.590 139.970,178.111 139.808,177.354 140.306 M98.509 142.000 C 98.509 142.990,98.587 143.395,98.682 142.900 C 98.778 142.405,98.778 141.595,98.682 141.100 C 98.587 140.605,98.509 141.010,98.509 142.000 M232.600 141.142 C 232.820 141.460,233.108 142.819,233.239 144.161 L 233.478 146.600 233.539 144.344 C 233.584 142.690,233.413 141.885,232.900 141.325 C 232.515 140.906,232.380 140.823,232.600 141.142 M253.800 141.014 C 252.795 141.498,252.763 141.553,253.600 141.351 C 254.150 141.219,254.771 140.950,254.980 140.755 C 255.498 140.271,255.214 140.333,253.800 141.014 M272.400 140.733 C 272.730 140.936,273.450 141.224,274.000 141.371 C 274.695 141.557,274.817 141.525,274.400 141.267 C 274.070 141.064,273.350 140.776,272.800 140.629 C 272.105 140.443,271.983 140.475,272.400 140.733 M85.722 142.229 L 84.600 143.258 85.900 142.354 C 86.615 141.857,87.200 141.393,87.200 141.325 C 87.200 141.009,86.758 141.280,85.722 142.229 M92.400 141.311 C 92.400 141.387,92.985 141.878,93.700 142.401 C 94.504 142.990,94.784 143.087,94.433 142.655 C 93.900 141.999,92.400 141.007,92.400 141.311 M52.493 142.800 C 52.493 143.570,52.575 143.885,52.676 143.500 C 52.776 143.115,52.776 142.485,52.676 142.100 C 52.575 141.715,52.493 142.030,52.493 142.800 M129.234 142.200 C 129.222 142.640,129.387 143.270,129.600 143.600 C 130.114 144.395,130.114 143.396,129.600 142.200 L 129.256 141.400 129.234 142.200 M287.052 142.500 C 286.742 143.655,286.780 145.607,287.128 146.485 C 287.278 146.862,287.400 145.917,287.400 144.385 C 287.400 141.280,287.392 141.234,287.052 142.500 M353.244 143.244 C 352.998 143.951,352.866 144.600,352.952 144.685 C 353.038 144.771,353.309 144.262,353.556 143.556 C 353.802 142.849,353.934 142.200,353.848 142.115 C 353.762 142.029,353.491 142.538,353.244 143.244 M185.244 143.644 C 184.998 144.351,184.866 145.000,184.952 145.085 C 185.038 145.171,185.309 144.662,185.556 143.956 C 185.802 143.249,185.934 142.600,185.848 142.515 C 185.762 142.429,185.491 142.938,185.244 143.644 M175.640 144.240 C 175.097 146.208,175.377 146.488,176.000 144.600 C 176.264 143.801,176.385 143.052,176.269 142.936 C 176.153 142.820,175.870 143.407,175.640 144.240 M337.309 144.400 C 337.309 145.390,337.387 145.795,337.482 145.300 C 337.578 144.805,337.578 143.995,337.482 143.500 C 337.387 143.005,337.309 143.410,337.309 144.400 M56.088 144.213 C 56.686 144.843,57.247 145.277,57.335 145.179 C 57.423 145.080,56.933 144.565,56.247 144.034 L 55.000 143.069 56.088 144.213 M94.990 143.940 C 95.159 144.238,95.446 145.408,95.629 146.540 L 95.960 148.600 95.837 146.476 C 95.769 145.309,95.481 144.139,95.198 143.876 C 94.794 143.503,94.749 143.517,94.990 143.940 M98.801 144.286 C 98.800 144.930,101.159 147.600,101.730 147.600 C 101.977 147.600,101.763 147.309,101.255 146.953 C 100.747 146.598,99.988 145.743,99.567 145.053 C 99.147 144.364,98.802 144.019,98.801 144.286 M51.567 145.709 C 51.218 146.419,50.228 147.402,49.367 147.893 C 48.439 148.423,48.085 148.790,48.500 148.793 C 49.352 148.801,52.400 145.836,52.400 145.000 C 52.400 144.150,52.283 144.249,51.567 145.709 M279.116 146.908 C 279.318 150.189,278.734 151.757,277.405 151.503 C 276.865 151.400,276.519 151.470,276.636 151.658 C 277.036 152.306,278.356 151.998,278.977 151.111 C 279.638 150.168,279.847 145.809,279.275 144.908 C 279.104 144.638,279.032 145.538,279.116 146.908 M58.538 145.694 C 58.792 145.856,59.540 145.988,60.200 145.988 C 60.860 145.988,61.608 145.856,61.862 145.694 C 62.116 145.532,61.368 145.400,60.200 145.400 C 59.032 145.400,58.284 145.532,58.538 145.694 M83.709 146.800 C 83.709 147.790,83.787 148.195,83.882 147.700 C 83.978 147.205,83.978 146.395,83.882 145.900 C 83.787 145.405,83.709 145.810,83.709 146.800 M367.429 146.000 C 367.576 146.550,367.864 147.270,368.067 147.600 C 368.325 148.017,368.357 147.895,368.171 147.200 C 368.024 146.650,367.736 145.930,367.533 145.600 C 367.275 145.183,367.243 145.305,367.429 146.000 M42.676 147.500 C 43.398 148.215,44.306 148.789,44.694 148.775 C 45.194 148.757,45.108 148.633,44.400 148.352 C 43.850 148.133,42.942 147.559,42.381 147.077 C 41.821 146.595,41.954 146.785,42.676 147.500 M184.044 147.244 C 183.798 147.951,183.666 148.600,183.752 148.685 C 183.838 148.771,184.109 148.262,184.356 147.556 C 184.602 146.849,184.734 146.200,184.648 146.115 C 184.562 146.029,184.291 146.538,184.044 147.244 M13.094 147.251 C 12.485 147.704,11.794 148.464,11.558 148.938 C 11.217 149.622,11.322 149.581,12.064 148.736 C 12.579 148.151,13.540 147.393,14.200 147.052 C 14.860 146.711,15.130 146.431,14.800 146.429 C 14.470 146.427,13.702 146.797,13.094 147.251 M19.000 147.010 C 19.660 147.342,20.715 148.196,21.344 148.907 C 22.034 149.687,22.315 149.860,22.053 149.343 C 21.463 148.180,19.292 146.399,18.469 146.402 C 18.075 146.404,18.293 146.653,19.000 147.010 M32.846 146.763 C 32.507 146.978,33.051 147.032,34.246 146.904 C 35.321 146.788,36.275 146.628,36.367 146.547 C 36.729 146.228,33.365 146.435,32.846 146.763 M174.444 148.044 C 174.198 148.751,174.066 149.400,174.152 149.485 C 174.238 149.571,174.509 149.062,174.756 148.356 C 175.002 147.649,175.134 147.000,175.048 146.915 C 174.962 146.829,174.691 147.338,174.444 148.044 M205.375 158.800 C 205.375 164.630,205.431 167.015,205.499 164.100 C 205.567 161.185,205.567 156.415,205.499 153.500 C 205.431 150.585,205.375 152.970,205.375 158.800 M255.622 149.443 C 254.940 150.017,254.194 150.872,253.964 151.343 C 253.624 152.041,253.695 152.015,254.349 151.201 C 254.791 150.652,255.658 149.798,256.276 149.303 C 256.894 148.809,257.279 148.403,257.131 148.402 C 256.983 148.401,256.304 148.869,255.622 149.443 M316.892 177.000 C 316.835 192.840,316.689 206.250,316.567 206.800 C 316.384 207.623,316.421 207.681,316.775 207.131 C 317.074 206.665,317.173 197.600,317.100 177.331 L 316.995 148.200 316.892 177.000 M84.012 149.046 C 83.994 149.706,85.533 151.540,86.531 152.046 C 87.109 152.340,86.977 152.104,86.138 151.344 C 85.444 150.715,84.684 149.840,84.450 149.400 C 84.216 148.960,84.019 148.801,84.012 149.046 M95.200 149.186 C 95.200 149.472,94.525 150.354,93.700 151.147 C 92.822 151.991,92.609 152.326,93.187 151.955 C 94.428 151.156,95.835 149.302,95.473 148.940 C 95.323 148.790,95.200 148.900,95.200 149.186 M272.400 149.400 C 272.950 149.714,273.580 149.972,273.800 149.972 C 274.020 149.972,273.750 149.714,273.200 149.400 C 272.650 149.086,272.020 148.828,271.800 148.828 C 271.580 148.828,271.850 149.086,272.400 149.400 M29.188 150.022 C 28.946 150.474,28.807 151.022,28.880 151.239 C 28.952 151.457,29.218 151.087,29.471 150.417 C 29.997 149.025,29.839 148.805,29.188 150.022 M131.829 150.000 C 131.976 150.550,132.264 151.270,132.467 151.600 C 132.725 152.017,132.757 151.895,132.571 151.200 C 132.424 150.650,132.136 149.930,131.933 149.600 C 131.675 149.183,131.643 149.305,131.829 150.000 M244.379 150.255 C 244.158 150.836,244.052 151.385,244.143 151.476 C 244.233 151.567,244.499 151.092,244.733 150.420 C 245.253 148.928,244.939 148.782,244.379 150.255 M40.437 150.735 C 41.730 154.444,39.289 157.918,35.024 158.440 L 33.000 158.687 34.841 158.744 C 39.110 158.874,43.142 152.582,40.489 149.929 C 40.075 149.515,40.065 149.667,40.437 150.735 M359.267 150.275 C 358.620 151.484,358.684 151.774,359.432 151.025 C 359.780 150.677,359.990 150.170,359.899 149.897 C 359.797 149.592,359.555 149.737,359.267 150.275 M10.643 150.633 C 10.310 151.501,10.348 153.699,10.706 154.262 C 10.868 154.516,11.000 153.661,11.000 152.362 C 11.000 149.761,10.992 149.723,10.643 150.633 M173.244 151.644 C 172.998 152.351,172.866 153.000,172.952 153.085 C 173.038 153.171,173.309 152.662,173.556 151.956 C 173.802 151.249,173.934 150.600,173.848 150.515 C 173.762 150.429,173.491 150.938,173.244 151.644 M22.509 152.400 C 22.509 153.390,22.587 153.795,22.682 153.300 C 22.778 152.805,22.778 151.995,22.682 151.500 C 22.587 151.005,22.509 151.410,22.509 152.400 M109.328 151.628 C 107.819 152.375,106.085 154.219,106.501 154.634 C 106.591 154.725,106.905 154.351,107.198 153.803 C 108.006 152.294,110.880 151.055,112.924 151.335 C 114.068 151.492,114.346 151.452,113.800 151.210 C 112.478 150.625,111.093 150.755,109.328 151.628 M115.277 152.083 C 115.649 152.398,116.345 153.092,116.822 153.627 L 117.690 154.600 117.116 153.629 C 116.800 153.095,116.105 152.401,115.571 152.086 C 114.737 151.593,114.695 151.593,115.277 152.083 M142.629 152.800 C 142.776 153.350,143.064 154.070,143.267 154.400 C 143.525 154.817,143.557 154.695,143.371 154.000 C 143.224 153.450,142.936 152.730,142.733 152.400 C 142.475 151.983,142.443 152.105,142.629 152.800 M252.935 153.453 C 252.417 155.405,252.776 160.558,253.386 159.947 C 253.468 159.866,253.371 158.929,253.173 157.865 C 252.954 156.696,252.958 155.277,253.183 154.277 C 253.606 152.394,253.398 151.705,252.935 153.453 M181.644 154.044 C 181.398 154.751,181.266 155.400,181.352 155.485 C 181.438 155.571,181.709 155.062,181.956 154.356 C 182.202 153.649,182.334 153.000,182.248 152.915 C 182.162 152.829,181.891 153.338,181.644 154.044 M28.816 153.920 C 28.792 154.701,29.851 156.584,30.674 157.222 C 31.366 157.760,31.368 157.748,30.718 156.981 C 30.342 156.538,29.765 155.552,29.433 154.788 C 29.102 154.025,28.824 153.634,28.816 153.920 M96.080 154.380 C 97.114 154.571,98.194 154.861,98.480 155.023 C 98.880 155.250,98.893 155.201,98.535 154.813 C 98.279 154.536,97.199 154.247,96.135 154.170 L 94.200 154.031 96.080 154.380 M172.044 155.244 C 171.798 155.951,171.666 156.600,171.752 156.685 C 171.838 156.771,172.109 156.262,172.356 155.556 C 172.602 154.849,172.734 154.200,172.648 154.115 C 172.562 154.029,172.291 154.538,172.044 155.244 M22.000 154.703 C 22.000 154.942,21.511 155.737,20.914 156.469 C 20.021 157.564,19.992 157.659,20.751 157.004 C 21.829 156.075,22.565 154.831,22.232 154.499 C 22.105 154.371,22.000 154.463,22.000 154.703 M243.260 157.000 C 243.258 158.540,243.398 160.160,243.572 160.600 C 243.746 161.043,243.809 159.973,243.712 158.200 C 243.486 154.042,243.264 153.454,243.260 157.000 M117.862 156.200 C 117.996 157.080,118.172 157.875,118.253 157.967 C 118.556 158.310,118.329 156.168,117.981 155.400 C 117.729 154.842,117.693 155.085,117.862 156.200 M11.560 155.925 C 12.131 156.992,14.082 158.267,15.682 158.618 C 16.707 158.843,19.864 158.131,19.492 157.758 C 19.403 157.669,18.778 157.789,18.103 158.024 C 16.381 158.624,13.956 157.894,12.355 156.294 C 11.367 155.306,11.183 155.220,11.560 155.925 M99.999 156.300 C 100.522 157.015,101.013 157.600,101.089 157.600 C 101.393 157.600,100.401 156.100,99.745 155.567 C 99.313 155.216,99.410 155.496,99.999 156.300 M143.829 156.400 C 143.976 156.950,144.264 157.670,144.467 158.000 C 144.725 158.417,144.757 158.295,144.571 157.600 C 144.424 157.050,144.136 156.330,143.933 156.000 C 143.675 155.583,143.643 155.705,143.829 156.400 M134.229 156.800 C 134.376 157.350,134.664 158.070,134.867 158.400 C 135.125 158.817,135.157 158.695,134.971 158.000 C 134.824 157.450,134.536 156.730,134.333 156.400 C 134.075 155.983,134.043 156.105,134.229 156.800 M371.429 157.200 C 371.576 157.750,371.864 158.470,372.067 158.800 C 372.325 159.217,372.357 159.095,372.171 158.400 C 372.024 157.850,371.736 157.130,371.533 156.800 C 371.275 156.383,371.243 156.505,371.429 157.200 M22.976 159.422 C 22.212 160.034,22.213 160.038,23.000 159.676 C 23.440 159.474,24.070 159.208,24.400 159.086 C 24.918 158.893,24.915 158.859,24.376 158.832 C 24.034 158.814,23.404 159.080,22.976 159.422 M170.600 159.600 C 170.450 160.073,170.417 160.550,170.527 160.660 C 170.637 160.770,170.850 160.473,171.000 160.000 C 171.150 159.527,171.183 159.050,171.073 158.940 C 170.963 158.830,170.750 159.127,170.600 159.600 M28.620 159.506 C 28.829 159.674,29.540 160.259,30.200 160.805 L 31.400 161.797 30.225 160.499 C 29.579 159.784,28.868 159.200,28.645 159.200 C 28.394 159.200,28.384 159.316,28.620 159.506 M145.029 160.000 C 145.176 160.550,145.464 161.270,145.667 161.600 C 145.925 162.017,145.957 161.895,145.771 161.200 C 145.624 160.650,145.336 159.930,145.133 159.600 C 144.875 159.183,144.843 159.305,145.029 160.000 M363.029 160.000 C 363.176 160.550,363.464 161.270,363.667 161.600 C 363.925 162.017,363.957 161.895,363.771 161.200 C 363.624 160.650,363.336 159.930,363.133 159.600 C 362.875 159.183,362.843 159.305,363.029 160.000 M106.400 159.963 C 106.400 160.328,109.154 162.999,109.298 162.773 C 109.358 162.678,108.731 161.944,107.904 161.141 C 107.077 160.339,106.400 159.809,106.400 159.963 M115.941 161.296 C 115.139 162.123,114.609 162.800,114.763 162.800 C 115.128 162.800,117.799 160.046,117.573 159.902 C 117.478 159.842,116.744 160.469,115.941 161.296 M20.796 161.206 C 20.324 161.869,19.996 162.584,20.069 162.794 C 20.141 163.004,20.590 162.461,21.067 161.588 C 22.098 159.698,21.984 159.537,20.796 161.206 M346.844 161.244 C 346.598 161.951,346.466 162.600,346.552 162.685 C 346.638 162.771,346.909 162.262,347.156 161.556 C 347.402 160.849,347.534 160.200,347.448 160.115 C 347.362 160.029,347.091 160.538,346.844 161.244 M253.937 161.017 C 254.390 161.937,258.194 165.604,258.683 165.592 C 258.857 165.588,258.239 164.946,257.309 164.166 C 256.378 163.386,255.149 162.175,254.576 161.474 C 254.004 160.773,253.716 160.568,253.937 161.017 M355.244 161.644 C 354.998 162.351,354.866 163.000,354.952 163.085 C 355.038 163.171,355.309 162.662,355.556 161.956 C 355.802 161.249,355.934 160.600,355.848 160.515 C 355.762 160.429,355.491 160.938,355.244 161.644 M31.492 163.722 C 31.759 166.084,31.451 167.230,30.114 168.869 C 29.213 169.973,29.186 170.064,29.955 169.401 C 31.776 167.831,32.680 164.093,31.637 162.446 C 31.421 162.105,31.365 162.596,31.492 163.722 M244.218 163.300 C 244.368 163.795,244.655 164.376,244.856 164.591 C 245.057 164.806,245.019 164.401,244.772 163.691 C 244.265 162.238,243.797 161.908,244.218 163.300 M100.250 163.881 C 99.837 164.433,98.757 165.221,97.850 165.633 C 96.942 166.045,96.434 166.386,96.720 166.391 C 97.924 166.412,101.708 163.562,101.168 163.041 C 101.076 162.951,100.662 163.330,100.250 163.881 M110.900 163.224 C 111.505 163.393,112.495 163.393,113.100 163.224 C 113.956 162.985,113.712 162.917,112.000 162.917 C 110.288 162.917,110.044 162.985,110.900 163.224 M136.629 163.600 C 136.776 164.150,137.064 164.870,137.267 165.200 C 137.525 165.617,137.557 165.495,137.371 164.800 C 137.224 164.250,136.936 163.530,136.733 163.200 C 136.475 162.783,136.443 162.905,136.629 163.600 M364.218 163.700 C 364.368 164.195,364.655 164.776,364.856 164.991 C 365.057 165.206,365.019 164.801,364.772 164.091 C 364.265 162.638,363.797 162.308,364.218 163.700 M345.644 164.444 C 345.398 165.151,345.266 165.800,345.352 165.885 C 345.438 165.971,345.709 165.462,345.956 164.756 C 346.202 164.049,346.334 163.400,346.248 163.315 C 346.162 163.229,345.891 163.738,345.644 164.444 M373.829 164.000 C 373.976 164.550,374.264 165.270,374.467 165.600 C 374.725 166.017,374.757 165.895,374.571 165.200 C 374.424 164.650,374.136 163.930,373.933 163.600 C 373.675 163.183,373.643 163.305,373.829 164.000 M19.693 164.800 C 19.693 165.570,19.775 165.885,19.876 165.500 C 19.976 165.115,19.976 164.485,19.876 164.100 C 19.775 163.715,19.693 164.030,19.693 164.800 M9.365 164.756 C 7.734 165.751,6.389 167.501,6.446 168.554 C 6.491 169.362,6.502 169.364,6.693 168.600 C 7.066 167.112,8.513 165.510,10.160 164.762 C 11.062 164.353,11.530 164.014,11.200 164.010 C 10.870 164.006,10.044 164.342,9.365 164.756 M354.044 165.244 C 353.798 165.951,353.666 166.600,353.752 166.685 C 353.838 166.771,354.109 166.262,354.356 165.556 C 354.602 164.849,354.734 164.200,354.648 164.115 C 354.562 164.029,354.291 164.538,354.044 165.244 M16.079 165.605 C 18.752 167.808,19.034 171.194,16.760 173.784 C 13.854 177.094,8.730 176.276,6.963 172.220 C 6.670 171.549,6.424 171.273,6.416 171.607 C 6.355 173.957,10.547 176.762,13.338 176.238 C 16.693 175.609,19.220 172.165,18.631 169.025 C 18.355 167.553,15.922 164.400,15.062 164.400 C 14.818 164.400,15.276 164.942,16.079 165.605 M177.644 165.644 C 177.398 166.351,177.266 167.000,177.352 167.085 C 177.438 167.171,177.709 166.662,177.956 165.956 C 178.202 165.249,178.334 164.600,178.248 164.515 C 178.162 164.429,177.891 164.938,177.644 165.644 M92.976 165.778 C 93.404 166.120,94.034 166.386,94.376 166.368 C 94.915 166.341,94.918 166.307,94.400 166.114 C 94.070 165.992,93.440 165.726,93.000 165.524 C 92.213 165.162,92.212 165.166,92.976 165.778 M111.896 165.935 C 111.509 166.088,112.276 166.213,113.600 166.213 C 114.924 166.213,115.691 166.088,115.304 165.935 C 114.917 165.782,114.150 165.656,113.600 165.656 C 113.050 165.656,112.283 165.782,111.896 165.935 M259.200 165.798 C 259.200 166.067,263.249 168.084,263.429 167.905 C 263.511 167.823,262.593 167.273,261.389 166.682 C 260.185 166.092,259.200 165.694,259.200 165.798 M168.200 166.800 C 168.050 167.273,168.017 167.750,168.127 167.860 C 168.237 167.970,168.450 167.673,168.600 167.200 C 168.750 166.727,168.783 166.250,168.673 166.140 C 168.563 166.030,168.350 166.327,168.200 166.800 M365.446 167.000 C 365.588 167.660,365.880 168.380,366.097 168.600 C 366.355 168.863,366.389 168.657,366.197 168.000 C 365.723 166.385,365.151 165.623,365.446 167.000 M20.018 166.762 C 19.949 168.954,24.511 171.681,26.905 170.879 L 28.200 170.445 26.713 170.665 C 24.592 170.978,21.812 169.563,20.806 167.659 C 20.382 166.856,20.027 166.453,20.018 166.762 M117.497 167.595 C 120.188 170.280,120.102 174.068,117.299 176.379 C 116.484 177.051,115.942 177.600,116.095 177.600 C 116.825 177.600,119.203 175.002,119.615 173.754 C 120.411 171.341,119.155 167.825,117.121 166.775 C 116.403 166.404,116.485 166.585,117.497 167.595 M137.829 167.200 C 137.976 167.750,138.264 168.470,138.467 168.800 C 138.725 169.217,138.757 169.095,138.571 168.400 C 138.424 167.850,138.136 167.130,137.933 166.800 C 137.675 166.383,137.643 166.505,137.829 167.200 M375.029 167.200 C 375.176 167.750,375.464 168.470,375.667 168.800 C 375.925 169.217,375.957 169.095,375.771 168.400 C 375.624 167.850,375.336 167.130,375.133 166.800 C 374.875 166.383,374.843 166.505,375.029 167.200 M344.444 168.044 C 344.198 168.751,344.066 169.400,344.152 169.485 C 344.238 169.571,344.509 169.062,344.756 168.356 C 345.002 167.649,345.134 167.000,345.048 166.915 C 344.962 166.829,344.691 167.338,344.444 168.044 M176.440 169.040 C 176.210 169.873,176.094 170.627,176.182 170.715 C 176.270 170.803,176.530 170.193,176.760 169.360 C 176.990 168.527,177.106 167.773,177.018 167.685 C 176.930 167.597,176.670 168.207,176.440 169.040 M107.988 169.222 C 107.746 169.674,107.607 170.222,107.680 170.439 C 107.752 170.657,108.018 170.287,108.271 169.617 C 108.797 168.225,108.639 168.005,107.988 169.222 M266.570 169.552 C 266.690 169.745,267.195 170.006,267.694 170.132 C 268.568 170.352,268.573 170.340,267.824 169.780 C 266.964 169.138,266.232 169.004,266.570 169.552 M98.925 169.986 C 102.295 170.607,103.793 172.105,104.414 175.475 L 104.769 177.400 104.628 175.454 C 104.396 172.229,102.171 170.004,98.946 169.772 L 97.000 169.631 98.925 169.986 M167.000 170.400 C 166.850 170.873,166.817 171.350,166.927 171.460 C 167.037 171.570,167.250 171.273,167.400 170.800 C 167.550 170.327,167.583 169.850,167.473 169.740 C 167.363 169.630,167.150 169.927,167.000 170.400 M366.629 170.400 C 366.776 170.950,367.064 171.670,367.267 172.000 C 367.525 172.417,367.557 172.295,367.371 171.600 C 367.224 171.050,366.936 170.330,366.733 170.000 C 366.475 169.583,366.443 169.705,366.629 170.400 M94.401 171.447 C 93.521 172.242,92.800 173.076,92.800 173.300 C 92.800 173.525,93.189 173.213,93.665 172.609 C 94.140 172.004,95.085 171.171,95.765 170.756 C 96.444 170.342,96.776 170.002,96.501 170.001 C 96.227 170.001,95.282 170.651,94.401 171.447 M343.244 171.244 C 342.998 171.951,342.866 172.600,342.952 172.685 C 343.038 172.771,343.309 172.262,343.556 171.556 C 343.802 170.849,343.934 170.200,343.848 170.115 C 343.762 170.029,343.491 170.538,343.244 171.244 M139.212 171.200 C 139.212 171.530,139.387 172.070,139.600 172.400 C 139.945 172.933,139.988 172.933,139.988 172.400 C 139.988 172.070,139.813 171.530,139.600 171.200 C 139.255 170.667,139.212 170.667,139.212 171.200 M175.244 172.444 C 174.998 173.151,174.866 173.800,174.952 173.885 C 175.038 173.971,175.309 173.462,175.556 172.756 C 175.802 172.049,175.934 171.400,175.848 171.315 C 175.762 171.229,175.491 171.738,175.244 172.444 M250.669 171.632 C 251.166 172.233,253.600 173.764,253.600 173.476 C 253.600 173.383,252.835 172.802,251.900 172.185 C 250.965 171.568,250.411 171.320,250.669 171.632 M229.701 173.000 C 229.705 173.880,229.787 174.193,229.883 173.695 C 229.979 173.198,229.975 172.478,229.875 172.095 C 229.775 171.713,229.696 172.120,229.701 173.000 M274.600 173.669 C 275.260 174.171,276.715 175.396,277.834 176.391 C 279.596 177.958,279.557 177.894,277.544 175.919 C 276.266 174.665,274.811 173.440,274.310 173.197 C 273.710 172.906,273.809 173.067,274.600 173.669 M27.400 173.619 C 26.842 173.871,27.085 173.907,28.200 173.738 C 29.080 173.604,29.875 173.428,29.967 173.347 C 30.310 173.044,28.168 173.271,27.400 173.619 M107.616 173.699 C 107.598 174.493,110.256 177.602,110.947 177.596 C 111.196 177.593,110.794 177.114,110.053 176.530 C 109.312 175.946,108.464 174.913,108.169 174.234 C 107.847 173.496,107.625 173.281,107.616 173.699 M165.680 174.680 C 165.088 176.609,165.375 176.895,166.000 175.000 C 166.264 174.201,166.402 173.469,166.307 173.374 C 166.212 173.278,165.930 173.866,165.680 174.680 M377.429 174.000 C 377.576 174.550,377.864 175.270,378.067 175.600 C 378.325 176.017,378.357 175.895,378.171 175.200 C 378.024 174.650,377.736 173.930,377.533 173.600 C 377.275 173.183,377.243 173.305,377.429 174.000 M24.922 175.029 L 23.800 176.058 25.100 175.154 C 25.815 174.657,26.400 174.193,26.400 174.125 C 26.400 173.809,25.958 174.080,24.922 175.029 M32.076 174.419 C 32.448 174.636,33.211 175.395,33.772 176.106 C 34.332 176.818,34.793 177.271,34.796 177.114 C 34.803 176.608,32.333 174.000,31.859 174.012 C 31.606 174.019,31.704 174.202,32.076 174.419 M368.012 174.400 C 368.012 174.730,368.187 175.270,368.400 175.600 C 368.745 176.133,368.788 176.133,368.788 175.600 C 368.788 175.270,368.613 174.730,368.400 174.400 C 368.055 173.867,368.012 173.867,368.012 174.400 M140.629 175.200 C 140.776 175.750,141.064 176.470,141.267 176.800 C 141.525 177.217,141.557 177.095,141.371 176.400 C 141.224 175.850,140.936 175.130,140.733 174.800 C 140.475 174.383,140.443 174.505,140.629 175.200 M150.012 174.800 C 150.012 175.130,150.187 175.670,150.400 176.000 C 150.745 176.533,150.788 176.533,150.788 176.000 C 150.788 175.670,150.613 175.130,150.400 174.800 C 150.055 174.267,150.012 174.267,150.012 174.800 M341.800 175.200 C 341.650 175.673,341.617 176.150,341.727 176.260 C 341.837 176.370,342.050 176.073,342.200 175.600 C 342.350 175.127,342.383 174.650,342.273 174.540 C 342.163 174.430,341.950 174.727,341.800 175.200 M205.381 176.905 C 205.274 177.183,205.235 182.448,205.294 188.605 L 205.400 199.800 218.966 199.905 C 228.993 199.983,232.697 200.140,233.166 200.505 C 233.726 200.943,233.736 200.919,233.251 200.300 C 232.747 199.658,231.581 199.600,219.151 199.600 L 205.600 199.600 205.600 188.206 L 205.600 176.812 217.100 176.700 L 228.600 176.587 217.087 176.494 C 208.112 176.421,205.532 176.511,205.381 176.905 M340.844 178.044 C 340.598 178.751,340.466 179.400,340.552 179.485 C 340.638 179.571,340.909 179.062,341.156 178.356 C 341.402 177.649,341.534 177.000,341.448 176.915 C 341.362 176.829,341.091 177.338,340.844 178.044 M23.049 177.815 C 22.912 178.173,22.823 179.036,22.850 179.733 C 22.892 180.787,22.950 180.698,23.199 179.200 C 23.517 177.286,23.459 176.748,23.049 177.815 M164.444 178.444 C 164.198 179.151,164.066 179.800,164.152 179.885 C 164.238 179.971,164.509 179.462,164.756 178.756 C 165.002 178.049,165.134 177.400,165.048 177.315 C 164.962 177.229,164.691 177.738,164.444 178.444 M141.803 178.800 C 142.277 180.415,142.849 181.177,142.554 179.800 C 142.412 179.140,142.120 178.420,141.903 178.200 C 141.645 177.937,141.611 178.143,141.803 178.800 M13.000 179.343 C 12.340 179.648,11.350 180.409,10.800 181.034 C 9.852 182.111,9.878 182.104,11.291 180.905 C 13.045 179.417,15.134 178.923,17.107 179.528 C 18.096 179.832,18.394 179.834,18.096 179.536 C 17.412 178.852,14.316 178.734,13.000 179.343 M102.306 180.211 C 101.484 180.975,100.944 181.599,101.106 181.598 C 101.428 181.596,104.000 179.269,104.000 178.980 C 104.000 178.669,103.837 178.787,102.306 180.211 M94.129 180.313 C 95.205 181.514,96.865 182.071,98.845 181.896 L 100.600 181.740 98.556 181.670 C 97.093 181.620,96.069 181.302,94.956 180.550 C 93.763 179.744,93.570 179.689,94.129 180.313 M19.848 181.400 C 20.464 182.280,21.020 183.075,21.084 183.167 C 21.148 183.258,21.200 183.126,21.200 182.873 C 21.200 182.620,20.644 181.825,19.964 181.106 L 18.728 179.800 19.848 181.400 M163.244 182.044 C 162.998 182.751,162.866 183.400,162.952 183.485 C 163.038 183.571,163.309 183.062,163.556 182.356 C 163.802 181.649,163.934 181.000,163.848 180.915 C 163.762 180.829,163.491 181.338,163.244 182.044 M34.400 181.903 C 34.400 182.142,33.911 182.937,33.314 183.669 C 32.421 184.764,32.392 184.859,33.151 184.204 C 34.229 183.275,34.965 182.031,34.632 181.699 C 34.505 181.571,34.400 181.663,34.400 181.903 M107.606 182.994 C 106.863 183.761,106.332 184.437,106.427 184.498 C 106.522 184.558,107.256 183.931,108.059 183.104 C 108.861 182.277,109.391 181.600,109.237 181.600 C 109.083 181.600,108.349 182.227,107.606 182.994 M171.644 182.844 C 171.398 183.551,171.266 184.200,171.352 184.285 C 171.438 184.371,171.709 183.862,171.956 183.156 C 172.202 182.449,172.334 181.800,172.248 181.715 C 172.162 181.629,171.891 182.138,171.644 182.844 M9.443 183.033 C 8.189 186.300,11.075 191.244,14.200 191.181 C 14.676 191.171,14.390 190.947,13.496 190.628 C 10.536 189.572,9.419 187.784,9.689 184.535 C 9.876 182.273,9.834 182.014,9.443 183.033 M24.086 183.171 C 24.401 183.705,25.095 184.402,25.629 184.720 L 26.600 185.298 25.712 184.549 C 25.223 184.137,24.529 183.440,24.168 183.000 C 23.543 182.237,23.539 182.245,24.086 183.171 M271.224 183.900 C 271.754 184.505,272.348 185.180,272.543 185.400 C 273.051 185.973,272.121 184.336,271.463 183.500 C 271.160 183.115,270.765 182.800,270.586 182.800 C 270.407 182.800,270.694 183.295,271.224 183.900 M21.301 185.000 C 21.305 185.880,21.387 186.193,21.483 185.695 C 21.579 185.198,21.575 184.478,21.475 184.095 C 21.375 183.713,21.296 184.120,21.301 185.000 M282.698 186.000 C 282.813 187.430,282.974 188.675,283.054 188.767 C 283.349 189.104,283.133 184.974,282.815 184.200 C 282.622 183.730,282.574 184.473,282.698 186.000 M162.044 185.644 C 161.798 186.351,161.666 187.000,161.752 187.085 C 161.838 187.171,162.109 186.662,162.356 185.956 C 162.602 185.249,162.734 184.600,162.648 184.515 C 162.562 184.429,162.291 184.938,162.044 185.644 M338.200 185.200 C 338.050 185.673,338.017 186.150,338.127 186.260 C 338.237 186.370,338.450 186.073,338.600 185.600 C 338.750 185.127,338.783 184.650,338.673 184.540 C 338.563 184.430,338.350 184.727,338.200 185.200 M144.229 185.600 C 144.376 186.150,144.664 186.870,144.867 187.200 C 145.125 187.617,145.157 187.495,144.971 186.800 C 144.824 186.250,144.536 185.530,144.333 185.200 C 144.075 184.783,144.043 184.905,144.229 185.600 M153.829 186.000 C 153.976 186.550,154.264 187.270,154.467 187.600 C 154.725 188.017,154.757 187.895,154.571 187.200 C 154.424 186.650,154.136 185.930,153.933 185.600 C 153.675 185.183,153.643 185.305,153.829 186.000 M170.200 186.800 C 170.050 187.273,170.017 187.750,170.127 187.860 C 170.237 187.970,170.450 187.673,170.600 187.200 C 170.750 186.727,170.783 186.250,170.673 186.140 C 170.563 186.030,170.350 186.327,170.200 186.800 M273.000 190.000 C 273.000 192.158,273.132 193.716,273.294 193.462 C 273.456 193.208,273.588 191.650,273.588 190.000 C 273.588 188.350,273.456 186.792,273.294 186.538 C 273.132 186.284,273.000 187.842,273.000 190.000 M98.780 187.858 C 100.446 190.967,99.397 194.590,96.392 196.099 C 91.558 198.528,86.474 193.695,88.425 188.526 C 88.761 187.637,88.747 187.502,88.359 187.886 C 85.503 190.712,89.256 197.000,93.800 197.000 C 99.019 197.000,102.446 189.101,98.331 186.558 C 98.127 186.431,98.329 187.017,98.780 187.858 M20.658 187.430 C 20.247 188.705,18.214 190.453,16.732 190.803 C 15.621 191.066,15.566 191.124,16.400 191.156 C 18.133 191.223,21.507 188.304,21.095 187.096 C 20.996 186.808,20.813 186.947,20.658 187.430 M28.842 188.760 C 28.159 189.399,27.606 190.074,27.613 190.260 C 27.621 190.447,27.936 190.234,28.313 189.788 C 28.691 189.341,29.445 188.666,29.989 188.288 C 30.533 187.909,30.777 187.600,30.531 187.600 C 30.286 187.600,29.526 188.122,28.842 188.760 M36.143 188.359 C 36.772 188.774,37.626 189.628,38.041 190.257 C 38.455 190.885,38.796 191.188,38.797 190.928 C 38.801 190.254,36.212 187.599,35.553 187.603 C 35.249 187.604,35.515 187.945,36.143 188.359 M336.844 189.244 C 336.598 189.951,336.466 190.600,336.552 190.685 C 336.638 190.771,336.909 190.262,337.156 189.556 C 337.402 188.849,337.534 188.200,337.448 188.115 C 337.362 188.029,337.091 188.538,336.844 189.244 M155.029 189.600 C 155.176 190.150,155.464 190.870,155.667 191.200 C 155.925 191.617,155.957 191.495,155.771 190.800 C 155.624 190.250,155.336 189.530,155.133 189.200 C 154.875 188.783,154.843 188.905,155.029 189.600 M160.600 190.000 C 160.450 190.473,160.417 190.950,160.527 191.060 C 160.637 191.170,160.850 190.873,161.000 190.400 C 161.150 189.927,161.183 189.450,161.073 189.340 C 160.963 189.230,160.750 189.527,160.600 190.000 M282.867 190.800 C 282.824 191.790,282.696 193.050,282.583 193.600 L 282.377 194.600 282.807 193.615 C 283.044 193.074,283.171 191.814,283.091 190.815 L 282.944 189.000 282.867 190.800 M116.000 191.463 C 115.098 192.400,114.900 192.760,115.443 192.475 C 116.126 192.117,117.905 189.989,117.509 190.004 C 117.449 190.007,116.770 190.663,116.000 191.463 M345.600 190.103 C 345.600 190.159,345.423 190.822,345.207 191.576 C 344.991 192.329,344.968 192.778,345.155 192.573 C 345.564 192.126,346.103 190.000,345.808 190.000 C 345.693 190.000,345.600 190.046,345.600 190.103 M77.347 191.167 C 76.072 191.945,74.800 193.450,74.800 194.182 C 74.800 194.404,75.256 193.914,75.814 193.093 C 76.372 192.272,76.867 191.597,76.914 191.594 C 77.625 191.544,79.980 190.431,79.400 190.419 C 78.960 190.410,78.036 190.747,77.347 191.167 M82.072 190.792 C 84.647 191.569,85.969 193.202,86.398 196.136 C 86.677 198.039,86.704 198.080,86.750 196.660 C 86.844 193.767,84.120 190.336,81.807 190.434 C 81.181 190.461,81.241 190.541,82.072 190.792 M26.959 191.822 C 26.597 193.265,27.049 195.607,27.914 196.766 C 31.610 201.716,39.329 199.293,39.144 193.241 L 39.087 191.400 38.834 193.483 C 38.695 194.629,38.212 196.069,37.762 196.683 C 34.145 201.616,26.498 198.446,27.316 192.353 C 27.552 190.594,27.344 190.285,26.959 191.822 M383.829 192.000 C 383.976 192.550,384.264 193.270,384.467 193.600 C 384.725 194.017,384.757 193.895,384.571 193.200 C 384.424 192.650,384.136 191.930,383.933 191.600 C 383.675 191.183,383.643 191.305,383.829 192.000 M108.925 192.500 C 109.345 192.885,109.984 193.189,110.344 193.175 C 110.759 193.159,110.640 193.006,110.022 192.759 C 109.483 192.544,108.845 192.240,108.603 192.084 C 108.360 191.928,108.506 192.115,108.925 192.500 M146.629 192.400 C 146.776 192.950,147.064 193.670,147.267 194.000 C 147.525 194.417,147.557 194.295,147.371 193.600 C 147.224 193.050,146.936 192.330,146.733 192.000 C 146.475 191.583,146.443 191.705,146.629 192.400 M335.579 192.655 C 335.358 193.236,335.252 193.785,335.343 193.876 C 335.433 193.967,335.699 193.492,335.933 192.820 C 336.453 191.328,336.139 191.182,335.579 192.655 M374.248 192.600 C 374.391 193.260,374.666 194.070,374.859 194.400 C 375.084 194.784,375.118 194.568,374.952 193.800 C 374.809 193.140,374.534 192.330,374.341 192.000 C 374.116 191.616,374.082 191.832,374.248 192.600 M156.229 193.200 C 156.376 193.750,156.664 194.470,156.867 194.800 C 157.125 195.217,157.157 195.095,156.971 194.400 C 156.824 193.850,156.536 193.130,156.333 192.800 C 156.075 192.383,156.043 192.505,156.229 193.200 M112.200 193.200 C 111.111 193.477,111.093 193.507,112.000 193.525 C 112.550 193.535,113.360 193.389,113.800 193.200 C 114.786 192.776,113.866 192.776,112.200 193.200 M159.400 193.600 C 159.250 194.073,159.217 194.550,159.327 194.660 C 159.437 194.770,159.650 194.473,159.800 194.000 C 159.950 193.527,159.983 193.050,159.873 192.940 C 159.763 192.830,159.550 193.127,159.400 193.600 M167.644 194.444 C 167.398 195.151,167.266 195.800,167.352 195.885 C 167.438 195.971,167.709 195.462,167.956 194.756 C 168.202 194.049,168.334 193.400,168.248 193.315 C 168.162 193.229,167.891 193.738,167.644 194.444 M344.039 194.860 C 343.509 196.380,343.488 196.682,343.948 196.180 C 344.331 195.762,344.917 193.600,344.647 193.600 C 344.554 193.600,344.281 194.167,344.039 194.860 M17.738 194.306 C 17.484 194.468,18.412 194.600,19.800 194.600 C 21.188 194.600,22.116 194.468,21.862 194.306 C 21.608 194.144,20.680 194.012,19.800 194.012 C 18.920 194.012,17.992 194.144,17.738 194.306 M104.138 194.306 C 103.884 194.468,104.812 194.600,106.200 194.600 C 107.588 194.600,108.516 194.468,108.262 194.306 C 108.008 194.144,107.080 194.012,106.200 194.012 C 105.320 194.012,104.392 194.144,104.138 194.306 M272.400 194.752 C 272.400 195.020,271.505 196.133,270.411 197.227 C 269.317 198.322,268.732 199.048,269.111 198.841 C 270.747 197.949,273.151 195.018,272.654 194.521 C 272.514 194.381,272.400 194.485,272.400 194.752 M385.029 195.200 C 385.176 195.750,385.464 196.470,385.667 196.800 C 385.925 197.217,385.957 197.095,385.771 196.400 C 385.624 195.850,385.336 195.130,385.133 194.800 C 384.875 194.383,384.843 194.505,385.029 195.200 M15.951 195.320 C 11.427 198.764,14.145 206.400,19.895 206.400 C 23.763 206.400,27.508 200.996,25.660 198.083 C 25.474 197.791,25.400 198.489,25.488 199.683 C 25.947 205.895,18.042 208.425,14.798 203.104 C 13.386 200.787,13.792 198.185,15.924 195.900 C 17.012 194.733,17.022 194.504,15.951 195.320 M22.800 194.938 C 22.800 195.000,23.365 195.579,24.055 196.225 C 25.305 197.395,25.307 197.395,24.631 196.334 C 24.079 195.466,22.800 194.491,22.800 194.938 M74.456 196.441 C 74.326 200.710,80.618 204.742,83.271 202.089 C 83.685 201.675,83.533 201.665,82.465 202.037 C 78.756 203.330,75.282 200.889,74.760 196.624 L 74.513 194.600 74.456 196.441 M281.650 196.250 C 281.386 196.829,281.262 197.395,281.374 197.507 C 281.486 197.619,281.768 197.211,282.000 196.600 C 282.549 195.157,282.273 194.882,281.650 196.250 M375.429 196.000 C 375.576 196.550,375.864 197.270,376.067 197.600 C 376.325 198.017,376.357 197.895,376.171 197.200 C 376.024 196.650,375.736 195.930,375.533 195.600 C 375.275 195.183,375.243 195.305,375.429 196.000 M241.760 197.018 C 241.153 199.437,241.797 202.386,243.226 203.727 L 244.582 205.000 243.391 203.674 C 242.281 202.438,242.200 202.131,242.200 199.174 C 242.200 195.730,242.147 195.473,241.760 197.018 M158.400 196.757 C 158.400 197.027,158.220 197.136,158.000 197.000 C 157.780 196.864,157.600 197.033,157.600 197.376 C 157.600 197.719,157.786 198.000,158.013 198.000 C 158.512 198.000,158.999 196.865,158.649 196.516 C 158.512 196.379,158.400 196.487,158.400 196.757 M166.440 197.840 C 166.210 198.673,166.094 199.427,166.182 199.515 C 166.270 199.603,166.530 198.993,166.760 198.160 C 166.990 197.327,167.106 196.573,167.018 196.485 C 166.930 196.397,166.670 197.007,166.440 197.840 M44.105 197.487 C 44.714 197.579,45.614 197.577,46.105 197.482 C 46.597 197.387,46.100 197.311,45.000 197.314 C 43.900 197.317,43.497 197.395,44.105 197.487 M41.103 198.500 C 40.585 198.995,40.440 199.200,40.780 198.956 C 41.121 198.712,41.760 198.312,42.200 198.068 C 42.640 197.824,42.785 197.619,42.522 197.612 C 42.260 197.605,41.621 198.005,41.103 198.500 M48.581 198.837 C 50.370 200.408,51.107 202.668,50.533 204.821 C 50.305 205.675,50.264 206.284,50.444 206.173 C 52.361 204.988,49.833 197.600,47.510 197.600 C 47.324 197.600,47.806 198.157,48.581 198.837 M100.249 198.215 C 100.112 198.573,100.015 199.166,100.034 199.533 C 100.053 199.900,100.227 199.669,100.421 199.020 C 100.798 197.758,100.665 197.133,100.249 198.215 M111.888 199.683 C 112.072 202.173,111.184 203.934,109.104 205.202 C 108.387 205.639,108.011 205.998,108.269 205.999 C 110.666 206.006,113.427 200.239,112.060 198.083 C 111.874 197.791,111.800 198.489,111.888 199.683 M333.244 199.244 C 332.998 199.951,332.866 200.600,332.952 200.685 C 333.038 200.771,333.309 200.262,333.556 199.556 C 333.802 198.849,333.934 198.200,333.848 198.115 C 333.762 198.029,333.491 198.538,333.244 199.244 M86.000 198.703 C 86.000 198.942,85.511 199.737,84.914 200.469 C 84.021 201.564,83.992 201.659,84.751 201.004 C 85.829 200.075,86.565 198.831,86.232 198.499 C 86.105 198.371,86.000 198.463,86.000 198.703 M252.400 199.533 C 252.730 199.736,253.450 200.024,254.000 200.171 C 254.695 200.357,254.817 200.325,254.400 200.067 C 254.070 199.864,253.350 199.576,252.800 199.429 C 252.105 199.243,251.983 199.275,252.400 199.533 M266.600 199.814 C 265.595 200.298,265.563 200.353,266.400 200.151 C 266.950 200.019,267.571 199.750,267.780 199.555 C 268.298 199.071,268.014 199.133,266.600 199.814 M39.189 200.821 C 38.947 201.272,38.806 201.914,38.875 202.246 C 38.944 202.579,39.198 202.209,39.440 201.425 C 39.935 199.823,39.842 199.600,39.189 200.821 M165.244 201.244 C 164.998 201.951,164.866 202.600,164.952 202.685 C 165.038 202.771,165.309 202.262,165.556 201.556 C 165.802 200.849,165.934 200.200,165.848 200.115 C 165.762 200.029,165.491 200.538,165.244 201.244 M278.031 202.100 C 276.346 204.100,276.334 204.133,277.764 202.800 C 279.051 201.600,280.280 200.000,279.914 200.000 C 279.851 200.000,279.004 200.945,278.031 202.100 M100.018 201.041 C 99.969 203.368,103.517 206.433,106.159 206.347 L 107.800 206.293 106.000 206.028 C 103.020 205.590,101.538 204.413,100.580 201.726 C 100.227 200.739,100.029 200.497,100.018 201.041 M256.800 200.820 C 257.803 201.121,263.480 201.329,263.167 201.053 C 263.075 200.972,261.380 200.819,259.400 200.712 C 257.420 200.606,256.250 200.654,256.800 200.820 M68.446 201.163 C 68.107 201.378,68.651 201.432,69.846 201.304 C 70.921 201.188,71.875 201.028,71.967 200.947 C 72.329 200.628,68.965 200.835,68.446 201.163 M73.478 201.982 C 75.171 203.014,75.990 204.338,76.383 206.675 C 76.649 208.262,76.714 208.370,76.753 207.287 C 76.839 204.874,74.371 201.196,72.669 201.201 C 72.411 201.202,72.775 201.554,73.478 201.982 M387.429 202.000 C 387.576 202.550,387.864 203.270,388.067 203.600 C 388.325 204.017,388.357 203.895,388.171 203.200 C 388.024 202.650,387.736 201.930,387.533 201.600 C 387.275 201.183,387.243 201.305,387.429 202.000 M65.960 202.842 C 65.322 203.526,64.800 204.276,64.800 204.509 C 64.800 204.742,64.845 204.856,64.900 204.762 C 64.955 204.668,65.620 203.918,66.378 203.096 C 67.137 202.273,67.614 201.600,67.439 201.600 C 67.264 201.600,66.599 202.159,65.960 202.842 M233.720 203.600 C 233.720 204.810,233.795 205.305,233.887 204.700 C 233.978 204.095,233.978 203.105,233.887 202.500 C 233.795 201.895,233.720 202.390,233.720 203.600 M55.266 203.551 C 54.950 203.751,55.521 203.821,56.666 203.722 C 60.137 203.423,62.537 205.369,63.207 209.026 L 63.569 211.000 63.428 209.054 C 63.139 205.039,58.186 201.700,55.266 203.551 M378.012 203.600 C 378.012 203.930,378.187 204.470,378.400 204.800 C 378.745 205.333,378.788 205.333,378.788 204.800 C 378.788 204.470,378.613 203.930,378.400 203.600 C 378.055 203.067,378.012 203.067,378.012 203.600 M25.653 205.504 C 21.007 209.923,25.251 217.647,31.394 215.951 C 33.020 215.502,35.601 213.285,35.599 212.340 C 35.598 212.043,35.246 212.376,34.816 213.081 C 33.813 214.725,31.851 215.730,29.706 215.698 C 23.677 215.607,21.853 207.612,27.207 204.741 C 27.987 204.322,28.293 204.000,27.911 204.000 C 27.538 204.000,26.522 204.677,25.653 205.504 M32.392 204.701 C 34.319 205.669,35.585 207.701,35.667 209.959 C 35.734 211.778,35.736 211.781,35.894 210.249 C 36.163 207.648,33.704 203.999,31.686 204.001 C 31.306 204.001,31.622 204.314,32.392 204.701 M52.760 205.242 C 52.122 205.926,51.600 206.686,51.600 206.931 C 51.600 207.177,51.909 206.933,52.288 206.389 C 52.666 205.845,53.341 205.091,53.788 204.713 C 54.234 204.336,54.447 204.021,54.260 204.013 C 54.074 204.006,53.399 204.559,52.760 205.242 M64.514 207.000 C 64.517 208.100,64.595 208.503,64.687 207.895 C 64.779 207.286,64.777 206.386,64.682 205.895 C 64.587 205.403,64.511 205.900,64.514 207.000 M196.400 205.556 C 196.400 205.935,198.355 207.799,198.511 207.568 C 198.574 207.476,198.124 206.916,197.512 206.326 C 196.901 205.735,196.400 205.388,196.400 205.556 M273.024 205.813 C 272.596 206.136,272.427 206.400,272.647 206.400 C 272.867 206.400,273.396 206.136,273.824 205.813 C 274.251 205.490,274.420 205.225,274.200 205.225 C 273.980 205.225,273.451 205.490,273.024 205.813 M39.200 205.939 C 39.200 209.050,46.235 210.494,48.918 207.933 L 50.200 206.709 48.888 207.739 C 46.231 209.824,42.651 209.503,40.437 206.981 C 39.757 206.206,39.200 205.737,39.200 205.939 M340.400 206.000 C 340.400 207.748,334.490 208.842,331.874 207.578 C 331.030 207.170,331.026 207.177,331.776 207.778 C 333.156 208.883,338.596 208.640,339.818 207.418 C 340.709 206.528,341.108 205.600,340.600 205.600 C 340.490 205.600,340.400 205.780,340.400 206.000 M308.344 207.576 C 309.318 208.425,314.366 208.791,315.464 208.093 C 315.719 207.930,314.502 207.862,312.759 207.941 C 310.316 208.052,309.339 207.933,308.495 207.419 L 307.400 206.753 308.344 207.576 M379.944 207.576 C 380.910 208.419,387.672 208.851,388.140 208.100 C 388.242 207.935,386.711 207.858,384.737 207.929 C 381.952 208.029,380.908 207.912,380.074 207.405 L 379.000 206.753 379.944 207.576 M153.338 208.094 C 153.592 208.256,155.510 208.388,157.600 208.388 C 159.690 208.388,161.608 208.256,161.862 208.094 C 162.116 207.932,160.198 207.800,157.600 207.800 C 155.002 207.800,153.084 207.932,153.338 208.094 M252.200 208.000 C 252.640 208.189,253.360 208.338,253.800 208.332 C 254.443 208.323,254.404 208.257,253.600 208.000 C 252.232 207.562,251.181 207.562,252.200 208.000 M266.800 208.000 C 265.996 208.257,265.957 208.323,266.600 208.332 C 267.040 208.338,267.760 208.189,268.200 208.000 C 269.219 207.562,268.168 207.562,266.800 208.000 M75.531 209.992 C 74.613 211.591,72.983 212.546,70.624 212.869 L 68.600 213.145 70.909 213.039 C 73.271 212.930,74.973 211.883,76.067 209.866 C 76.727 208.648,76.236 208.764,75.531 209.992 M64.803 209.540 C 64.799 210.241,67.359 212.801,68.060 212.797 C 68.357 212.796,68.085 212.455,67.457 212.041 C 66.828 211.626,65.974 210.772,65.559 210.143 C 65.145 209.515,64.804 209.243,64.803 209.540 M62.316 212.417 C 61.948 213.059,61.051 213.946,60.323 214.390 C 59.596 214.834,59.211 215.198,59.469 215.199 C 60.097 215.201,62.312 213.312,62.841 212.323 C 63.522 211.051,63.051 211.136,62.316 212.417 M51.615 211.800 C 51.617 212.020,51.986 212.650,52.436 213.200 C 52.979 213.864,53.115 213.931,52.840 213.400 C 52.166 212.095,51.612 211.372,51.615 211.800 M40.705 212.683 C 41.202 212.779,41.922 212.775,42.305 212.675 C 42.687 212.575,42.280 212.496,41.400 212.501 C 40.520 212.505,40.207 212.587,40.705 212.683 M37.576 213.881 C 36.065 215.153,35.181 217.053,35.247 218.887 C 35.286 219.970,35.351 219.862,35.617 218.275 C 36.010 215.938,36.829 214.614,38.522 213.582 C 39.225 213.154,39.589 212.802,39.331 212.801 C 39.073 212.801,38.283 213.287,37.576 213.881 M43.233 212.946 C 44.040 213.651,45.352 214.073,44.851 213.465 C 44.549 213.099,44.024 212.800,43.684 212.800 C 43.345 212.800,43.142 212.866,43.233 212.946 M45.609 214.137 C 45.604 214.322,45.960 214.931,46.400 215.491 C 46.840 216.050,47.196 216.349,47.191 216.154 C 47.179 215.687,45.620 213.700,45.609 214.137 M56.300 215.482 C 56.795 215.578,57.605 215.578,58.100 215.482 C 58.595 215.387,58.190 215.309,57.200 215.309 C 56.210 215.309,55.805 215.387,56.300 215.482 M67.457 217.159 C 66.179 218.002,64.806 219.884,64.803 220.800 C 64.802 221.130,65.173 220.648,65.628 219.728 C 66.209 218.555,66.955 217.809,68.128 217.228 C 69.048 216.773,69.530 216.402,69.200 216.403 C 68.870 216.404,68.085 216.745,67.457 217.159 M73.480 217.232 C 75.615 218.289,77.003 220.864,76.651 223.113 C 76.485 224.178,76.522 224.373,76.781 223.800 C 77.942 221.239,75.045 216.399,72.353 216.400 C 72.049 216.400,72.556 216.775,73.480 217.232 M51.287 219.100 C 50.330 220.035,50.314 220.081,51.181 219.406 C 52.888 218.076,52.969 218.000,52.686 218.000 C 52.536 218.000,51.906 218.495,51.287 219.100 M58.747 219.033 C 59.488 219.637,60.336 220.687,60.631 221.366 C 60.927 222.045,61.176 222.299,61.184 221.931 C 61.204 221.109,59.422 218.934,58.257 218.359 C 57.786 218.126,58.006 218.429,58.747 219.033 M35.612 220.706 C 35.605 220.984,36.185 221.802,36.900 222.524 C 37.615 223.246,37.819 223.379,37.354 222.819 C 36.888 222.258,36.308 221.440,36.066 221.000 C 35.823 220.560,35.619 220.428,35.612 220.706 M49.438 221.138 C 48.222 223.106,49.448 227.429,51.600 228.761 C 52.430 229.275,52.378 229.146,51.290 228.004 C 49.599 226.228,48.986 224.237,49.528 222.277 C 49.918 220.862,49.884 220.418,49.438 221.138 M45.009 223.313 C 44.079 224.005,43.273 224.200,41.347 224.200 C 39.988 224.200,39.084 224.332,39.338 224.494 C 40.685 225.351,44.837 224.401,46.031 222.963 C 46.680 222.181,46.399 222.277,45.009 223.313 M60.650 225.741 C 60.494 226.366,59.788 227.430,59.083 228.107 C 58.068 229.081,58.009 229.209,58.800 228.723 C 59.962 228.009,61.345 225.836,61.102 225.107 C 61.010 224.831,60.807 225.117,60.650 225.741 M65.200 225.140 C 65.200 225.898,68.331 228.298,69.642 228.544 C 71.985 228.984,76.400 226.738,76.400 225.108 C 76.400 224.923,75.844 225.406,75.163 226.181 C 73.622 227.936,71.451 228.606,69.237 228.010 C 68.300 227.758,67.177 227.024,66.437 226.181 C 65.756 225.406,65.200 224.937,65.200 225.140 M53.929 229.751 C 54.694 229.971,55.706 229.971,56.471 229.751 C 57.568 229.437,57.393 229.387,55.200 229.387 C 53.007 229.387,52.832 229.437,53.929 229.751 " stroke="none" fill="#c2c0c1" fill-rule="evenodd"></path></g></svg>
