<?xml version="1.0" standalone="no"?>
<!DOCTYPE svg PUBLIC "-//W3C//DTD SVG 20010904//EN"
 "http://www.w3.org/TR/2001/REC-SVG-20010904/DTD/svg10.dtd">
<svg version="1.0" xmlns="http://www.w3.org/2000/svg"
 width="239.000000pt" height="211.000000pt" viewBox="0 0 239.000000 211.000000"
 preserveAspectRatio="xMidYMid meet">
<metadata>
Created by potrace 1.13, written by Peter Selinger 2001-2015
</metadata>
<g transform="translate(0.000000,211.000000) scale(0.100000,-0.100000)"
fill="#000000" stroke="none">
<path d="M780 1257 c0 -7 29 -96 65 -197 36 -101 65 -185 65 -188 0 -2 15 -2
33 0 l32 3 62 180 c35 99 66 188 69 198 4 13 0 17 -19 17 -24 0 -29 -11 -82
-171 -32 -94 -61 -167 -65 -162 -4 4 -32 81 -61 171 -48 146 -56 162 -76 162
-13 0 -23 -6 -23 -13z"/>
<path d="M1180 1070 l0 -200 105 0 c98 0 105 1 105 20 0 18 -7 20 -80 20 l-80
0 0 75 0 75 70 0 c56 0 70 3 70 15 0 12 -14 15 -70 15 l-70 0 0 70 0 70 80 0
c73 0 80 2 80 20 0 19 -7 20 -105 20 l-105 0 0 -200z"/>
<path d="M1489 1241 c-22 -22 -29 -39 -29 -68 0 -52 21 -78 90 -113 87 -44
111 -89 70 -130 -24 -24 -92 -27 -134 -5 -36 19 -36 19 -36 -9 0 -38 82 -64
147 -47 49 13 82 48 89 93 9 54 -17 93 -85 128 -71 35 -91 54 -91 85 0 51 55
67 138 40 16 -5 22 -3 22 8 0 27 -41 47 -98 47 -46 0 -58 -4 -83 -29z"/>
<path d="M1720 1250 c0 -18 7 -20 60 -20 l60 0 0 -180 0 -180 25 0 25 0 0 180
0 180 60 0 c53 0 60 2 60 20 0 19 -7 20 -145 20 -138 0 -145 -1 -145 -20z"/>
<path d="M2120 1268 c0 -2 -31 -91 -70 -197 -38 -107 -70 -195 -70 -197 0 -2
11 -4 24 -4 19 0 27 9 42 53 l19 52 84 0 84 0 20 -52 c16 -43 24 -53 43 -53
13 0 24 3 24 8 0 4 -31 93 -69 197 -68 189 -68 190 -99 193 -18 2 -32 2 -32 0z
m64 -145 c16 -49 31 -94 33 -100 4 -10 -13 -13 -66 -13 -39 0 -71 3 -71 8 0
15 64 192 70 192 3 0 19 -39 34 -87z"/>
</g>
</svg>
