<?xml version="1.0" standalone="no"?>
<!DOCTYPE svg PUBLIC "-//W3C//DTD SVG 20010904//EN"
 "http://www.w3.org/TR/2001/REC-SVG-20010904/DTD/svg10.dtd">
<svg id="svg" version="1.1" width="1000" height="401" xmlns="http://www.w3.org/2000/svg" xmlns:xlink="http://www.w3.org/1999/xlink" style="display: block;"><g id="svgg"><path id="path0" d="M0.000 80.200 L 0.000 160.400 200.000 160.400 L 400.000 160.400 400.000 80.200 L 400.000 0.000 200.000 0.000 L 0.000 0.000 0.000 80.200 M63.085 27.298 C 66.940 31.153,64.315 37.356,58.815 37.387 C 54.923 37.410,52.516 34.699,52.898 30.725 C 53.366 25.848,59.554 23.767,63.085 27.298 M79.352 26.825 C 83.992 29.562,83.184 36.078,77.991 37.803 C 73.205 39.393,68.496 34.043,70.822 29.660 C 72.663 26.191,76.255 24.997,79.352 26.825 M43.504 29.172 C 50.158 31.081,48.486 40.789,41.501 40.797 C 34.804 40.805,33.374 30.090,39.938 29.083 C 41.860 28.788,42.192 28.796,43.504 29.172 M94.346 33.077 C 99.216 36.610,96.850 44.000,90.849 44.000 C 84.122 44.000,82.437 35.421,88.600 32.547 C 90.145 31.827,92.983 32.089,94.346 33.077 M30.263 40.621 C 33.924 43.414,33.662 48.289,29.722 50.675 C 24.982 53.544,19.010 48.690,21.040 43.618 C 22.573 39.786,27.198 38.283,30.263 40.621 M64.199 42.627 C 68.891 46.205,66.268 53.191,60.231 53.197 C 57.944 53.200,57.804 53.138,56.131 51.393 C 50.953 45.988,58.234 38.077,64.199 42.627 M79.241 42.501 C 81.313 43.874,82.567 46.696,82.015 48.746 C 80.119 55.786,70.003 54.821,70.003 47.600 C 70.003 42.855,75.334 39.912,79.241 42.501 M106.882 44.016 C 111.622 45.332,112.281 52.615,107.876 54.987 C 105.609 56.208,102.214 55.701,100.558 53.894 C 96.234 49.176,100.646 42.284,106.882 44.016 M49.631 45.310 C 51.530 46.589,52.804 48.632,52.781 50.359 C 52.685 57.565,42.146 58.757,40.625 51.733 C 39.548 46.759,45.491 42.520,49.631 45.310 M267.636 46.826 C 276.914 48.000,280.400 50.347,280.400 55.418 C 280.400 58.597,279.118 61.085,278.225 59.640 C 278.105 59.447,277.513 59.164,276.908 59.013 C 276.303 58.861,275.716 58.616,275.604 58.468 C 275.385 58.180,273.662 57.346,270.838 56.161 C 266.340 54.275,258.612 55.312,255.941 58.160 C 250.996 63.433,254.050 70.224,263.400 74.744 C 270.513 78.183,273.848 79.894,275.633 81.021 C 277.598 82.261,281.090 85.712,281.625 86.942 C 281.830 87.414,282.164 88.070,282.366 88.400 C 283.853 90.827,284.076 92.102,283.931 97.341 C 283.850 100.233,283.589 102.960,283.349 103.400 C 283.110 103.840,282.591 104.830,282.195 105.600 C 280.258 109.373,274.848 114.400,272.726 114.400 C 272.415 114.400,271.958 114.602,271.712 114.848 C 271.466 115.094,270.485 115.462,269.532 115.666 C 268.579 115.870,267.080 116.201,266.200 116.401 C 264.139 116.870,257.866 116.871,255.800 116.402 C 254.920 116.202,253.354 115.857,252.320 115.635 C 251.286 115.413,250.116 115.066,249.720 114.863 C 249.324 114.661,248.190 114.122,247.200 113.666 C 243.034 111.745,241.654 109.204,242.454 104.922 C 242.976 102.126,243.921 101.781,246.600 103.405 C 260.257 111.685,273.964 108.755,273.994 97.549 C 274.004 93.700,271.639 90.152,267.692 88.095 C 266.794 87.626,265.730 87.065,265.329 86.848 C 264.928 86.630,262.260 85.325,259.400 83.949 C 251.635 80.211,248.269 77.497,245.694 72.895 C 243.259 68.545,243.252 61.812,245.678 56.503 C 246.573 54.544,250.214 50.400,251.040 50.400 C 251.348 50.400,251.600 50.259,251.600 50.088 C 251.600 49.795,252.093 49.547,255.600 48.082 C 256.713 47.617,260.674 46.833,263.836 46.453 C 264.076 46.424,265.786 46.592,267.636 46.826 M138.355 47.576 C 138.741 47.782,139.377 48.727,139.769 49.676 C 140.160 50.624,140.733 51.991,141.040 52.714 C 141.348 53.436,141.600 54.360,141.600 54.768 C 141.600 55.175,141.869 56.024,142.198 56.654 C 142.526 57.284,142.796 58.079,142.798 58.420 C 142.799 58.761,142.943 59.211,143.118 59.420 C 143.293 59.629,143.762 60.880,144.160 62.200 C 144.559 63.520,145.069 65.050,145.294 65.600 C 145.519 66.150,145.844 67.140,146.017 67.800 C 146.384 69.210,147.117 71.293,147.866 73.060 C 148.160 73.754,148.400 74.663,148.400 75.080 C 148.400 75.498,148.558 76.011,148.751 76.220 C 148.945 76.429,149.513 77.950,150.013 79.600 C 150.514 81.250,151.052 82.870,151.208 83.200 C 151.594 84.014,152.398 86.337,152.800 87.800 C 153.202 89.262,153.949 91.370,154.666 93.060 C 154.960 93.754,155.200 94.663,155.200 95.080 C 155.200 95.498,155.358 96.011,155.551 96.220 C 155.745 96.429,156.308 97.950,156.804 99.600 C 157.299 101.250,157.842 102.780,158.009 103.000 C 158.177 103.220,158.394 103.760,158.493 104.200 C 158.639 104.851,158.726 104.777,158.960 103.800 C 159.119 103.140,159.417 102.287,159.624 101.905 C 159.831 101.523,160.001 100.893,160.002 100.505 C 160.004 100.117,160.274 99.284,160.602 98.654 C 160.931 98.024,161.201 97.214,161.202 96.854 C 161.204 96.494,161.474 95.684,161.802 95.054 C 162.131 94.424,162.400 93.665,162.400 93.368 C 162.400 93.070,162.651 92.236,162.958 91.514 C 163.265 90.791,164.084 88.400,164.778 86.200 C 165.471 84.000,166.210 81.887,166.419 81.505 C 166.629 81.123,166.801 80.493,166.802 80.105 C 166.804 79.717,167.074 78.884,167.402 78.254 C 167.731 77.624,168.000 76.719,168.000 76.243 C 168.000 75.767,168.245 75.023,168.545 74.589 C 168.845 74.155,169.184 73.260,169.299 72.600 C 169.513 71.375,170.113 69.588,171.066 67.340 C 171.360 66.646,171.600 65.712,171.600 65.263 C 171.600 64.814,171.764 64.346,171.965 64.222 C 172.166 64.097,172.452 63.278,172.600 62.400 C 172.748 61.522,173.034 60.703,173.235 60.578 C 173.436 60.454,173.601 59.958,173.602 59.476 C 173.604 58.994,173.874 58.084,174.202 57.454 C 174.531 56.824,174.801 56.014,174.802 55.654 C 174.804 55.294,175.074 54.484,175.402 53.854 C 175.731 53.224,176.000 52.397,176.000 52.016 C 176.000 51.187,177.078 48.878,177.921 47.900 C 178.756 46.930,185.217 46.874,186.171 47.829 C 186.941 48.598,186.976 50.063,186.266 51.740 C 185.448 53.670,184.742 55.694,184.501 56.800 C 184.382 57.350,184.040 58.155,183.742 58.589 C 183.444 59.023,183.200 59.777,183.200 60.265 C 183.200 60.753,183.036 61.254,182.835 61.378 C 182.634 61.503,182.348 62.322,182.200 63.200 C 182.052 64.078,181.766 64.897,181.565 65.022 C 181.364 65.146,181.200 65.524,181.200 65.863 C 181.200 66.202,180.960 67.046,180.666 67.740 C 179.840 69.688,179.140 71.700,178.906 72.800 C 178.789 73.350,178.564 73.980,178.407 74.200 C 178.250 74.420,177.700 75.950,177.185 77.600 C 176.671 79.250,176.103 80.771,175.925 80.980 C 175.746 81.189,175.599 81.639,175.598 81.980 C 175.596 82.321,175.326 83.116,174.998 83.746 C 174.669 84.376,174.400 85.159,174.400 85.485 C 174.400 85.812,174.160 86.646,173.866 87.340 C 173.040 89.288,172.340 91.300,172.106 92.400 C 171.989 92.950,171.764 93.580,171.607 93.800 C 171.450 94.020,170.900 95.550,170.385 97.200 C 169.871 98.850,169.303 100.371,169.125 100.580 C 168.946 100.789,168.800 101.212,168.800 101.520 C 168.800 101.827,168.560 102.646,168.266 103.340 C 167.463 105.234,166.769 107.242,166.396 108.749 C 166.212 109.491,165.868 110.292,165.631 110.529 C 165.394 110.766,165.200 111.278,165.200 111.666 C 165.200 115.391,159.874 117.487,154.497 115.878 C 152.282 115.216,151.358 113.800,150.008 109.000 C 149.588 107.508,148.835 105.392,148.134 103.740 C 147.840 103.046,147.600 102.227,147.600 101.920 C 147.600 101.612,147.457 101.189,147.282 100.980 C 147.107 100.771,146.641 99.520,146.246 98.200 C 145.851 96.880,145.290 95.260,145.000 94.600 C 144.709 93.940,144.381 93.040,144.270 92.600 C 144.013 91.578,143.219 89.356,142.534 87.740 C 142.240 87.046,142.000 86.212,142.000 85.885 C 142.000 85.559,141.731 84.776,141.402 84.146 C 141.074 83.516,140.804 82.696,140.802 82.324 C 140.801 81.952,140.620 81.536,140.400 81.400 C 140.180 81.264,140.000 80.876,140.000 80.537 C 140.000 80.198,139.760 79.354,139.466 78.660 C 138.663 76.766,137.969 74.758,137.596 73.251 C 137.412 72.509,137.068 71.708,136.831 71.471 C 136.594 71.234,136.394 70.581,136.387 70.020 C 136.380 69.459,136.110 68.651,135.787 68.224 C 135.464 67.796,135.200 67.067,135.200 66.604 C 135.200 66.140,135.042 65.589,134.849 65.380 C 134.655 65.171,134.092 63.650,133.596 62.000 C 133.101 60.350,132.563 58.820,132.401 58.600 C 132.240 58.380,132.011 57.750,131.894 57.200 C 131.660 56.100,130.960 54.088,130.134 52.140 C 129.419 50.451,129.459 48.598,130.229 47.829 C 130.947 47.110,137.125 46.918,138.355 47.576 M366.055 47.896 C 366.703 48.279,367.343 49.032,367.478 49.569 C 367.613 50.107,367.965 51.009,368.259 51.573 C 368.554 52.138,368.796 52.904,368.798 53.276 C 368.799 53.648,368.980 54.064,369.200 54.200 C 369.420 54.336,369.600 54.724,369.600 55.063 C 369.600 55.402,369.852 56.246,370.160 56.940 C 370.468 57.633,370.813 58.560,370.926 59.000 C 371.040 59.440,371.523 60.790,372.001 62.000 C 372.478 63.210,373.021 64.740,373.207 65.400 C 373.620 66.864,374.516 69.255,374.856 69.800 C 374.994 70.020,375.238 70.830,375.399 71.600 C 375.560 72.370,375.825 73.180,375.987 73.400 C 376.149 73.620,376.601 74.790,376.991 76.000 C 377.381 77.210,377.948 78.678,378.250 79.262 C 378.553 79.846,378.800 80.690,378.800 81.138 C 378.800 81.586,378.966 82.055,379.169 82.181 C 379.372 82.306,379.659 82.959,379.807 83.632 C 379.955 84.304,380.327 85.337,380.635 85.927 C 380.943 86.517,381.196 87.369,381.198 87.820 C 381.199 88.271,381.351 88.811,381.535 89.020 C 381.719 89.229,382.443 91.020,383.144 93.000 C 383.845 94.980,384.612 97.140,384.850 97.800 C 385.087 98.460,385.379 99.450,385.499 100.000 C 385.618 100.550,385.960 101.355,386.258 101.789 C 386.556 102.223,386.800 102.877,386.800 103.243 C 386.800 103.609,387.069 104.424,387.398 105.054 C 387.726 105.684,387.996 106.504,387.998 106.876 C 387.999 107.248,388.180 107.664,388.400 107.800 C 388.620 107.936,388.801 108.352,388.802 108.724 C 388.804 109.096,389.045 109.861,389.339 110.424 C 391.339 114.256,390.044 116.400,385.728 116.400 C 381.326 116.400,380.333 115.595,378.824 110.800 C 378.304 109.150,377.750 107.620,377.593 107.400 C 377.436 107.180,377.211 106.550,377.094 106.000 C 376.860 104.900,376.160 102.888,375.334 100.940 C 375.040 100.246,374.800 99.411,374.800 99.082 C 374.800 98.067,373.915 98.000,360.441 98.000 L 347.348 98.000 346.674 99.414 C 346.303 100.191,346.000 101.070,346.000 101.368 C 346.000 101.665,345.731 102.424,345.402 103.054 C 345.074 103.684,344.804 104.594,344.802 105.076 C 344.801 105.558,344.636 106.054,344.435 106.178 C 344.234 106.303,343.948 107.122,343.800 108.000 C 343.652 108.878,343.366 109.697,343.165 109.822 C 342.964 109.946,342.800 110.324,342.800 110.663 C 342.800 111.213,342.047 113.197,341.240 114.773 C 340.493 116.232,335.928 116.830,333.449 115.795 C 331.791 115.102,331.448 113.150,332.598 110.946 C 332.926 110.316,333.196 109.496,333.198 109.124 C 333.199 108.752,333.380 108.336,333.600 108.200 C 333.820 108.064,334.000 107.676,334.000 107.337 C 334.000 106.998,334.252 106.154,334.560 105.460 C 334.868 104.767,335.213 103.840,335.326 103.400 C 335.440 102.960,335.923 101.610,336.400 100.400 C 336.877 99.190,337.360 97.840,337.474 97.400 C 337.587 96.960,337.932 96.033,338.240 95.340 C 338.548 94.646,338.800 93.902,338.800 93.685 C 338.800 93.469,339.069 92.776,339.398 92.146 C 339.726 91.516,339.996 90.696,339.998 90.324 C 339.999 89.952,340.180 89.536,340.400 89.400 C 340.620 89.264,340.800 88.876,340.800 88.537 C 340.800 88.198,341.052 87.354,341.360 86.660 C 341.668 85.967,342.013 85.040,342.126 84.600 C 342.240 84.160,342.723 82.810,343.200 81.600 C 343.677 80.390,344.160 79.040,344.274 78.600 C 344.387 78.160,344.732 77.233,345.040 76.540 C 345.348 75.846,345.600 75.027,345.600 74.720 C 345.600 74.412,345.746 73.989,345.925 73.780 C 346.103 73.571,346.669 72.050,347.182 70.400 C 347.695 68.750,348.269 67.229,348.457 67.020 C 348.646 66.811,348.800 66.388,348.800 66.080 C 348.800 65.773,349.052 64.954,349.360 64.260 C 349.668 63.567,350.015 62.640,350.130 62.200 C 350.245 61.760,350.916 59.870,351.621 58.000 C 352.326 56.130,353.097 53.925,353.334 53.100 C 353.571 52.275,353.908 51.600,354.083 51.600 C 354.257 51.600,354.400 51.136,354.400 50.569 C 354.400 47.511,362.326 45.693,366.055 47.896 M232.940 48.046 C 234.767 48.878,235.037 53.848,233.342 55.419 L 232.283 56.400 219.974 56.400 C 213.204 56.400,207.381 56.509,207.033 56.643 C 206.480 56.855,206.400 58.114,206.400 66.643 L 206.400 76.400 217.771 76.400 L 229.142 76.400 229.971 77.454 C 231.164 78.971,231.138 82.454,229.925 83.584 C 229.088 84.364,228.565 84.400,218.205 84.400 C 210.303 84.400,207.230 84.530,206.880 84.880 C 206.468 85.292,206.101 106.541,206.500 106.887 C 206.555 106.934,212.718 107.069,220.195 107.187 L 233.790 107.400 234.349 108.568 C 235.084 110.102,235.054 112.240,234.272 114.100 L 233.641 115.600 216.509 115.600 C 197.735 115.600,198.276 115.667,196.998 113.196 C 196.483 112.200,196.400 107.836,196.400 81.714 C 196.400 47.683,196.275 49.166,199.242 48.123 C 201.093 47.472,231.529 47.402,232.940 48.046 M336.954 47.982 C 338.766 48.671,339.304 53.409,337.804 55.463 C 337.315 56.133,336.398 56.218,327.733 56.400 L 318.200 56.600 318.097 85.583 C 318.034 103.447,317.847 114.713,317.610 114.950 C 316.233 116.327,312.635 116.709,310.113 115.746 L 308.400 115.091 308.400 86.378 C 308.400 70.586,308.291 57.381,308.157 57.033 C 307.946 56.482,306.742 56.399,298.857 56.391 C 287.723 56.380,287.858 56.434,287.823 52.017 C 287.785 47.253,285.703 47.619,312.874 47.609 C 326.606 47.604,336.355 47.755,336.954 47.982 M92.799 49.000 C 96.644 50.988,97.224 56.655,93.843 59.200 C 90.732 61.542,86.013 60.381,84.545 56.913 C 82.378 51.794,87.924 46.478,92.799 49.000 M20.050 54.976 C 21.955 56.270,22.949 58.404,22.695 60.654 C 21.956 67.207,12.736 67.905,10.833 61.552 C 9.283 56.378,15.542 51.912,20.050 54.976 M38.001 55.007 C 42.542 57.325,41.785 64.355,36.818 65.994 C 31.159 67.862,26.392 60.733,30.355 56.328 C 32.282 54.187,35.353 53.656,38.001 55.007 M115.504 59.598 C 119.656 62.129,119.276 68.387,114.859 70.233 C 111.195 71.764,107.545 69.991,106.441 66.144 C 105.028 61.215,111.037 56.874,115.504 59.598 M360.296 59.494 C 359.913 59.917,359.600 60.708,359.600 61.251 C 359.600 61.795,359.406 62.434,359.169 62.671 C 358.932 62.908,358.588 63.709,358.404 64.451 C 358.020 66.001,357.239 68.301,356.774 69.251 C 356.598 69.609,356.332 70.556,356.182 71.355 C 356.032 72.155,355.750 72.907,355.555 73.028 C 355.360 73.149,355.200 73.524,355.200 73.863 C 355.200 74.202,354.960 75.046,354.666 75.740 C 353.977 77.364,353.220 79.483,352.787 81.000 C 352.174 83.143,350.113 88.821,349.853 89.080 C 349.065 89.868,350.603 90.000,360.600 90.000 C 368.326 90.000,371.600 89.869,371.600 89.560 C 371.600 89.319,371.360 88.554,371.066 87.860 C 370.390 86.266,369.592 84.037,369.326 83.000 C 369.213 82.560,368.868 81.633,368.560 80.940 C 368.252 80.246,368.000 79.412,368.000 79.085 C 368.000 78.759,367.731 77.976,367.402 77.346 C 367.074 76.716,366.804 75.896,366.802 75.524 C 366.801 75.152,366.634 74.745,366.431 74.619 C 366.228 74.494,365.935 73.814,365.780 73.109 C 365.625 72.403,365.365 71.550,365.203 71.213 C 364.743 70.258,363.942 67.904,363.701 66.800 C 363.582 66.250,363.240 65.445,362.942 65.011 C 362.644 64.577,362.400 63.758,362.400 63.191 C 362.400 62.624,362.201 61.961,361.957 61.717 C 361.713 61.473,361.397 60.700,361.253 59.999 C 360.999 58.756,360.975 58.743,360.296 59.494 M98.785 62.592 C 105.215 65.917,101.161 75.528,94.126 73.634 C 89.261 72.324,88.448 65.664,92.789 62.680 C 94.023 61.832,97.224 61.785,98.785 62.592 M29.250 67.376 C 34.221 70.753,31.884 78.397,25.880 78.399 C 19.797 78.402,17.747 70.389,23.000 67.144 C 24.744 66.067,27.473 66.168,29.250 67.376 M15.893 72.624 C 17.655 73.779,18.458 75.577,18.302 78.018 C 17.798 85.919,6.400 85.429,6.400 77.507 C 6.400 73.063,12.093 70.135,15.893 72.624 M117.104 74.398 C 122.281 77.555,119.994 85.600,113.919 85.600 C 108.857 85.600,106.103 79.870,109.200 75.783 C 110.909 73.527,114.612 72.879,117.104 74.398 M102.649 78.825 C 107.424 83.218,103.729 90.746,97.472 89.372 C 91.837 88.134,91.107 80.431,96.387 77.907 C 97.749 77.255,101.548 77.812,102.649 78.825 M32.233 82.020 C 38.093 85.642,34.614 94.305,27.812 93.029 C 23.636 92.245,21.623 86.660,24.357 83.443 C 26.304 81.151,29.803 80.519,32.233 82.020 M18.870 87.789 C 21.818 89.793,22.326 93.889,19.960 96.584 C 15.200 102.006,6.745 96.381,10.016 89.968 C 11.642 86.781,15.859 85.743,18.870 87.789 M115.206 89.541 C 119.345 91.740,119.509 97.511,115.504 100.026 C 113.832 101.075,110.279 100.947,108.722 99.780 C 102.782 95.330,108.653 86.058,115.206 89.541 M97.614 93.610 C 101.759 96.562,100.540 102.776,95.500 104.384 C 91.855 105.546,87.996 102.426,88.003 98.320 C 88.010 93.588,93.681 90.809,97.614 93.610 M35.919 95.559 C 38.917 97.088,40.104 101.318,38.299 104.041 C 34.850 109.246,27.200 107.046,27.200 100.849 C 27.200 96.216,31.771 93.443,35.919 95.559 M83.606 98.741 C 86.450 100.252,87.673 103.961,86.238 106.720 C 83.271 112.423,74.800 110.319,74.800 103.879 C 74.800 100.741,77.597 98.000,80.800 98.000 C 81.577 98.000,82.840 98.333,83.606 98.741 M22.831 102.510 C 26.458 104.953,27.046 108.860,24.250 111.935 C 19.663 116.980,11.298 111.281,14.391 105.218 C 16.108 101.852,20.001 100.602,22.831 102.510 M110.147 102.933 C 115.688 107.159,110.744 116.114,104.349 113.435 C 100.755 111.929,99.293 107.761,101.310 104.769 C 103.548 101.446,107.203 100.687,110.147 102.933 M47.774 105.606 C 54.157 108.768,50.443 118.643,43.567 116.791 C 38.055 115.307,37.409 107.672,42.600 105.365 C 44.310 104.605,45.903 104.679,47.774 105.606 M73.946 109.493 C 77.753 112.312,77.719 117.247,73.874 119.740 C 68.762 123.055,62.549 117.436,65.300 111.986 C 66.984 108.650,71.175 107.441,73.946 109.493 M59.651 111.365 C 60.393 111.676,61.393 112.351,61.873 112.865 C 66.557 117.879,60.571 125.663,54.622 122.293 C 48.164 118.635,52.826 108.506,59.651 111.365 M33.104 112.398 C 37.886 115.313,36.421 122.548,30.869 123.435 C 26.348 124.158,22.590 119.740,24.233 115.633 C 25.722 111.912,29.843 110.410,33.104 112.398 M45.023 121.265 C 46.714 122.416,47.600 124.187,47.600 126.413 C 47.600 131.605,41.033 134.260,37.413 130.532 C 32.323 125.291,38.996 117.164,45.023 121.265 M74.071 124.711 C 78.211 127.442,77.998 133.168,73.679 135.259 C 66.771 138.603,61.475 128.967,67.894 124.735 C 69.352 123.773,72.630 123.761,74.071 124.711 M57.726 125.649 C 62.950 128.333,62.486 135.174,56.950 137.091 C 54.029 138.102,50.013 135.726,49.435 132.644 C 48.530 127.821,53.611 123.534,57.726 125.649 " stroke="none" fill="#fefefe" fill-rule="evenodd"></path><path id="path1" d="M259.600 48.062 C 258.830 48.271,257.511 48.591,256.668 48.773 C 255.825 48.955,254.934 49.306,254.688 49.552 C 254.442 49.798,253.994 50.000,253.693 50.000 C 252.955 50.000,250.492 51.844,248.907 53.582 C 243.700 59.293,243.751 70.252,249.011 75.925 C 249.555 76.512,250.000 77.129,250.000 77.296 C 250.000 77.463,250.255 77.600,250.567 77.600 C 250.878 77.600,251.193 77.749,251.267 77.932 C 251.463 78.421,255.710 81.200,256.261 81.200 C 256.521 81.200,256.793 81.335,256.867 81.500 C 256.990 81.777,258.019 82.303,265.200 85.751 C 266.630 86.438,267.860 87.135,267.933 87.300 C 268.007 87.465,268.303 87.600,268.592 87.600 C 268.882 87.600,269.973 88.365,271.017 89.299 C 278.784 96.251,275.110 107.155,264.386 108.976 C 261.376 109.488,254.727 108.887,253.866 108.026 C 253.632 107.792,253.141 107.600,252.776 107.600 C 252.088 107.600,248.583 105.831,245.838 104.098 C 243.835 102.833,243.200 103.463,243.200 106.715 C 243.200 109.576,245.521 112.800,247.582 112.800 C 247.762 112.800,248.424 113.069,249.054 113.398 C 249.684 113.726,250.515 113.996,250.900 113.998 C 251.285 113.999,251.600 114.147,251.600 114.326 C 251.600 115.979,266.167 116.057,270.200 114.426 C 274.774 112.576,280.000 108.816,280.000 107.374 C 280.000 107.095,280.143 106.807,280.318 106.733 C 280.884 106.496,282.400 103.204,282.400 102.211 C 282.400 101.681,282.580 101.136,282.800 101.000 C 283.025 100.861,283.200 98.937,283.200 96.600 C 283.200 94.263,283.025 92.339,282.800 92.200 C 282.580 92.064,282.400 91.445,282.400 90.825 C 282.400 90.205,282.130 89.474,281.800 89.200 C 281.470 88.926,281.200 88.428,281.200 88.094 C 281.200 87.395,276.175 82.349,274.673 81.540 C 274.122 81.243,271.360 79.861,268.536 78.469 C 265.711 77.078,263.130 75.772,262.800 75.568 C 262.470 75.365,261.773 75.015,261.251 74.790 C 256.055 72.557,252.800 68.267,252.800 63.650 C 252.800 61.692,252.973 60.754,253.400 60.400 C 253.730 60.126,254.000 59.630,254.000 59.298 C 254.000 58.780,255.490 57.193,257.285 55.800 C 259.478 54.097,265.636 53.503,269.325 54.639 C 271.502 55.309,276.457 57.537,276.800 58.000 C 277.428 58.847,278.860 58.695,279.222 57.742 C 280.862 53.428,278.259 50.085,272.200 48.723 C 271.320 48.525,269.880 48.199,269.000 47.999 C 266.949 47.532,261.415 47.569,259.600 48.062 M131.500 48.465 C 130.401 48.866,129.996 50.103,130.800 50.600 C 131.020 50.736,131.201 51.242,131.202 51.724 C 131.204 52.206,131.474 53.116,131.802 53.746 C 132.131 54.376,132.406 55.276,132.413 55.746 C 132.420 56.216,132.690 56.949,133.013 57.376 C 133.336 57.804,133.600 58.534,133.600 59.000 C 133.600 59.466,133.864 60.196,134.187 60.624 C 134.510 61.051,134.786 61.850,134.800 62.400 C 134.814 62.950,135.090 63.749,135.413 64.176 C 135.736 64.604,136.000 65.258,136.000 65.631 C 136.000 66.004,136.269 66.824,136.598 67.454 C 136.926 68.084,137.196 68.904,137.198 69.276 C 137.199 69.648,137.359 70.051,137.554 70.171 C 137.749 70.292,137.998 70.887,138.109 71.495 C 138.219 72.103,138.706 73.590,139.189 74.800 C 139.673 76.010,140.218 77.540,140.399 78.200 C 140.803 79.664,141.551 81.773,142.266 83.460 C 142.560 84.154,142.800 84.998,142.800 85.337 C 142.800 85.676,142.980 86.064,143.200 86.200 C 143.420 86.336,143.600 86.852,143.600 87.347 C 143.600 87.842,143.864 88.596,144.187 89.024 C 144.510 89.451,144.780 90.261,144.787 90.824 C 144.794 91.386,145.064 92.196,145.387 92.624 C 145.710 93.051,145.986 93.850,146.000 94.400 C 146.014 94.950,146.290 95.749,146.613 96.176 C 146.936 96.604,147.206 97.414,147.213 97.976 C 147.220 98.539,147.490 99.349,147.813 99.776 C 148.136 100.204,148.400 100.858,148.400 101.231 C 148.400 101.604,148.669 102.424,148.998 103.054 C 149.326 103.684,149.596 104.504,149.598 104.876 C 149.599 105.248,149.780 105.664,150.000 105.800 C 150.220 105.936,150.401 106.352,150.402 106.724 C 150.404 107.096,150.674 107.916,151.002 108.546 C 151.331 109.176,151.600 109.892,151.600 110.138 C 151.600 110.384,151.986 111.515,152.457 112.652 L 153.314 114.719 155.844 114.990 C 158.782 115.305,162.680 114.909,163.102 114.253 C 163.451 113.711,164.370 111.319,164.660 110.200 C 164.774 109.760,165.027 109.040,165.222 108.600 C 165.417 108.160,165.964 106.630,166.438 105.200 C 166.911 103.770,167.456 102.429,167.649 102.220 C 167.842 102.011,168.000 101.498,168.000 101.080 C 168.000 100.663,168.240 99.754,168.534 99.060 C 169.210 97.466,170.008 95.237,170.274 94.200 C 170.387 93.760,170.732 92.833,171.040 92.140 C 171.348 91.446,171.600 90.702,171.600 90.485 C 171.600 90.269,171.869 89.576,172.198 88.946 C 172.526 88.316,172.796 87.395,172.798 86.900 C 172.799 86.405,172.980 86.000,173.200 86.000 C 173.420 86.000,173.601 85.595,173.602 85.100 C 173.604 84.605,173.874 83.684,174.202 83.054 C 174.531 82.424,174.801 81.614,174.802 81.254 C 174.804 80.894,175.074 80.084,175.402 79.454 C 175.731 78.824,176.000 78.004,176.000 77.631 C 176.000 77.258,176.264 76.604,176.587 76.176 C 176.910 75.749,177.186 74.950,177.200 74.400 C 177.214 73.850,177.490 73.051,177.813 72.624 C 178.136 72.196,178.400 71.442,178.400 70.947 C 178.400 70.452,178.564 69.946,178.765 69.822 C 178.966 69.697,179.252 68.878,179.400 68.000 C 179.548 67.122,179.834 66.303,180.035 66.178 C 180.236 66.054,180.400 65.676,180.400 65.337 C 180.400 64.998,180.640 64.154,180.934 63.460 C 181.752 61.530,182.458 59.506,182.699 58.400 C 182.818 57.850,183.160 57.045,183.458 56.611 C 183.756 56.177,184.000 55.523,184.000 55.157 C 184.000 54.791,184.269 53.976,184.598 53.346 C 184.926 52.716,185.196 51.795,185.198 51.300 C 185.199 50.805,185.380 50.400,185.600 50.400 C 185.820 50.400,186.000 50.069,186.000 49.664 C 186.000 47.244,178.301 47.502,177.760 49.940 C 177.631 50.523,177.272 51.567,176.962 52.260 C 176.653 52.954,176.400 53.888,176.400 54.337 C 176.400 54.786,176.236 55.254,176.035 55.378 C 175.834 55.503,175.548 56.323,175.400 57.202 C 175.251 58.081,174.966 58.800,174.765 58.800 C 174.564 58.800,174.400 59.306,174.400 59.924 C 174.400 60.541,174.136 61.396,173.813 61.824 C 173.490 62.251,173.220 63.163,173.213 63.851 C 173.206 64.539,172.930 65.326,172.600 65.600 C 172.270 65.874,171.994 66.661,171.987 67.349 C 171.980 68.037,171.710 68.949,171.387 69.376 C 171.064 69.804,170.794 70.614,170.787 71.176 C 170.780 71.739,170.510 72.549,170.187 72.976 C 169.864 73.404,169.600 74.248,169.600 74.853 C 169.600 75.458,169.440 76.051,169.245 76.172 C 169.050 76.293,168.768 77.045,168.618 77.845 C 168.468 78.644,168.202 79.591,168.026 79.949 C 167.621 80.777,166.827 83.047,166.400 84.600 C 165.998 86.062,165.251 88.170,164.534 89.860 C 164.240 90.554,164.000 91.488,164.000 91.937 C 164.000 92.386,163.836 92.854,163.635 92.978 C 163.434 93.103,163.148 93.922,163.000 94.800 C 162.852 95.678,162.566 96.497,162.365 96.622 C 162.164 96.746,162.000 97.247,162.000 97.735 C 162.000 98.223,161.755 98.977,161.455 99.411 C 161.155 99.845,160.810 100.740,160.688 101.400 C 160.308 103.455,159.113 106.438,158.721 106.307 C 157.983 106.061,156.117 101.795,155.699 99.400 C 155.584 98.740,155.245 97.845,154.945 97.411 C 154.645 96.977,154.400 96.223,154.400 95.735 C 154.400 95.247,154.220 94.736,154.000 94.600 C 153.780 94.464,153.599 94.048,153.598 93.676 C 153.596 93.304,153.326 92.484,152.998 91.854 C 152.669 91.224,152.400 90.314,152.400 89.831 C 152.400 89.348,152.136 88.604,151.813 88.176 C 151.490 87.749,151.214 86.950,151.200 86.400 C 151.186 85.850,150.910 85.051,150.587 84.624 C 150.264 84.196,149.994 83.386,149.987 82.824 C 149.980 82.261,149.710 81.451,149.387 81.024 C 149.064 80.596,148.800 79.852,148.800 79.369 C 148.800 78.886,148.531 77.976,148.202 77.346 C 147.874 76.716,147.604 75.795,147.602 75.300 C 147.601 74.805,147.420 74.400,147.200 74.400 C 146.980 74.400,146.799 73.995,146.798 73.500 C 146.796 73.005,146.526 72.084,146.198 71.454 C 145.869 70.824,145.600 69.914,145.600 69.431 C 145.600 68.948,145.336 68.204,145.013 67.776 C 144.690 67.349,144.414 66.550,144.400 66.000 C 144.386 65.450,144.110 64.651,143.787 64.224 C 143.464 63.796,143.200 63.142,143.200 62.769 C 143.200 62.396,142.931 61.576,142.602 60.946 C 142.274 60.316,142.004 59.506,142.002 59.146 C 142.001 58.786,141.731 57.976,141.402 57.346 C 141.074 56.716,140.804 55.896,140.802 55.524 C 140.801 55.152,140.620 54.736,140.400 54.600 C 140.180 54.464,139.999 53.958,139.998 53.476 C 139.996 52.994,139.726 52.084,139.398 51.454 C 139.069 50.824,138.800 50.050,138.800 49.734 C 138.800 48.362,134.044 47.536,131.500 48.465 M357.586 48.500 C 356.308 48.861,355.200 50.170,355.200 51.319 C 355.200 51.517,354.948 52.246,354.640 52.940 C 354.332 53.633,353.987 54.560,353.874 55.000 C 353.760 55.440,353.284 56.790,352.815 58.000 C 352.346 59.210,351.595 61.280,351.146 62.600 C 350.697 63.920,350.075 65.567,349.765 66.260 C 349.454 66.954,349.200 67.809,349.200 68.160 C 349.200 68.512,349.043 68.800,348.851 68.800 C 348.659 68.800,348.387 69.520,348.246 70.400 C 348.106 71.280,347.813 72.000,347.595 72.000 C 347.378 72.000,347.200 72.506,347.200 73.124 C 347.200 73.741,346.936 74.596,346.613 75.024 C 346.290 75.451,346.014 76.250,346.000 76.800 C 345.986 77.350,345.710 78.149,345.387 78.576 C 345.064 79.004,344.800 79.658,344.800 80.031 C 344.800 80.404,344.531 81.224,344.202 81.854 C 343.874 82.484,343.604 83.304,343.602 83.676 C 343.601 84.048,343.420 84.464,343.200 84.600 C 342.980 84.736,342.800 85.124,342.800 85.463 C 342.800 85.802,342.560 86.646,342.266 87.340 C 341.463 89.234,340.769 91.242,340.396 92.749 C 340.212 93.491,339.868 94.292,339.631 94.529 C 339.394 94.766,339.200 95.263,339.200 95.634 C 339.200 96.005,338.931 96.824,338.602 97.454 C 338.274 98.084,338.004 98.904,338.002 99.276 C 338.001 99.648,337.820 100.064,337.600 100.200 C 337.380 100.336,337.199 100.752,337.198 101.124 C 337.196 101.496,336.926 102.316,336.598 102.946 C 336.269 103.576,336.000 104.396,336.000 104.769 C 336.000 105.142,335.736 105.796,335.413 106.224 C 335.090 106.651,334.820 107.365,334.813 107.811 C 334.806 108.257,334.555 108.977,334.255 109.411 C 333.955 109.845,333.606 110.740,333.479 111.400 C 333.352 112.060,333.129 113.080,332.984 113.666 C 332.546 115.433,339.514 115.736,340.437 113.990 C 341.301 112.357,342.000 110.616,342.000 110.099 C 342.000 109.781,342.240 108.954,342.534 108.260 C 343.309 106.433,344.026 104.376,344.373 102.991 C 344.539 102.325,344.883 101.392,345.137 100.917 C 345.392 100.442,345.600 99.715,345.600 99.302 C 345.600 96.857,345.951 96.800,361.014 96.800 L 374.796 96.800 375.562 98.500 C 375.984 99.435,376.710 101.370,377.176 102.800 C 377.642 104.230,378.171 105.760,378.352 106.200 C 378.856 107.428,379.645 109.709,379.874 110.600 C 379.987 111.040,380.332 111.967,380.640 112.660 C 380.948 113.354,381.200 114.102,381.200 114.323 C 381.200 114.913,384.930 115.326,387.433 115.013 C 389.771 114.721,390.142 114.150,388.987 112.624 C 388.664 112.196,388.394 111.386,388.387 110.824 C 388.380 110.261,388.110 109.451,387.787 109.024 C 387.464 108.596,387.200 107.942,387.200 107.569 C 387.200 107.196,386.931 106.376,386.602 105.746 C 386.274 105.116,386.004 104.195,386.002 103.700 C 386.001 103.205,385.820 102.800,385.600 102.800 C 385.380 102.800,385.200 102.390,385.200 101.889 C 385.200 101.388,384.956 100.623,384.658 100.189 C 384.360 99.755,384.018 98.950,383.899 98.400 C 383.602 97.037,382.803 94.821,382.145 93.538 C 381.845 92.954,381.600 92.210,381.600 91.884 C 381.600 91.558,381.331 90.776,381.002 90.146 C 380.674 89.516,380.404 88.696,380.402 88.324 C 380.401 87.952,380.220 87.536,380.000 87.400 C 379.780 87.264,379.599 86.848,379.598 86.476 C 379.596 86.104,379.326 85.284,378.998 84.654 C 378.669 84.024,378.400 83.204,378.400 82.831 C 378.400 82.458,378.136 81.804,377.813 81.376 C 377.490 80.949,377.214 80.150,377.200 79.600 C 377.186 79.050,376.910 78.251,376.587 77.824 C 376.264 77.396,375.994 76.676,375.987 76.224 C 375.980 75.771,375.710 75.051,375.387 74.624 C 375.064 74.196,374.800 73.341,374.800 72.724 C 374.800 72.106,374.622 71.600,374.405 71.600 C 374.187 71.600,373.894 70.876,373.752 69.991 C 373.611 69.106,373.339 68.286,373.147 68.168 C 372.956 68.049,372.799 67.648,372.798 67.276 C 372.796 66.904,372.526 66.084,372.198 65.454 C 371.869 64.824,371.600 64.004,371.600 63.631 C 371.600 63.258,371.336 62.604,371.013 62.176 C 370.690 61.749,370.420 61.029,370.413 60.576 C 370.406 60.124,370.136 59.404,369.813 58.976 C 369.490 58.549,369.220 57.891,369.213 57.514 C 369.202 56.908,368.495 55.009,367.602 53.187 C 367.437 52.850,367.180 52.040,367.032 51.387 C 366.358 48.424,362.277 47.176,357.586 48.500 M198.700 49.357 C 198.044 49.855,198.000 51.872,198.000 81.698 L 198.000 113.508 198.986 114.154 C 200.266 114.993,232.292 115.148,233.120 114.320 C 233.966 113.474,233.738 108.902,232.826 108.414 C 232.338 108.153,227.247 108.000,219.046 108.000 C 208.199 108.000,205.987 107.905,205.720 107.429 C 205.544 107.116,205.450 101.645,205.512 95.273 L 205.623 83.687 206.512 83.449 C 207.000 83.318,212.297 83.208,218.282 83.205 L 229.164 83.200 229.426 81.803 C 229.706 80.308,229.398 78.521,228.719 77.702 C 228.402 77.321,225.577 77.200,216.984 77.200 C 209.867 77.200,205.617 77.053,205.533 76.804 C 205.460 76.586,205.490 71.681,205.600 65.904 L 205.800 55.400 218.975 55.294 C 234.606 55.169,234.904 55.059,233.161 50.060 L 232.722 48.800 216.061 48.813 C 202.841 48.823,199.255 48.935,198.700 49.357 M288.957 50.241 C 288.442 51.473,288.430 51.936,288.876 53.345 L 289.400 55.000 298.981 55.107 C 306.034 55.187,308.645 55.345,308.875 55.707 C 309.047 55.978,309.193 68.980,309.199 84.600 C 309.206 100.220,309.314 113.384,309.440 113.853 C 309.713 114.872,312.326 115.359,315.318 114.949 L 317.195 114.692 317.297 85.046 L 317.400 55.400 327.400 55.200 L 337.400 55.000 337.400 52.000 L 337.400 49.000 313.481 48.897 L 289.562 48.794 288.957 50.241 M361.817 58.300 C 361.944 58.905,362.217 59.713,362.424 60.095 C 362.631 60.477,362.800 60.989,362.800 61.234 C 362.800 61.479,363.040 62.246,363.334 62.940 C 364.160 64.888,364.860 66.900,365.094 68.000 C 365.211 68.550,365.481 69.220,365.693 69.489 C 365.905 69.757,366.226 70.567,366.404 71.289 C 366.770 72.762,367.470 74.783,368.266 76.660 C 368.560 77.354,368.800 78.121,368.800 78.366 C 368.800 78.611,368.956 79.123,369.146 79.505 C 369.630 80.475,370.408 82.748,370.804 84.349 C 370.988 85.091,371.332 85.892,371.569 86.129 C 371.806 86.366,372.000 87.028,372.000 87.600 C 372.000 88.172,372.204 88.844,372.453 89.093 C 374.024 90.664,372.910 90.817,360.710 90.706 L 349.000 90.600 348.872 89.698 C 348.801 89.201,349.026 88.229,349.372 87.536 C 349.717 86.844,350.000 85.979,350.000 85.615 C 350.000 85.251,350.264 84.604,350.587 84.176 C 350.910 83.749,351.180 82.941,351.187 82.380 C 351.194 81.819,351.394 81.166,351.631 80.929 C 351.868 80.692,352.212 79.891,352.396 79.149 C 352.768 77.645,353.552 75.323,354.003 74.387 C 354.165 74.050,354.425 73.197,354.580 72.491 C 354.735 71.786,355.028 71.106,355.231 70.981 C 355.434 70.855,355.601 70.358,355.602 69.876 C 355.604 69.394,355.874 68.484,356.202 67.854 C 356.531 67.224,356.800 66.404,356.800 66.031 C 356.800 65.658,357.064 65.004,357.387 64.576 C 357.710 64.149,357.986 63.350,358.000 62.800 C 358.014 62.250,358.290 61.451,358.613 61.024 C 358.936 60.596,359.200 59.844,359.200 59.352 C 359.200 57.364,361.430 56.467,361.817 58.300 " stroke="none" fill="#484243" fill-rule="evenodd"></path><path id="path2" d="M265.448 47.585 C 267.895 47.767,270.268 48.115,270.722 48.358 C 271.176 48.601,271.910 48.800,272.353 48.800 C 274.416 48.800,278.708 51.351,279.162 52.846 C 280.323 56.677,278.602 60.433,276.800 58.000 C 276.457 57.537,271.502 55.309,269.325 54.639 C 265.636 53.503,259.478 54.097,257.285 55.800 C 255.777 56.971,254.000 58.742,254.000 59.074 C 254.000 59.282,254.856 58.628,255.903 57.619 C 260.244 53.435,267.530 53.432,275.200 57.613 C 279.000 59.685,280.000 59.256,280.000 55.557 C 280.000 50.382,275.332 47.741,265.600 47.410 L 261.000 47.253 265.448 47.585 M130.900 48.012 C 129.603 48.534,129.775 50.124,131.613 54.600 C 131.794 55.040,132.030 55.670,132.139 56.000 C 132.267 56.388,132.348 56.298,132.368 55.746 C 132.386 55.276,132.131 54.376,131.802 53.746 C 131.474 53.116,131.204 52.206,131.202 51.724 C 131.201 51.242,131.020 50.736,130.800 50.600 C 129.938 50.067,130.413 48.874,131.660 48.439 C 134.257 47.534,138.800 48.357,138.800 49.734 C 138.800 50.050,139.069 50.824,139.398 51.454 C 139.726 52.084,139.996 52.994,139.998 53.476 C 139.999 53.958,140.180 54.464,140.400 54.600 C 140.620 54.736,140.801 55.152,140.802 55.524 C 140.804 55.896,141.074 56.716,141.402 57.346 C 141.731 57.976,142.001 58.786,142.002 59.146 C 142.004 59.506,142.274 60.316,142.602 60.946 C 142.931 61.576,143.200 62.396,143.200 62.769 C 143.200 63.142,143.485 63.796,143.833 64.224 C 144.456 64.989,144.462 64.989,144.204 64.200 C 139.997 51.325,139.069 48.907,138.035 48.113 C 137.296 47.545,132.239 47.474,130.900 48.012 M178.266 48.500 C 177.773 48.995,177.051 50.480,176.661 51.800 C 176.272 53.120,175.784 54.513,175.577 54.895 C 175.369 55.277,175.200 55.855,175.200 56.181 C 175.200 56.507,174.954 57.364,174.652 58.086 C 173.936 59.803,173.208 61.904,172.811 63.400 C 172.636 64.060,172.348 64.960,172.171 65.400 C 171.886 66.112,171.925 66.140,172.525 65.651 C 172.896 65.349,173.206 64.539,173.213 63.851 C 173.220 63.163,173.490 62.251,173.813 61.824 C 174.136 61.396,174.400 60.541,174.400 59.924 C 174.400 59.306,174.564 58.800,174.765 58.800 C 174.966 58.800,175.251 58.081,175.400 57.202 C 175.548 56.323,175.834 55.503,176.035 55.378 C 176.236 55.254,176.400 54.786,176.400 54.337 C 176.400 53.888,176.653 52.954,176.962 52.260 C 177.272 51.567,177.631 50.523,177.760 49.940 C 178.301 47.502,186.000 47.244,186.000 49.664 C 186.000 50.069,185.820 50.400,185.600 50.400 C 185.380 50.400,185.199 50.805,185.198 51.300 C 185.196 51.795,184.926 52.716,184.598 53.346 C 184.269 53.976,184.000 54.791,184.000 55.157 C 184.000 55.523,183.756 56.177,183.458 56.611 C 183.160 57.045,182.818 57.850,182.699 58.400 C 182.458 59.506,181.752 61.530,180.934 63.460 C 180.640 64.154,180.400 64.998,180.400 65.337 C 180.400 65.676,180.236 66.054,180.035 66.178 C 179.834 66.303,179.548 67.122,179.400 68.000 C 179.252 68.878,178.966 69.697,178.765 69.822 C 178.564 69.946,178.400 70.427,178.400 70.890 C 178.400 72.407,180.108 67.984,183.996 56.400 C 184.254 55.630,184.612 54.640,184.791 54.200 C 187.228 48.195,186.977 47.600,182.008 47.600 C 179.591 47.600,179.029 47.735,178.266 48.500 M256.600 48.252 C 242.154 53.293,239.871 70.886,252.536 79.562 C 254.623 80.991,262.795 85.291,264.384 85.795 C 275.998 89.481,278.257 102.529,268.131 107.444 C 265.140 108.896,258.017 109.108,254.600 107.847 C 251.571 106.730,246.703 104.281,245.462 103.251 C 243.730 101.814,242.514 104.080,242.894 108.036 C 243.170 110.914,244.443 112.022,250.200 114.398 C 266.364 121.068,283.693 111.708,283.570 96.374 C 283.541 92.891,282.514 87.931,282.430 90.876 C 282.414 91.468,282.580 92.064,282.800 92.200 C 283.025 92.339,283.200 94.263,283.200 96.600 C 283.200 98.937,283.025 100.861,282.800 101.000 C 282.580 101.136,282.400 101.681,282.400 102.211 C 282.400 103.204,280.884 106.496,280.318 106.733 C 280.143 106.807,280.000 107.095,280.000 107.374 C 280.000 108.816,274.774 112.576,270.200 114.426 C 266.167 116.057,251.600 115.979,251.600 114.326 C 251.600 114.147,251.285 113.999,250.900 113.998 C 250.515 113.996,249.684 113.726,249.054 113.398 C 248.424 113.069,247.762 112.800,247.582 112.800 C 245.521 112.800,243.200 109.576,243.200 106.715 C 243.200 103.463,243.835 102.833,245.838 104.098 C 248.583 105.831,252.088 107.600,252.776 107.600 C 253.141 107.600,253.632 107.792,253.866 108.026 C 254.727 108.887,261.376 109.488,264.386 108.976 C 275.110 107.155,278.784 96.251,271.017 89.299 C 269.973 88.365,268.882 87.600,268.592 87.600 C 268.303 87.600,268.007 87.465,267.933 87.300 C 267.860 87.135,266.585 86.415,265.100 85.700 C 263.615 84.985,261.185 83.815,259.700 83.100 C 258.215 82.385,256.940 81.665,256.867 81.500 C 256.793 81.335,256.521 81.200,256.261 81.200 C 255.710 81.200,251.463 78.421,251.267 77.932 C 251.193 77.749,250.878 77.600,250.567 77.600 C 250.255 77.600,250.000 77.463,250.000 77.296 C 250.000 77.129,249.555 76.512,249.011 75.925 C 243.751 70.252,243.700 59.293,248.907 53.582 C 250.492 51.844,252.955 50.000,253.693 50.000 C 253.994 50.000,254.442 49.798,254.688 49.552 C 254.934 49.306,255.825 48.955,256.668 48.773 C 257.511 48.591,258.830 48.271,259.600 48.062 L 261.000 47.682 259.600 47.688 C 258.830 47.691,257.480 47.945,256.600 48.252 M356.570 48.353 C 355.614 48.936,355.141 49.713,354.439 51.851 C 353.943 53.363,353.282 55.167,352.969 55.860 C 352.656 56.554,352.400 57.321,352.400 57.566 C 352.400 57.811,352.230 58.323,352.021 58.705 C 351.813 59.087,351.281 60.480,350.840 61.800 C 350.399 63.120,349.656 65.190,349.189 66.400 C 348.722 67.610,348.192 69.050,348.012 69.600 C 347.831 70.150,347.555 70.915,347.399 71.300 C 347.231 71.714,347.294 72.000,347.552 72.000 C 347.793 72.000,348.106 71.280,348.246 70.400 C 348.387 69.520,348.659 68.800,348.851 68.800 C 349.043 68.800,349.200 68.512,349.200 68.160 C 349.200 67.809,349.454 66.954,349.765 66.260 C 350.075 65.567,350.697 63.920,351.146 62.600 C 351.595 61.280,352.346 59.210,352.815 58.000 C 353.284 56.790,353.760 55.440,353.874 55.000 C 353.987 54.560,354.332 53.633,354.640 52.940 C 354.948 52.246,355.200 51.517,355.200 51.319 C 355.200 46.761,365.994 46.823,367.032 51.387 C 367.180 52.040,367.437 52.850,367.602 53.187 C 368.495 55.009,369.202 56.908,369.213 57.514 C 369.220 57.891,369.490 58.549,369.813 58.976 C 370.136 59.404,370.406 60.124,370.413 60.576 C 370.420 61.029,370.690 61.749,371.013 62.176 C 371.658 63.029,371.816 62.400,371.235 61.295 C 371.034 60.913,370.301 58.980,369.607 57.000 C 368.913 55.020,368.098 52.770,367.796 52.000 C 367.494 51.230,367.139 50.212,367.008 49.739 C 366.431 47.649,359.281 46.700,356.570 48.353 M198.344 49.165 L 197.400 49.929 197.400 81.788 L 197.400 113.646 198.400 114.414 C 199.802 115.491,232.306 115.637,233.371 114.571 C 234.269 113.674,234.367 109.144,233.512 108.100 C 233.199 107.718,229.973 107.600,219.883 107.600 C 207.860 107.600,206.591 107.537,205.873 106.900 C 205.107 106.221,205.098 106.227,205.556 107.100 L 206.028 108.000 219.040 108.000 C 227.245 108.000,232.338 108.153,232.826 108.414 C 233.738 108.902,233.966 113.474,233.120 114.320 C 232.292 115.148,200.266 114.993,198.986 114.154 L 198.000 113.508 198.000 81.698 C 198.000 51.872,198.044 49.855,198.700 49.357 C 199.255 48.935,202.841 48.823,216.061 48.813 L 232.722 48.800 233.161 50.060 C 234.904 55.059,234.606 55.169,218.975 55.294 L 205.800 55.400 205.786 65.600 L 205.772 75.800 205.986 65.800 L 206.200 55.800 219.494 55.695 L 232.789 55.589 233.449 54.582 C 234.184 53.460,234.008 49.974,233.165 48.958 C 232.334 47.957,199.595 48.152,198.344 49.165 M288.880 48.880 C 288.616 49.144,288.407 49.819,288.416 50.380 C 288.430 51.347,288.461 51.332,288.998 50.097 L 289.564 48.794 313.482 48.897 L 337.400 49.000 337.400 52.000 L 337.400 55.000 327.400 55.200 L 317.400 55.400 317.297 85.046 L 317.195 114.692 315.318 114.949 C 312.326 115.359,309.713 114.872,309.440 113.853 C 309.314 113.384,309.206 100.220,309.199 84.600 C 309.193 68.980,309.047 55.978,308.875 55.707 C 308.645 55.345,306.034 55.187,298.981 55.107 L 289.400 55.000 288.923 53.600 L 288.445 52.200 288.423 53.486 C 288.388 55.479,288.999 55.600,299.131 55.600 C 307.136 55.600,308.346 55.681,308.557 56.233 C 308.691 56.581,308.800 69.883,308.800 85.794 L 308.800 114.722 310.060 115.161 C 311.404 115.629,314.231 115.670,316.200 115.249 L 317.400 114.992 317.600 85.396 L 317.800 55.800 327.368 55.693 C 333.606 55.623,337.121 55.432,337.468 55.144 C 338.153 54.575,338.195 49.555,337.520 48.880 C 336.827 48.187,289.573 48.187,288.880 48.880 M132.609 57.400 C 132.760 57.840,133.042 58.740,133.236 59.400 C 133.429 60.060,133.744 60.960,133.934 61.400 C 134.309 62.266,134.737 63.476,136.200 67.800 C 136.722 69.340,137.980 72.940,138.996 75.800 C 140.013 78.660,141.272 82.260,141.794 83.800 C 142.316 85.340,143.578 88.940,144.597 91.800 C 145.617 94.660,146.608 97.540,146.801 98.200 C 146.993 98.860,147.800 101.200,148.593 103.400 C 149.387 105.600,150.429 108.570,150.908 110.000 C 152.648 115.190,152.987 115.462,157.800 115.548 C 163.483 115.650,163.411 115.718,166.158 107.600 C 166.939 105.290,168.402 101.060,169.407 98.200 C 173.015 87.942,173.419 86.604,172.198 88.946 C 171.869 89.576,171.600 90.269,171.600 90.485 C 171.600 90.702,171.360 91.446,171.066 92.140 C 170.390 93.734,169.592 95.963,169.326 97.000 C 169.213 97.440,168.868 98.367,168.560 99.060 C 168.252 99.754,168.000 100.663,168.000 101.080 C 168.000 101.498,167.842 102.011,167.649 102.220 C 167.456 102.429,166.911 103.770,166.438 105.200 C 165.964 106.630,165.417 108.160,165.222 108.600 C 165.027 109.040,164.774 109.760,164.660 110.200 C 164.370 111.319,163.451 113.711,163.102 114.253 C 162.680 114.909,158.782 115.305,155.844 114.990 L 153.314 114.719 152.457 112.652 C 151.986 111.515,151.600 110.384,151.600 110.138 C 151.600 109.892,151.331 109.176,151.002 108.546 C 150.674 107.916,150.404 107.096,150.402 106.724 C 150.401 106.352,150.220 105.936,150.000 105.800 C 149.780 105.664,149.599 105.248,149.598 104.876 C 149.596 104.504,149.326 103.684,148.998 103.054 C 148.669 102.424,148.400 101.604,148.400 101.231 C 148.400 100.858,148.136 100.204,147.813 99.776 C 147.490 99.349,147.220 98.539,147.213 97.976 C 147.206 97.414,146.936 96.604,146.613 96.176 C 146.290 95.749,146.014 94.950,146.000 94.400 C 145.986 93.850,145.710 93.051,145.387 92.624 C 145.064 92.196,144.794 91.386,144.787 90.824 C 144.780 90.261,144.510 89.451,144.187 89.024 C 143.864 88.596,143.600 87.842,143.600 87.347 C 143.600 86.852,143.420 86.336,143.200 86.200 C 142.980 86.064,142.800 85.676,142.800 85.337 C 142.800 84.998,142.560 84.154,142.266 83.460 C 141.551 81.773,140.803 79.664,140.399 78.200 C 140.218 77.540,139.673 76.010,139.189 74.800 C 138.706 73.590,138.219 72.103,138.109 71.495 C 137.998 70.887,137.749 70.292,137.554 70.171 C 137.359 70.051,137.199 69.648,137.198 69.276 C 137.196 68.904,136.926 68.084,136.598 67.454 C 136.269 66.824,136.000 66.004,136.000 65.631 C 136.000 65.258,135.736 64.604,135.413 64.176 C 135.090 63.749,134.814 62.950,134.800 62.400 C 134.786 61.850,134.510 61.051,134.187 60.624 C 133.864 60.196,133.600 59.466,133.600 59.000 C 133.600 58.534,133.315 57.804,132.967 57.376 C 132.344 56.611,132.339 56.611,132.609 57.400 M359.829 57.829 C 359.483 58.174,359.211 58.849,359.225 59.329 C 359.250 60.179,359.259 60.181,359.581 59.386 C 360.242 57.754,361.139 57.401,361.413 58.665 C 361.548 59.289,361.902 60.430,362.199 61.200 C 362.497 61.970,363.183 63.860,363.723 65.400 C 364.264 66.940,365.257 69.730,365.930 71.600 C 366.603 73.470,367.516 76.080,367.959 77.400 C 368.401 78.720,369.557 82.090,370.527 84.888 C 371.497 87.686,372.195 90.071,372.079 90.188 C 371.579 90.687,349.200 90.405,349.213 89.900 C 349.230 89.233,350.613 85.254,350.941 84.925 C 351.084 84.783,351.194 84.382,351.187 84.033 C 351.169 83.143,350.000 84.701,350.000 85.615 C 350.000 85.979,349.717 86.844,349.372 87.536 C 349.026 88.229,348.801 89.201,348.872 89.698 L 349.000 90.600 360.710 90.706 C 372.910 90.817,374.024 90.664,372.453 89.093 C 372.204 88.844,372.000 88.172,372.000 87.600 C 372.000 87.028,371.806 86.366,371.569 86.129 C 371.332 85.892,370.988 85.091,370.804 84.349 C 370.408 82.748,369.630 80.475,369.146 79.505 C 368.956 79.123,368.800 78.611,368.800 78.366 C 368.800 78.121,368.560 77.354,368.266 76.660 C 367.470 74.783,366.770 72.762,366.404 71.289 C 366.226 70.567,365.905 69.757,365.693 69.489 C 365.481 69.220,365.211 68.550,365.094 68.000 C 364.860 66.900,364.160 64.888,363.334 62.940 C 363.040 62.246,362.800 61.479,362.800 61.234 C 362.800 60.989,362.631 60.477,362.424 60.095 C 362.217 59.713,361.944 58.905,361.817 58.300 C 361.557 57.069,360.774 56.884,359.829 57.829 M253.273 60.487 C 250.992 62.768,253.653 69.718,257.966 72.744 C 259.251 73.645,260.730 74.566,261.251 74.790 C 261.773 75.015,262.470 75.365,262.800 75.568 C 263.130 75.772,265.711 77.078,268.536 78.469 C 275.733 82.016,275.423 81.820,278.303 84.658 C 279.736 86.070,280.987 87.146,281.083 87.050 C 281.911 86.223,275.199 81.134,269.800 78.495 C 257.631 72.547,255.902 71.360,254.219 67.803 C 253.132 65.506,252.873 62.559,253.632 61.139 C 254.144 60.183,253.943 59.817,253.273 60.487 M358.499 61.191 C 358.224 61.630,358.007 62.397,358.016 62.895 C 358.029 63.638,358.138 63.555,358.626 62.430 C 359.315 60.842,359.230 60.019,358.499 61.191 M371.602 63.654 C 371.601 64.014,371.869 64.824,372.198 65.454 C 372.553 66.135,372.796 66.334,372.798 65.946 C 372.799 65.586,372.531 64.776,372.202 64.146 C 371.847 63.465,371.604 63.266,371.602 63.654 M357.232 64.739 C 356.995 65.184,356.800 65.809,356.800 66.128 C 356.800 66.447,356.531 67.224,356.202 67.854 C 355.874 68.484,355.604 69.294,355.602 69.654 C 355.601 70.014,355.331 70.824,355.002 71.454 C 354.674 72.084,354.404 72.904,354.402 73.276 C 354.401 73.648,354.220 74.064,354.000 74.200 C 353.780 74.336,353.605 74.842,353.612 75.324 C 353.631 76.692,354.160 75.545,355.803 70.573 C 356.598 68.168,357.448 65.795,357.692 65.301 C 358.249 64.169,357.819 63.644,357.232 64.739 M144.459 66.000 C 144.441 66.550,144.690 67.349,145.013 67.776 C 145.453 68.358,145.600 68.403,145.600 67.956 C 145.600 67.628,145.437 67.189,145.239 66.980 C 145.040 66.771,144.791 66.240,144.685 65.800 C 144.528 65.148,144.487 65.185,144.459 66.000 M170.800 69.447 C 169.456 73.686,169.406 73.956,170.151 73.000 C 170.494 72.560,170.780 71.745,170.787 71.189 C 170.794 70.633,171.082 69.776,171.426 69.284 C 171.770 68.792,171.995 67.918,171.926 67.342 C 171.833 66.568,171.538 67.121,170.800 69.447 M372.826 67.276 C 372.812 67.648,372.956 68.049,373.147 68.168 C 373.339 68.286,373.611 69.106,373.752 69.991 C 373.894 70.876,374.187 71.600,374.405 71.600 C 374.622 71.600,374.800 72.106,374.800 72.724 C 374.800 73.341,375.064 74.196,375.387 74.624 C 375.710 75.051,375.980 75.771,375.987 76.224 C 375.994 76.676,376.285 77.396,376.633 77.824 C 377.256 78.589,377.261 78.589,376.989 77.800 C 376.837 77.360,376.536 76.370,376.319 75.600 C 376.103 74.830,375.762 74.029,375.563 73.820 C 375.363 73.611,375.200 73.122,375.200 72.734 C 375.200 71.610,372.865 66.242,372.826 67.276 M145.600 69.488 C 145.600 69.939,145.869 70.824,146.198 71.454 C 146.526 72.084,146.796 73.005,146.798 73.500 C 146.799 73.995,146.980 74.400,147.200 74.400 C 147.420 74.400,147.601 74.805,147.602 75.300 C 147.604 75.795,147.874 76.716,148.202 77.346 C 148.531 77.976,148.800 78.886,148.800 79.369 C 148.800 79.852,149.064 80.596,149.387 81.024 C 149.710 81.451,149.980 82.261,149.987 82.824 C 149.994 83.386,150.264 84.196,150.587 84.624 C 151.414 85.716,151.338 84.951,150.365 82.394 C 149.906 81.187,149.385 79.660,149.206 79.000 C 148.723 77.219,145.947 69.026,145.761 68.833 C 145.672 68.742,145.600 69.036,145.600 69.488 M177.699 72.791 C 177.424 73.230,177.207 73.997,177.216 74.495 C 177.229 75.238,177.338 75.155,177.826 74.030 C 178.515 72.442,178.430 71.619,177.699 72.791 M346.854 73.020 C 346.825 73.471,346.637 74.011,346.437 74.220 C 346.238 74.429,345.891 75.230,345.668 76.000 C 345.195 77.628,342.586 85.093,340.776 90.000 C 340.086 91.870,339.083 94.660,338.547 96.200 C 338.011 97.740,337.412 99.360,337.215 99.800 C 337.018 100.240,336.458 101.770,335.971 103.200 C 335.483 104.630,334.849 106.430,334.562 107.200 C 334.274 107.970,333.670 109.587,333.219 110.794 C 331.594 115.148,332.607 116.113,338.114 115.461 C 340.852 115.137,340.778 115.254,343.690 106.600 C 345.096 102.420,346.467 98.595,346.737 98.100 L 347.228 97.200 360.538 97.200 C 374.515 97.200,374.840 97.240,375.313 99.000 C 375.431 99.440,376.369 102.140,377.397 105.000 C 378.426 107.860,379.517 111.013,379.821 112.007 C 380.823 115.273,381.031 115.400,385.348 115.400 C 390.838 115.400,390.816 115.479,387.589 107.200 C 387.117 105.990,386.592 104.445,386.423 103.767 C 385.939 101.832,385.228 100.735,385.212 101.900 C 385.205 102.395,385.380 102.800,385.600 102.800 C 385.820 102.800,386.001 103.205,386.002 103.700 C 386.004 104.195,386.274 105.116,386.602 105.746 C 386.931 106.376,387.200 107.196,387.200 107.569 C 387.200 107.942,387.464 108.596,387.787 109.024 C 388.110 109.451,388.380 110.261,388.387 110.824 C 388.394 111.386,388.664 112.196,388.987 112.624 C 390.142 114.150,389.771 114.721,387.433 115.013 C 384.930 115.326,381.200 114.913,381.200 114.323 C 381.200 114.102,380.960 113.354,380.666 112.660 C 379.975 111.031,379.185 108.815,378.932 107.800 C 378.823 107.360,378.573 106.640,378.378 106.200 C 378.183 105.760,377.642 104.230,377.176 102.800 C 376.710 101.370,375.984 99.435,375.562 98.500 L 374.796 96.800 361.014 96.800 C 345.951 96.800,345.600 96.857,345.600 99.302 C 345.600 99.715,345.392 100.442,345.137 100.917 C 344.883 101.392,344.539 102.325,344.373 102.991 C 344.026 104.376,343.309 106.433,342.534 108.260 C 342.240 108.954,342.000 109.781,342.000 110.099 C 342.000 110.616,341.301 112.357,340.437 113.990 C 339.514 115.736,332.546 115.433,332.984 113.666 C 333.129 113.080,333.352 112.060,333.479 111.400 C 333.606 110.740,333.955 109.845,334.255 109.411 C 334.555 108.977,334.806 108.257,334.813 107.811 C 334.820 107.365,335.090 106.651,335.413 106.224 C 335.736 105.796,336.000 105.142,336.000 104.769 C 336.000 104.396,336.269 103.576,336.598 102.946 C 336.926 102.316,337.196 101.496,337.198 101.124 C 337.199 100.752,337.380 100.336,337.600 100.200 C 337.820 100.064,338.001 99.648,338.002 99.276 C 338.004 98.904,338.274 98.084,338.602 97.454 C 338.931 96.824,339.200 96.005,339.200 95.634 C 339.200 95.263,339.394 94.766,339.631 94.529 C 339.868 94.292,340.212 93.491,340.396 92.749 C 340.769 91.242,341.463 89.234,342.266 87.340 C 342.560 86.646,342.800 85.802,342.800 85.463 C 342.800 85.124,342.980 84.736,343.200 84.600 C 343.420 84.464,343.601 84.048,343.602 83.676 C 343.604 83.304,343.874 82.484,344.202 81.854 C 344.531 81.224,344.800 80.404,344.800 80.031 C 344.800 79.658,345.064 79.004,345.387 78.576 C 345.710 78.149,345.980 77.389,345.987 76.886 C 345.994 76.383,346.284 75.539,346.631 75.009 C 346.978 74.480,347.182 73.631,347.085 73.123 C 346.931 72.314,346.902 72.301,346.854 73.020 M168.452 76.800 C 166.556 82.807,165.951 84.612,165.630 85.213 C 165.449 85.550,165.168 86.450,165.005 87.213 C 164.841 87.976,164.569 88.780,164.400 89.000 C 164.231 89.220,163.961 90.030,163.800 90.800 C 163.639 91.570,163.373 92.380,163.207 92.600 C 163.042 92.820,162.811 93.450,162.694 94.000 C 162.577 94.550,162.257 95.630,161.984 96.400 C 160.900 99.452,160.484 100.666,159.997 102.200 C 159.718 103.080,159.320 104.250,159.113 104.800 L 158.736 105.800 158.143 104.678 C 157.818 104.060,157.051 102.080,156.441 100.278 C 155.830 98.475,154.446 94.390,153.365 91.200 C 152.216 87.808,151.347 85.771,151.273 86.294 C 151.203 86.785,151.428 87.590,151.773 88.083 C 152.118 88.575,152.400 89.367,152.400 89.843 C 152.400 90.319,152.669 91.224,152.998 91.854 C 153.326 92.484,153.596 93.304,153.598 93.676 C 153.599 94.048,153.780 94.464,154.000 94.600 C 154.220 94.736,154.400 95.247,154.400 95.735 C 154.400 96.223,154.645 96.977,154.945 97.411 C 155.245 97.845,155.584 98.740,155.699 99.400 C 156.117 101.795,157.983 106.061,158.721 106.307 C 159.113 106.438,160.308 103.455,160.688 101.400 C 160.810 100.740,161.155 99.845,161.455 99.411 C 161.755 98.977,162.000 98.223,162.000 97.735 C 162.000 97.247,162.164 96.746,162.365 96.622 C 162.566 96.497,162.852 95.678,163.000 94.800 C 163.148 93.922,163.434 93.103,163.635 92.978 C 163.836 92.854,164.000 92.386,164.000 91.937 C 164.000 91.488,164.240 90.554,164.534 89.860 C 165.251 88.170,165.998 86.062,166.400 84.600 C 166.812 83.101,167.613 80.796,168.003 79.987 C 168.165 79.650,168.432 78.750,168.595 77.987 C 168.759 77.224,169.065 76.385,169.277 76.122 C 169.488 75.859,169.602 75.229,169.530 74.722 C 169.442 74.105,169.085 74.792,168.452 76.800 M176.432 76.339 C 176.195 76.784,176.000 77.409,176.000 77.728 C 176.000 78.047,175.731 78.824,175.402 79.454 C 175.074 80.084,174.804 80.894,174.802 81.254 C 174.801 81.614,174.531 82.424,174.202 83.054 C 173.874 83.684,173.604 84.605,173.602 85.100 C 173.601 85.595,173.420 86.000,173.200 86.000 C 172.980 86.000,172.805 86.405,172.812 86.900 C 172.828 88.057,173.529 86.984,174.032 85.033 C 174.207 84.355,174.985 82.009,175.761 79.819 C 177.098 76.047,177.385 74.560,176.432 76.339 M205.434 76.543 C 205.659 77.131,206.878 77.200,216.994 77.200 C 225.579 77.200,228.402 77.321,228.719 77.702 C 229.398 78.521,229.706 80.308,229.426 81.803 L 229.164 83.200 218.282 83.205 C 212.297 83.208,206.995 83.319,206.500 83.452 L 205.600 83.693 205.693 94.947 L 205.787 106.200 205.900 95.100 L 206.013 84.000 217.378 84.000 C 229.953 84.000,229.675 84.056,230.174 81.397 C 230.366 80.374,230.235 79.526,229.722 78.478 L 229.000 77.000 217.633 76.894 C 209.945 76.822,206.091 76.642,205.724 76.337 C 205.297 75.983,205.235 76.026,205.434 76.543 M352.865 77.417 C 352.609 77.978,352.400 78.749,352.400 79.130 C 352.400 79.511,352.118 80.225,351.773 80.717 C 351.428 81.210,351.203 82.015,351.273 82.506 C 351.355 83.083,351.801 82.216,352.530 80.063 C 353.624 76.832,353.814 75.335,352.865 77.417 M377.238 79.600 C 377.231 80.150,377.490 80.949,377.813 81.376 C 378.136 81.804,378.400 82.458,378.400 82.831 C 378.400 83.204,378.669 84.024,378.998 84.654 C 379.326 85.284,379.596 86.104,379.598 86.476 C 379.599 86.848,379.780 87.264,380.000 87.400 C 380.220 87.536,380.401 87.952,380.402 88.324 C 380.404 88.696,380.674 89.516,381.002 90.146 C 381.331 90.776,381.600 91.558,381.600 91.884 C 381.600 92.210,381.845 92.954,382.145 93.538 C 382.803 94.821,383.602 97.037,383.899 98.400 C 384.018 98.950,384.381 99.760,384.704 100.200 L 385.291 101.000 385.083 100.200 C 384.825 99.207,382.896 93.686,382.428 92.600 C 382.238 92.160,381.508 90.180,380.805 88.200 C 378.249 80.996,377.250 78.589,377.238 79.600 M281.200 88.075 C 281.200 88.420,281.470 88.926,281.800 89.200 C 282.563 89.834,282.556 89.239,281.787 88.224 C 281.317 87.602,281.200 87.572,281.200 88.075 " stroke="none" fill="#807b7c" fill-rule="evenodd"></path><path id="path3" d="M104.100 43.876 C 104.485 43.976,105.115 43.976,105.500 43.876 C 105.885 43.775,105.570 43.693,104.800 43.693 C 104.030 43.693,103.715 43.775,104.100 43.876 M260.200 47.001 C 258.440 47.273,256.370 47.760,255.600 48.082 C 252.093 49.547,251.600 49.795,251.600 50.088 C 251.600 50.259,251.348 50.400,251.040 50.400 C 250.214 50.400,246.573 54.544,245.678 56.503 C 243.252 61.812,243.259 68.545,245.694 72.895 C 248.269 77.497,251.635 80.211,259.400 83.949 C 262.260 85.325,264.928 86.630,265.329 86.848 C 265.730 87.065,266.794 87.626,267.692 88.095 C 271.639 90.152,274.004 93.700,273.994 97.549 C 273.964 108.755,260.257 111.685,246.600 103.405 C 243.921 101.781,242.976 102.126,242.454 104.922 C 241.654 109.204,243.034 111.745,247.200 113.666 C 248.190 114.122,249.324 114.661,249.720 114.863 C 250.116 115.066,251.286 115.413,252.320 115.635 C 253.354 115.857,254.920 116.202,255.800 116.402 C 257.866 116.871,264.139 116.870,266.200 116.401 C 267.080 116.201,268.579 115.870,269.532 115.666 C 270.485 115.462,271.466 115.094,271.712 114.848 C 271.958 114.602,272.415 114.400,272.726 114.400 C 274.848 114.400,280.258 109.373,282.195 105.600 C 282.591 104.830,283.110 103.840,283.349 103.400 C 283.589 102.960,283.850 100.233,283.931 97.341 C 284.076 92.102,283.853 90.827,282.366 88.400 C 282.164 88.070,281.830 87.414,281.625 86.942 C 281.090 85.712,277.598 82.261,275.633 81.021 C 273.848 79.894,270.513 78.183,263.400 74.744 C 254.050 70.224,250.996 63.433,255.941 58.160 C 258.612 55.312,266.340 54.275,270.838 56.161 C 273.662 57.346,275.385 58.180,275.604 58.468 C 275.716 58.616,276.303 58.861,276.908 59.013 C 277.513 59.164,278.105 59.447,278.225 59.640 C 278.344 59.833,278.882 59.702,279.421 59.350 C 281.118 58.237,280.892 52.564,279.086 50.964 C 276.411 48.594,267.630 45.996,263.836 46.453 C 263.596 46.481,261.960 46.728,260.200 47.001 M130.229 47.829 C 129.459 48.598,129.419 50.451,130.134 52.140 C 130.960 54.088,131.660 56.100,131.894 57.200 C 132.011 57.750,132.240 58.380,132.401 58.600 C 132.563 58.820,133.101 60.350,133.596 62.000 C 134.092 63.650,134.655 65.171,134.849 65.380 C 135.042 65.589,135.200 66.140,135.200 66.604 C 135.200 67.067,135.464 67.796,135.787 68.224 C 136.110 68.651,136.380 69.459,136.387 70.020 C 136.394 70.581,136.594 71.234,136.831 71.471 C 137.068 71.708,137.412 72.509,137.596 73.251 C 137.969 74.758,138.663 76.766,139.466 78.660 C 139.760 79.354,140.000 80.198,140.000 80.537 C 140.000 80.876,140.180 81.264,140.400 81.400 C 140.620 81.536,140.801 81.952,140.802 82.324 C 140.804 82.696,141.074 83.516,141.402 84.146 C 141.731 84.776,142.000 85.559,142.000 85.885 C 142.000 86.212,142.240 87.046,142.534 87.740 C 143.352 89.670,144.058 91.694,144.299 92.800 C 144.418 93.350,144.760 94.155,145.058 94.589 C 146.082 96.080,145.925 95.565,141.777 83.800 C 140.535 80.280,139.281 76.680,138.988 75.800 C 138.696 74.920,137.623 71.860,136.604 69.000 C 135.585 66.140,134.657 63.440,134.542 63.000 C 134.427 62.560,134.173 61.840,133.978 61.400 C 133.783 60.960,133.245 59.430,132.783 58.000 C 132.321 56.570,131.795 55.040,131.614 54.600 C 129.057 48.386,129.413 47.587,134.726 47.613 C 138.803 47.632,138.523 47.234,142.178 58.200 C 143.644 62.600,145.003 66.560,145.196 67.000 C 145.390 67.440,146.368 70.320,147.369 73.400 C 148.371 76.480,149.381 79.540,149.614 80.200 C 149.990 81.265,153.330 91.087,156.441 100.278 C 157.052 102.080,157.818 104.060,158.143 104.678 L 158.736 105.800 159.113 104.800 C 159.320 104.250,159.718 103.080,159.997 102.200 C 160.484 100.666,160.900 99.452,161.984 96.400 C 162.257 95.630,162.577 94.550,162.694 94.000 C 162.811 93.450,163.042 92.820,163.207 92.600 C 163.373 92.380,163.639 91.570,163.800 90.800 C 163.961 90.030,164.231 89.220,164.400 89.000 C 164.569 88.780,164.841 87.976,165.005 87.213 C 165.168 86.450,165.453 85.550,165.638 85.213 C 165.823 84.876,166.543 82.800,167.238 80.600 C 169.232 74.287,172.737 63.517,173.225 62.200 C 173.470 61.540,173.819 60.460,174.000 59.800 C 174.323 58.626,175.012 56.595,175.629 55.000 C 175.800 54.560,176.261 53.120,176.654 51.800 C 177.715 48.240,178.531 47.600,182.008 47.600 C 186.991 47.600,187.206 48.109,184.799 54.200 C 184.373 55.278,182.266 61.232,181.261 64.200 C 180.420 66.683,179.176 70.217,176.126 78.800 C 175.149 81.550,174.192 84.340,174.000 85.000 C 173.808 85.660,172.822 88.540,171.809 91.400 C 169.048 99.197,167.736 102.960,166.162 107.600 C 163.406 115.722,163.482 115.650,157.800 115.548 C 152.987 115.462,152.648 115.190,150.908 110.000 C 150.429 108.570,149.387 105.600,148.593 103.400 C 147.800 101.200,147.007 98.845,146.832 98.167 C 146.426 96.590,145.624 95.151,145.625 96.000 C 145.626 96.721,146.975 100.708,147.341 101.075 C 147.484 101.217,147.600 101.591,147.600 101.906 C 147.600 102.221,147.840 103.046,148.134 103.740 C 148.835 105.392,149.588 107.508,150.008 109.000 C 151.358 113.800,152.282 115.216,154.497 115.878 C 159.874 117.487,165.200 115.391,165.200 111.666 C 165.200 111.278,165.394 110.766,165.631 110.529 C 165.868 110.292,166.212 109.491,166.396 108.749 C 166.769 107.242,167.463 105.234,168.266 103.340 C 168.560 102.646,168.800 101.827,168.800 101.520 C 168.800 101.212,168.946 100.789,169.125 100.580 C 169.303 100.371,169.871 98.850,170.385 97.200 C 170.900 95.550,171.450 94.020,171.607 93.800 C 171.764 93.580,171.989 92.950,172.106 92.400 C 172.340 91.300,173.040 89.288,173.866 87.340 C 174.160 86.646,174.400 85.812,174.400 85.485 C 174.400 85.159,174.669 84.376,174.998 83.746 C 175.326 83.116,175.596 82.321,175.598 81.980 C 175.599 81.639,175.746 81.189,175.925 80.980 C 176.103 80.771,176.671 79.250,177.185 77.600 C 177.700 75.950,178.250 74.420,178.407 74.200 C 178.564 73.980,178.789 73.350,178.906 72.800 C 179.140 71.700,179.840 69.688,180.666 67.740 C 180.960 67.046,181.200 66.202,181.200 65.863 C 181.200 65.524,181.364 65.146,181.565 65.022 C 181.766 64.897,182.052 64.078,182.200 63.200 C 182.348 62.322,182.634 61.503,182.835 61.378 C 183.036 61.254,183.200 60.753,183.200 60.265 C 183.200 59.777,183.444 59.023,183.742 58.589 C 184.040 58.155,184.382 57.350,184.501 56.800 C 184.742 55.694,185.448 53.670,186.266 51.740 C 186.976 50.063,186.941 48.598,186.171 47.829 C 185.217 46.874,178.756 46.930,177.921 47.900 C 177.078 48.878,176.000 51.187,176.000 52.016 C 176.000 52.397,175.731 53.224,175.402 53.854 C 175.074 54.484,174.804 55.294,174.802 55.654 C 174.801 56.014,174.531 56.824,174.202 57.454 C 173.874 58.084,173.604 58.994,173.602 59.476 C 173.601 59.958,173.436 60.454,173.235 60.578 C 173.034 60.703,172.748 61.522,172.600 62.400 C 172.452 63.278,172.166 64.097,171.965 64.222 C 171.764 64.346,171.600 64.814,171.600 65.263 C 171.600 65.712,171.360 66.646,171.066 67.340 C 170.113 69.588,169.513 71.375,169.299 72.600 C 169.184 73.260,168.845 74.155,168.545 74.589 C 168.245 75.023,168.000 75.767,168.000 76.243 C 168.000 76.719,167.731 77.624,167.402 78.254 C 167.074 78.884,166.804 79.717,166.802 80.105 C 166.801 80.493,166.629 81.123,166.419 81.505 C 166.210 81.887,165.471 84.000,164.778 86.200 C 164.084 88.400,163.265 90.791,162.958 91.514 C 162.651 92.236,162.400 93.070,162.400 93.368 C 162.400 93.665,162.131 94.424,161.802 95.054 C 161.474 95.684,161.204 96.494,161.202 96.854 C 161.201 97.214,160.931 98.024,160.602 98.654 C 160.274 99.284,160.004 100.117,160.002 100.505 C 160.001 100.893,159.831 101.523,159.624 101.905 C 159.417 102.287,159.119 103.140,158.960 103.800 C 158.726 104.777,158.639 104.851,158.493 104.200 C 158.394 103.760,158.177 103.220,158.009 103.000 C 157.842 102.780,157.299 101.250,156.804 99.600 C 156.308 97.950,155.745 96.429,155.551 96.220 C 155.358 96.011,155.200 95.498,155.200 95.080 C 155.200 94.663,154.960 93.754,154.666 93.060 C 153.949 91.370,153.202 89.262,152.800 87.800 C 152.398 86.337,151.594 84.014,151.208 83.200 C 151.052 82.870,150.514 81.250,150.013 79.600 C 149.513 77.950,148.945 76.429,148.751 76.220 C 148.558 76.011,148.400 75.498,148.400 75.080 C 148.400 74.663,148.160 73.754,147.866 73.060 C 147.117 71.293,146.384 69.210,146.017 67.800 C 145.844 67.140,145.519 66.150,145.294 65.600 C 145.069 65.050,144.559 63.520,144.160 62.200 C 143.762 60.880,143.293 59.629,143.118 59.420 C 142.943 59.211,142.799 58.761,142.798 58.420 C 142.796 58.079,142.526 57.284,142.198 56.654 C 141.869 56.024,141.600 55.175,141.600 54.768 C 141.600 54.360,141.348 53.436,141.040 52.714 C 140.733 51.991,140.160 50.624,139.769 49.676 C 139.377 48.727,138.741 47.782,138.355 47.576 C 137.125 46.918,130.947 47.110,130.229 47.829 M272.600 48.321 C 278.652 50.223,280.000 51.540,280.000 55.557 C 280.000 59.256,279.000 59.685,275.200 57.613 C 264.327 51.686,253.200 54.845,253.200 63.858 C 253.200 69.416,255.943 71.789,270.394 78.731 C 281.413 84.024,285.805 92.288,282.970 102.392 C 279.783 113.752,263.283 119.797,250.200 114.398 C 244.443 112.022,243.170 110.914,242.894 108.036 C 242.514 104.080,243.730 101.814,245.462 103.251 C 246.703 104.281,251.571 106.730,254.600 107.847 C 258.017 109.108,265.140 108.896,268.131 107.444 C 278.257 102.529,275.998 89.481,264.384 85.795 C 257.765 83.694,248.683 77.260,246.402 73.054 C 238.130 57.804,254.273 42.562,272.600 48.321 M355.569 48.369 C 354.882 49.057,354.400 49.963,354.400 50.569 C 354.400 51.136,354.257 51.600,354.083 51.600 C 353.908 51.600,353.571 52.275,353.334 53.100 C 353.097 53.925,352.326 56.130,351.621 58.000 C 350.916 59.870,350.245 61.760,350.130 62.200 C 350.015 62.640,349.668 63.567,349.360 64.260 C 349.052 64.954,348.800 65.773,348.800 66.080 C 348.800 66.388,348.646 66.811,348.457 67.020 C 348.269 67.229,347.695 68.750,347.182 70.400 C 346.669 72.050,346.103 73.571,345.925 73.780 C 345.746 73.989,345.600 74.412,345.600 74.720 C 345.600 75.027,345.348 75.846,345.040 76.540 C 344.732 77.233,344.387 78.160,344.274 78.600 C 344.160 79.040,343.677 80.390,343.200 81.600 C 342.723 82.810,342.240 84.160,342.126 84.600 C 342.013 85.040,341.668 85.967,341.360 86.660 C 341.052 87.354,340.800 88.198,340.800 88.537 C 340.800 88.876,340.620 89.264,340.400 89.400 C 340.180 89.536,339.999 89.952,339.998 90.324 C 339.996 90.696,339.726 91.516,339.398 92.146 C 339.069 92.776,338.800 93.469,338.800 93.685 C 338.800 93.902,338.548 94.646,338.240 95.340 C 337.932 96.033,337.587 96.960,337.474 97.400 C 337.360 97.840,336.877 99.190,336.400 100.400 C 335.923 101.610,335.440 102.960,335.326 103.400 C 335.213 103.840,334.868 104.767,334.560 105.460 C 334.252 106.154,334.000 106.998,334.000 107.337 C 334.000 107.676,333.820 108.064,333.600 108.200 C 333.380 108.336,333.199 108.752,333.198 109.124 C 333.196 109.496,332.926 110.316,332.598 110.946 C 331.448 113.150,331.791 115.102,333.449 115.795 C 335.928 116.830,340.493 116.232,341.240 114.773 C 342.047 113.197,342.800 111.213,342.800 110.663 C 342.800 110.324,342.964 109.946,343.165 109.822 C 343.366 109.697,343.652 108.878,343.800 108.000 C 343.948 107.122,344.234 106.303,344.435 106.178 C 344.636 106.054,344.801 105.558,344.802 105.076 C 344.804 104.594,345.074 103.684,345.402 103.054 C 345.731 102.424,346.000 101.665,346.000 101.368 C 346.000 101.070,346.303 100.191,346.674 99.414 L 347.348 98.000 360.441 98.000 C 373.915 98.000,374.800 98.067,374.800 99.082 C 374.800 99.411,375.040 100.246,375.334 100.940 C 376.160 102.888,376.860 104.900,377.094 106.000 C 377.211 106.550,377.436 107.180,377.593 107.400 C 377.750 107.620,378.304 109.150,378.824 110.800 C 380.062 114.732,380.511 115.387,382.352 115.938 C 386.157 117.078,390.434 116.044,390.369 114.000 C 390.357 113.655,390.199 113.773,389.996 114.278 C 389.556 115.368,387.748 115.754,384.143 115.524 C 381.162 115.334,380.736 114.988,379.821 112.007 C 379.517 111.013,378.426 107.860,377.397 105.000 C 376.369 102.140,375.431 99.440,375.313 99.000 C 374.840 97.240,374.515 97.200,360.538 97.200 L 347.228 97.200 346.737 98.100 C 346.467 98.595,345.096 102.420,343.690 106.600 C 340.778 115.254,340.852 115.137,338.114 115.461 C 332.607 116.113,331.594 115.148,333.219 110.794 C 333.670 109.587,334.274 107.970,334.562 107.200 C 334.849 106.430,335.483 104.630,335.971 103.200 C 336.458 101.770,337.018 100.240,337.215 99.800 C 337.412 99.360,338.011 97.740,338.547 96.200 C 339.083 94.660,340.089 91.870,340.783 90.000 C 341.478 88.130,342.475 85.340,342.999 83.800 C 345.036 77.818,346.041 74.968,346.385 74.200 C 346.582 73.760,347.107 72.320,347.553 71.000 C 347.998 69.680,348.739 67.610,349.200 66.400 C 349.661 65.190,350.399 63.120,350.840 61.800 C 351.281 60.480,351.813 59.087,352.021 58.705 C 352.230 58.323,352.400 57.811,352.400 57.566 C 352.400 57.321,352.656 56.554,352.969 55.860 C 353.282 55.167,353.943 53.363,354.439 51.851 C 355.626 48.235,356.591 47.604,360.940 47.601 C 364.471 47.600,366.628 48.359,367.008 49.739 C 367.139 50.212,367.494 51.230,367.796 52.000 C 368.098 52.770,368.913 55.020,369.607 57.000 C 370.301 58.980,371.034 60.913,371.235 61.295 C 371.436 61.677,371.600 62.189,371.600 62.434 C 371.600 62.679,371.852 63.446,372.160 64.140 C 372.468 64.833,372.813 65.760,372.926 66.200 C 373.040 66.640,373.523 67.990,374.000 69.200 C 374.477 70.410,374.960 71.760,375.074 72.200 C 375.187 72.640,375.532 73.567,375.840 74.260 C 376.148 74.954,376.400 75.666,376.400 75.843 C 376.400 76.021,377.103 78.064,377.963 80.383 C 378.822 82.702,380.101 86.220,380.804 88.200 C 381.508 90.180,382.247 92.160,382.448 92.600 C 382.648 93.040,382.972 93.940,383.168 94.600 C 383.363 95.260,384.095 97.330,384.793 99.200 C 385.491 101.070,386.213 103.140,386.397 103.800 C 386.581 104.460,387.118 105.990,387.590 107.200 C 388.063 108.410,388.751 110.300,389.119 111.400 C 389.524 112.613,389.843 113.115,389.928 112.676 C 390.005 112.277,389.783 111.350,389.434 110.615 C 389.085 109.880,388.800 109.002,388.800 108.663 C 388.800 108.324,388.620 107.936,388.400 107.800 C 388.180 107.664,387.999 107.248,387.998 106.876 C 387.996 106.504,387.726 105.684,387.398 105.054 C 387.069 104.424,386.800 103.609,386.800 103.243 C 386.800 102.877,386.556 102.223,386.258 101.789 C 385.960 101.355,385.618 100.550,385.499 100.000 C 385.379 99.450,385.087 98.460,384.850 97.800 C 384.612 97.140,383.845 94.980,383.144 93.000 C 382.443 91.020,381.719 89.229,381.535 89.020 C 381.351 88.811,381.199 88.271,381.198 87.820 C 381.196 87.369,380.943 86.517,380.635 85.927 C 380.327 85.337,379.955 84.304,379.807 83.632 C 379.659 82.959,379.372 82.306,379.169 82.181 C 378.966 82.055,378.800 81.586,378.800 81.138 C 378.800 80.690,378.553 79.846,378.250 79.262 C 377.948 78.678,377.381 77.210,376.991 76.000 C 376.601 74.790,376.149 73.620,375.987 73.400 C 375.825 73.180,375.560 72.370,375.399 71.600 C 375.238 70.830,374.994 70.020,374.856 69.800 C 374.516 69.255,373.620 66.864,373.207 65.400 C 373.021 64.740,372.478 63.210,372.001 62.000 C 371.523 60.790,371.040 59.440,370.926 59.000 C 370.813 58.560,370.468 57.633,370.160 56.940 C 369.852 56.246,369.600 55.402,369.600 55.063 C 369.600 54.724,369.420 54.336,369.200 54.200 C 368.980 54.064,368.799 53.648,368.798 53.276 C 368.796 52.904,368.554 52.138,368.259 51.573 C 367.965 51.009,367.613 50.107,367.478 49.569 C 366.807 46.894,357.938 46.000,355.569 48.369 M199.242 48.123 C 196.275 49.166,196.400 47.683,196.400 81.714 C 196.400 107.836,196.483 112.200,196.998 113.196 C 198.276 115.667,197.735 115.600,216.509 115.600 L 233.641 115.600 234.272 114.100 C 235.054 112.240,235.084 110.102,234.349 108.568 L 233.790 107.400 220.195 107.187 C 212.718 107.069,206.555 106.934,206.500 106.887 C 206.101 106.541,206.468 85.292,206.880 84.880 C 207.230 84.530,210.303 84.400,218.205 84.400 C 228.565 84.400,229.088 84.364,229.925 83.584 C 231.138 82.454,231.164 78.971,229.971 77.454 L 229.142 76.400 217.771 76.400 L 206.400 76.400 206.400 66.643 C 206.400 58.114,206.480 56.855,207.033 56.643 C 207.381 56.509,213.204 56.400,219.974 56.400 L 232.283 56.400 233.342 55.419 C 235.037 53.848,234.767 48.878,232.940 48.046 C 231.529 47.402,201.093 47.472,199.242 48.123 M288.800 48.386 C 287.893 49.083,287.802 49.422,287.823 52.017 C 287.858 56.434,287.723 56.380,298.857 56.391 C 306.742 56.399,307.946 56.482,308.157 57.033 C 308.291 57.381,308.400 70.586,308.400 86.378 L 308.400 115.091 310.113 115.746 C 312.635 116.709,316.233 116.327,317.610 114.950 C 317.847 114.713,318.034 103.447,318.097 85.583 L 318.200 56.600 327.733 56.400 C 336.398 56.218,337.315 56.133,337.804 55.463 C 339.304 53.409,338.766 48.671,336.954 47.982 C 334.752 47.145,289.926 47.521,288.800 48.386 M233.165 48.958 C 234.010 49.976,234.184 53.460,233.445 54.587 L 232.782 55.600 219.614 55.600 C 212.372 55.600,206.355 55.749,206.242 55.932 C 206.129 56.114,206.011 60.839,205.979 66.432 L 205.921 76.600 217.460 76.800 L 229.000 77.000 229.722 78.478 C 230.235 79.526,230.366 80.374,230.174 81.397 C 229.675 84.056,229.952 84.000,217.384 84.000 L 206.024 84.000 205.912 95.300 C 205.850 101.515,205.957 106.825,206.149 107.100 C 206.416 107.483,209.611 107.600,219.800 107.600 C 229.957 107.600,233.199 107.718,233.512 108.100 C 234.367 109.144,234.269 113.674,233.371 114.571 C 232.306 115.637,199.802 115.491,198.400 114.414 L 197.400 113.646 197.400 81.788 L 197.400 49.929 198.344 49.165 C 199.595 48.152,232.334 47.957,233.165 48.958 M337.520 48.880 C 338.195 49.555,338.153 54.575,337.468 55.144 C 337.121 55.432,333.606 55.623,327.368 55.693 L 317.800 55.800 317.600 85.396 L 317.400 114.992 316.200 115.249 C 314.231 115.670,311.404 115.629,310.060 115.161 L 308.800 114.722 308.800 85.794 C 308.800 69.883,308.691 56.581,308.557 56.233 C 308.346 55.681,307.136 55.600,299.131 55.600 C 293.565 55.600,289.643 55.437,289.174 55.186 C 288.258 54.696,288.026 49.734,288.880 48.880 C 289.573 48.187,336.827 48.187,337.520 48.880 M360.329 58.298 C 360.000 58.684,359.330 60.260,358.841 61.800 C 358.351 63.340,357.793 64.960,357.600 65.400 C 357.407 65.840,356.614 68.090,355.837 70.400 C 353.186 78.287,351.154 84.199,350.819 85.000 C 350.101 86.717,349.200 89.451,349.200 89.913 C 349.200 90.407,371.591 90.675,372.079 90.188 C 372.195 90.071,371.495 87.686,370.523 84.888 C 369.551 82.090,368.329 78.540,367.807 77.000 C 366.749 73.882,363.478 64.677,362.547 62.200 C 362.216 61.320,361.793 60.001,361.608 59.268 C 361.171 57.547,361.049 57.454,360.329 58.298 M361.957 61.717 C 362.201 61.961,362.400 62.624,362.400 63.191 C 362.400 63.758,362.644 64.577,362.942 65.011 C 363.240 65.445,363.582 66.250,363.701 66.800 C 363.942 67.904,364.743 70.258,365.203 71.213 C 365.365 71.550,365.625 72.403,365.780 73.109 C 365.935 73.814,366.228 74.494,366.431 74.619 C 366.634 74.745,366.801 75.152,366.802 75.524 C 366.804 75.896,367.074 76.716,367.402 77.346 C 367.731 77.976,368.000 78.759,368.000 79.085 C 368.000 79.412,368.252 80.246,368.560 80.940 C 368.868 81.633,369.213 82.560,369.326 83.000 C 369.592 84.037,370.390 86.266,371.066 87.860 C 371.360 88.554,371.600 89.319,371.600 89.560 C 371.600 89.869,368.326 90.000,360.600 90.000 C 350.603 90.000,349.065 89.868,349.853 89.080 C 350.113 88.821,352.174 83.143,352.787 81.000 C 353.220 79.483,353.977 77.364,354.666 75.740 C 354.960 75.046,355.200 74.202,355.200 73.863 C 355.200 73.524,355.360 73.149,355.555 73.028 C 355.750 72.907,356.032 72.155,356.182 71.355 C 356.332 70.556,356.598 69.609,356.774 69.251 C 357.239 68.301,358.020 66.001,358.404 64.451 C 358.588 63.709,358.932 62.908,359.169 62.671 C 359.406 62.434,359.600 61.795,359.600 61.251 C 359.600 59.457,360.936 58.445,361.253 59.999 C 361.397 60.700,361.713 61.473,361.957 61.717 M21.293 92.800 C 21.293 93.570,21.375 93.885,21.476 93.500 C 21.576 93.115,21.576 92.485,21.476 92.100 C 21.375 91.715,21.293 92.030,21.293 92.800 M50.893 110.800 C 50.893 111.570,50.975 111.885,51.076 111.500 C 51.176 111.115,51.176 110.485,51.076 110.100 C 50.975 109.715,50.893 110.030,50.893 110.800 M64.400 114.776 C 64.400 115.423,64.542 116.041,64.716 116.148 C 64.890 116.256,64.961 115.727,64.873 114.972 C 64.676 113.291,64.400 113.177,64.400 114.776 " stroke="none" fill="#b4b2b2" fill-rule="evenodd"></path><path id="path4" d="M56.159 26.150 C 50.551 28.691,52.651 37.415,58.848 37.322 C 66.382 37.208,66.835 26.324,59.330 25.738 C 58.206 25.650,56.882 25.822,56.159 26.150 M73.400 26.913 C 68.675 29.569,69.794 36.850,75.079 37.841 C 80.128 38.788,84.232 33.237,81.490 29.169 C 79.409 26.079,76.383 25.236,73.400 26.913 M37.586 30.720 C 34.849 33.457,35.069 37.431,38.078 39.611 C 42.384 42.730,47.934 39.549,47.474 34.226 C 47.063 29.469,40.990 27.315,37.586 30.720 M88.736 32.517 C 85.253 34.133,83.946 37.559,85.588 40.776 C 89.086 47.634,99.254 42.637,96.223 35.549 C 95.120 32.968,91.193 31.378,88.736 32.517 M23.559 40.508 C 20.239 42.726,19.907 47.171,22.862 49.851 C 27.652 54.195,34.917 48.782,32.143 42.936 C 30.653 39.797,26.417 38.599,23.559 40.508 M56.921 42.500 C 52.216 45.840,54.666 53.204,60.480 53.199 C 66.227 53.194,68.570 45.725,63.842 42.485 C 62.036 41.247,58.675 41.255,56.921 42.500 M74.192 41.940 C 71.975 42.653,70.004 45.319,70.001 47.606 C 69.995 53.952,79.640 55.738,81.614 49.757 C 83.212 44.916,78.936 40.413,74.192 41.940 M101.061 45.200 C 97.535 48.296,99.000 54.601,103.438 55.434 C 110.036 56.671,113.589 48.968,108.328 44.829 C 106.586 43.459,102.825 43.651,101.061 45.200 M44.600 44.884 C 42.035 45.783,40.800 47.721,40.800 50.849 C 40.800 56.090,47.743 58.355,51.303 54.276 C 55.192 49.821,50.253 42.902,44.600 44.884 M87.780 48.941 C 82.134 51.501,83.371 59.583,89.511 60.244 C 94.366 60.766,97.660 55.659,95.180 51.456 C 93.676 48.906,90.350 47.776,87.780 48.941 M14.083 54.667 C 8.979 57.183,10.115 64.968,15.709 65.807 C 20.565 66.535,24.132 61.804,22.018 57.437 C 20.584 54.476,17.006 53.226,14.083 54.667 M31.961 55.104 C 27.979 57.524,28.301 63.705,32.508 65.614 C 39.242 68.671,44.358 59.008,38.040 55.166 C 36.506 54.233,33.446 54.202,31.961 55.104 M109.296 59.598 C 104.095 62.769,106.441 70.800,112.569 70.800 C 114.269 70.800,116.956 69.000,117.754 67.327 C 120.229 62.136,114.188 56.616,109.296 59.598 M93.000 62.744 C 87.678 66.031,89.834 73.754,96.073 73.754 C 101.945 73.754,103.978 65.709,98.866 62.700 C 97.309 61.784,94.521 61.805,93.000 62.744 M24.083 66.684 C 22.688 66.952,20.475 69.392,20.175 70.994 C 19.053 76.972,25.906 80.760,30.156 76.511 C 34.521 72.145,30.399 65.475,24.083 66.684 M10.600 72.069 C 6.813 73.429,5.301 78.155,7.681 81.191 C 12.155 86.896,20.865 81.516,17.757 74.967 C 16.620 72.570,13.134 71.158,10.600 72.069 M110.759 74.508 C 107.020 77.006,107.172 82.475,111.042 84.693 C 115.063 86.999,119.827 84.150,119.778 79.470 C 119.729 74.743,114.617 71.931,110.759 74.508 M96.123 78.186 C 94.428 78.924,92.800 81.543,92.800 83.533 C 92.800 89.431,101.352 91.548,104.038 86.316 C 106.698 81.134,101.537 75.832,96.123 78.186 M26.407 81.941 C 20.986 84.848,22.895 92.971,29.000 92.971 C 33.747 92.971,36.435 88.804,34.400 84.600 C 32.943 81.590,29.312 80.382,26.407 81.941 M13.000 87.177 C 7.157 89.561,8.997 98.514,15.330 98.514 C 18.944 98.514,21.202 96.285,21.199 92.720 C 21.195 88.578,16.819 85.619,13.000 87.177 M111.200 89.072 C 105.741 89.951,104.637 97.602,109.608 100.099 C 112.513 101.559,115.889 100.556,117.493 97.758 C 120.055 93.290,116.393 88.237,111.200 89.072 M92.497 92.740 C 90.836 93.218,88.845 95.158,88.363 96.767 C 86.668 102.423,93.424 106.789,97.962 102.971 C 102.617 99.053,98.345 91.055,92.497 92.740 M31.000 95.376 C 26.168 97.721,25.832 103.801,30.408 106.099 C 36.857 109.340,42.454 100.638,36.729 96.271 C 35.025 94.971,32.612 94.594,31.000 95.376 M79.048 98.401 C 73.077 100.254,73.760 109.054,79.938 109.882 C 84.883 110.546,88.312 105.712,86.038 101.284 C 84.812 98.896,81.652 97.593,79.048 98.401 M17.353 102.365 C 12.363 104.632,12.726 111.243,17.955 113.336 C 23.261 115.458,28.125 109.070,24.780 104.372 C 23.039 101.927,20.080 101.127,17.353 102.365 M104.160 102.362 C 99.151 104.637,99.417 111.442,104.593 113.419 C 109.824 115.416,114.649 108.664,111.239 104.119 C 109.506 101.809,106.836 101.147,104.160 102.362 M43.096 105.359 C 40.117 106.447,39.019 108.218,39.291 111.494 C 39.904 118.885,50.800 118.439,50.800 111.022 C 50.800 106.555,47.154 103.875,43.096 105.359 M69.025 109.016 C 63.102 111.052,63.500 118.620,69.627 120.455 C 71.426 120.994,74.394 119.779,75.709 117.965 C 78.893 113.573,74.169 107.247,69.025 109.016 M55.731 111.290 C 50.947 112.829,50.208 119.905,54.600 122.126 C 60.352 125.036,66.102 118.481,62.240 113.417 C 61.379 112.288,58.220 110.664,57.229 110.841 C 57.103 110.863,56.429 111.065,55.731 111.290 M28.000 111.867 C 22.434 114.158,22.762 121.615,28.500 123.213 C 33.253 124.537,37.600 119.231,35.283 114.932 C 33.936 112.432,30.323 110.911,28.000 111.867 M39.710 120.695 C 35.214 122.197,34.324 127.888,38.108 130.938 C 42.907 134.805,49.778 129.049,46.859 123.607 C 45.382 120.852,42.616 119.725,39.710 120.695 M68.600 124.384 C 63.843 126.364,64.303 134.456,69.235 135.561 C 74.690 136.783,78.870 131.427,76.109 126.753 C 74.861 124.641,70.948 123.406,68.600 124.384 M52.889 125.864 C 46.247 129.138,50.277 139.151,57.304 136.832 C 62.233 135.205,62.616 128.130,57.892 125.986 C 55.828 125.049,54.604 125.019,52.889 125.864 " stroke="none" fill="#f79b44" fill-rule="evenodd"></path></g></svg>
